M48
;GenerationSoftware,Autodesk,EAGLE,9.6.2*%
;CreationDate,2021-01-30T23:34:04Z*%
FMAT,2
ICI,OFF
METRIC,TZ,000.000
T4C0.762
T3C0.813
T2C1.000
T1C1.016
%
G90
M71
T1
X36830Y68580
X31750Y68580
X29210Y68580
X24130Y68580
X21590Y68580
X19050Y68580
X34290Y68580
T2
X15240Y89535
X15240Y92075
X38100Y76835
X38100Y79375
X38100Y81915
X38100Y84455
X38100Y86995
X38100Y89535
X38100Y92075
X15240Y74295
X38100Y74295
X15240Y76835
X15240Y79375
X15240Y81915
X15240Y84455
X15240Y86995
T3
X24130Y90170
X21590Y90170
X29210Y90170
X31750Y90170
X33020Y80010
X25400Y80010
X33020Y77470
X25400Y77470
X25400Y85090
X33020Y85090
X25400Y82550
X33020Y82550
X25400Y74930
X33020Y74930
T4
X21590Y75565
X21590Y78105
X20320Y79375
X20320Y76835
M30