G04 EAGLE Gerber RS-274X export*
G75*
%MOMM*%
%FSLAX34Y34*%
%LPD*%
%INTop Copper*%
%IPPOS*%
%AMOC8*
5,1,8,0,0,1.08239X$1,22.5*%
G01*
%ADD10C,1.143000*%
%ADD11P,1.319650X8X202.500000*%
%ADD12P,1.319650X8X22.500000*%
%ADD13C,1.500000*%
%ADD14C,1.524000*%
%ADD15C,0.203200*%

G36*
X387916Y659393D02*
X387916Y659393D01*
X387974Y659391D01*
X388056Y659413D01*
X388140Y659425D01*
X388193Y659449D01*
X388249Y659463D01*
X388322Y659506D01*
X388399Y659541D01*
X388444Y659579D01*
X388494Y659609D01*
X388552Y659670D01*
X388616Y659725D01*
X388648Y659773D01*
X388688Y659816D01*
X388727Y659891D01*
X388774Y659961D01*
X388791Y660017D01*
X388818Y660069D01*
X388829Y660137D01*
X388859Y660232D01*
X388862Y660332D01*
X388873Y660400D01*
X388873Y733454D01*
X388869Y733483D01*
X388872Y733512D01*
X388849Y733623D01*
X388833Y733736D01*
X388821Y733762D01*
X388816Y733791D01*
X388764Y733892D01*
X388717Y733995D01*
X388698Y734017D01*
X388685Y734043D01*
X388607Y734126D01*
X388534Y734212D01*
X388509Y734228D01*
X388489Y734250D01*
X388391Y734307D01*
X388297Y734370D01*
X388269Y734378D01*
X388244Y734393D01*
X388134Y734421D01*
X388026Y734455D01*
X387997Y734456D01*
X387968Y734463D01*
X387855Y734460D01*
X387742Y734463D01*
X387713Y734455D01*
X387684Y734454D01*
X387576Y734419D01*
X387467Y734391D01*
X387441Y734376D01*
X387413Y734367D01*
X387350Y734321D01*
X387222Y734246D01*
X387179Y734200D01*
X387140Y734172D01*
X386975Y734007D01*
X383098Y732401D01*
X378902Y732401D01*
X375025Y734007D01*
X372057Y736975D01*
X370451Y740852D01*
X370451Y745048D01*
X372057Y748925D01*
X375025Y751893D01*
X378902Y753499D01*
X383098Y753499D01*
X386975Y751893D01*
X387140Y751728D01*
X387164Y751710D01*
X387183Y751688D01*
X387277Y751625D01*
X387367Y751557D01*
X387395Y751547D01*
X387419Y751530D01*
X387527Y751496D01*
X387633Y751456D01*
X387662Y751454D01*
X387690Y751445D01*
X387803Y751442D01*
X387916Y751432D01*
X387945Y751438D01*
X387974Y751437D01*
X388084Y751466D01*
X388195Y751488D01*
X388221Y751502D01*
X388249Y751509D01*
X388347Y751567D01*
X388447Y751619D01*
X388469Y751639D01*
X388494Y751654D01*
X388571Y751737D01*
X388653Y751815D01*
X388668Y751840D01*
X388688Y751862D01*
X388740Y751962D01*
X388797Y752060D01*
X388804Y752089D01*
X388818Y752115D01*
X388831Y752192D01*
X388867Y752336D01*
X388865Y752398D01*
X388873Y752446D01*
X388873Y759667D01*
X388860Y759758D01*
X388857Y759850D01*
X388841Y759898D01*
X388833Y759948D01*
X388796Y760032D01*
X388767Y760119D01*
X388738Y760161D01*
X388717Y760208D01*
X388658Y760278D01*
X388606Y760354D01*
X388566Y760386D01*
X388534Y760425D01*
X388457Y760476D01*
X388386Y760534D01*
X388339Y760554D01*
X388297Y760582D01*
X388209Y760610D01*
X388125Y760646D01*
X388074Y760653D01*
X388026Y760668D01*
X387934Y760670D01*
X387843Y760682D01*
X387792Y760674D01*
X387742Y760675D01*
X387653Y760652D01*
X387562Y760638D01*
X387522Y760618D01*
X387467Y760603D01*
X387330Y760522D01*
X387261Y760488D01*
X386263Y759762D01*
X384854Y759045D01*
X383351Y758557D01*
X383031Y758506D01*
X383031Y767334D01*
X383023Y767392D01*
X383025Y767450D01*
X383003Y767532D01*
X382991Y767615D01*
X382967Y767669D01*
X382953Y767725D01*
X382910Y767798D01*
X382875Y767875D01*
X382837Y767919D01*
X382807Y767970D01*
X382746Y768027D01*
X382691Y768092D01*
X382643Y768124D01*
X382600Y768164D01*
X382525Y768203D01*
X382455Y768249D01*
X382399Y768267D01*
X382347Y768294D01*
X382279Y768305D01*
X382184Y768335D01*
X382084Y768338D01*
X382016Y768349D01*
X380999Y768349D01*
X380999Y768351D01*
X382016Y768351D01*
X382074Y768359D01*
X382132Y768358D01*
X382214Y768379D01*
X382297Y768391D01*
X382351Y768415D01*
X382407Y768429D01*
X382480Y768472D01*
X382557Y768507D01*
X382602Y768545D01*
X382652Y768575D01*
X382710Y768636D01*
X382774Y768691D01*
X382806Y768739D01*
X382846Y768782D01*
X382885Y768857D01*
X382931Y768927D01*
X382949Y768983D01*
X382976Y769035D01*
X382987Y769103D01*
X383017Y769198D01*
X383020Y769298D01*
X383031Y769366D01*
X383031Y778194D01*
X383351Y778143D01*
X384854Y777655D01*
X386263Y776938D01*
X387261Y776212D01*
X387342Y776169D01*
X387419Y776118D01*
X387468Y776102D01*
X387512Y776079D01*
X387602Y776060D01*
X387690Y776032D01*
X387741Y776031D01*
X387791Y776020D01*
X387882Y776027D01*
X387974Y776025D01*
X388024Y776038D01*
X388074Y776041D01*
X388160Y776073D01*
X388249Y776097D01*
X388293Y776122D01*
X388341Y776140D01*
X388415Y776195D01*
X388494Y776242D01*
X388529Y776279D01*
X388569Y776309D01*
X388625Y776382D01*
X388688Y776449D01*
X388712Y776494D01*
X388742Y776535D01*
X388776Y776620D01*
X388818Y776702D01*
X388825Y776746D01*
X388846Y776799D01*
X388861Y776957D01*
X388873Y777033D01*
X388873Y784254D01*
X388869Y784283D01*
X388872Y784312D01*
X388849Y784423D01*
X388833Y784536D01*
X388821Y784562D01*
X388816Y784591D01*
X388764Y784692D01*
X388717Y784795D01*
X388698Y784817D01*
X388685Y784843D01*
X388607Y784926D01*
X388534Y785012D01*
X388509Y785028D01*
X388489Y785050D01*
X388391Y785107D01*
X388297Y785170D01*
X388269Y785178D01*
X388244Y785193D01*
X388134Y785221D01*
X388026Y785255D01*
X387997Y785256D01*
X387968Y785263D01*
X387855Y785260D01*
X387742Y785263D01*
X387713Y785255D01*
X387684Y785254D01*
X387576Y785219D01*
X387467Y785191D01*
X387441Y785176D01*
X387413Y785167D01*
X387350Y785121D01*
X387222Y785046D01*
X387179Y785000D01*
X387140Y784972D01*
X386975Y784807D01*
X383098Y783201D01*
X378902Y783201D01*
X377618Y783733D01*
X377616Y783733D01*
X377615Y783734D01*
X377481Y783768D01*
X377343Y783804D01*
X377341Y783804D01*
X377339Y783804D01*
X377199Y783800D01*
X377058Y783796D01*
X377057Y783795D01*
X377055Y783795D01*
X376922Y783752D01*
X376788Y783709D01*
X376786Y783708D01*
X376785Y783708D01*
X376773Y783699D01*
X376551Y783551D01*
X376532Y783527D01*
X376511Y783513D01*
X339642Y746644D01*
X339590Y746574D01*
X339530Y746510D01*
X339504Y746461D01*
X339471Y746416D01*
X339440Y746335D01*
X339400Y746257D01*
X339392Y746209D01*
X339370Y746151D01*
X339358Y746003D01*
X339345Y745926D01*
X339345Y745512D01*
X333988Y740155D01*
X326412Y740155D01*
X321055Y745512D01*
X321055Y753088D01*
X326412Y758445D01*
X333988Y758445D01*
X336249Y756183D01*
X336296Y756148D01*
X336336Y756106D01*
X336409Y756063D01*
X336476Y756012D01*
X336531Y755992D01*
X336581Y755962D01*
X336663Y755941D01*
X336742Y755911D01*
X336800Y755906D01*
X336857Y755892D01*
X336941Y755895D01*
X337025Y755888D01*
X337083Y755899D01*
X337141Y755901D01*
X337221Y755927D01*
X337304Y755944D01*
X337356Y755971D01*
X337412Y755989D01*
X337468Y756029D01*
X337556Y756075D01*
X337629Y756143D01*
X337685Y756183D01*
X370763Y789261D01*
X370764Y789263D01*
X370765Y789264D01*
X370854Y789382D01*
X370934Y789489D01*
X370934Y789490D01*
X370935Y789491D01*
X370986Y789625D01*
X371035Y789754D01*
X371035Y789756D01*
X371036Y789757D01*
X371047Y789902D01*
X371059Y790038D01*
X371058Y790039D01*
X371059Y790041D01*
X371055Y790056D01*
X371003Y790316D01*
X370989Y790343D01*
X370983Y790368D01*
X370451Y791652D01*
X370451Y795848D01*
X372057Y799725D01*
X375025Y802693D01*
X378902Y804299D01*
X383098Y804299D01*
X386975Y802693D01*
X387140Y802528D01*
X387164Y802510D01*
X387183Y802488D01*
X387277Y802425D01*
X387367Y802357D01*
X387395Y802347D01*
X387419Y802330D01*
X387527Y802296D01*
X387633Y802256D01*
X387662Y802254D01*
X387690Y802245D01*
X387803Y802242D01*
X387916Y802232D01*
X387945Y802238D01*
X387974Y802237D01*
X388084Y802266D01*
X388195Y802288D01*
X388221Y802302D01*
X388249Y802309D01*
X388347Y802367D01*
X388447Y802419D01*
X388469Y802439D01*
X388494Y802454D01*
X388571Y802537D01*
X388653Y802615D01*
X388668Y802640D01*
X388688Y802662D01*
X388740Y802762D01*
X388797Y802860D01*
X388804Y802889D01*
X388818Y802915D01*
X388831Y802992D01*
X388867Y803136D01*
X388865Y803198D01*
X388873Y803246D01*
X388873Y809654D01*
X388869Y809683D01*
X388872Y809712D01*
X388866Y809740D01*
X388867Y809758D01*
X388849Y809825D01*
X388833Y809936D01*
X388821Y809962D01*
X388816Y809991D01*
X388796Y810030D01*
X388795Y810033D01*
X388788Y810045D01*
X388764Y810092D01*
X388717Y810195D01*
X388698Y810217D01*
X388685Y810243D01*
X388607Y810326D01*
X388534Y810412D01*
X388509Y810428D01*
X388489Y810450D01*
X388391Y810507D01*
X388297Y810570D01*
X388269Y810578D01*
X388244Y810593D01*
X388134Y810621D01*
X388026Y810655D01*
X387997Y810656D01*
X387968Y810663D01*
X387855Y810660D01*
X387742Y810663D01*
X387713Y810655D01*
X387684Y810654D01*
X387576Y810619D01*
X387572Y810618D01*
X387564Y810617D01*
X387559Y810615D01*
X387467Y810591D01*
X387441Y810576D01*
X387413Y810567D01*
X387350Y810521D01*
X387348Y810520D01*
X387305Y810501D01*
X387280Y810480D01*
X387222Y810446D01*
X387179Y810400D01*
X387140Y810372D01*
X386975Y810207D01*
X383098Y808601D01*
X378902Y808601D01*
X377618Y809133D01*
X377616Y809133D01*
X377615Y809134D01*
X377479Y809169D01*
X377342Y809204D01*
X377341Y809204D01*
X377339Y809204D01*
X377199Y809200D01*
X377058Y809196D01*
X377057Y809195D01*
X377055Y809195D01*
X376922Y809152D01*
X376788Y809109D01*
X376786Y809108D01*
X376785Y809108D01*
X376773Y809099D01*
X376551Y808951D01*
X376532Y808927D01*
X376511Y808913D01*
X340912Y773314D01*
X339642Y772044D01*
X339590Y771974D01*
X339530Y771910D01*
X339504Y771861D01*
X339471Y771817D01*
X339440Y771735D01*
X339400Y771657D01*
X339392Y771609D01*
X339370Y771551D01*
X339358Y771403D01*
X339345Y771326D01*
X339345Y770912D01*
X333988Y765555D01*
X326412Y765555D01*
X321055Y770912D01*
X321055Y778488D01*
X326412Y783845D01*
X333988Y783845D01*
X336249Y781583D01*
X336296Y781548D01*
X336336Y781506D01*
X336409Y781463D01*
X336476Y781412D01*
X336531Y781392D01*
X336581Y781362D01*
X336663Y781341D01*
X336742Y781311D01*
X336800Y781306D01*
X336857Y781292D01*
X336941Y781295D01*
X337025Y781288D01*
X337083Y781299D01*
X337141Y781301D01*
X337221Y781327D01*
X337304Y781344D01*
X337356Y781371D01*
X337412Y781389D01*
X337468Y781429D01*
X337556Y781475D01*
X337629Y781543D01*
X337685Y781583D01*
X370763Y814661D01*
X370764Y814663D01*
X370765Y814664D01*
X370853Y814781D01*
X370934Y814889D01*
X370934Y814890D01*
X370935Y814891D01*
X370986Y815026D01*
X371035Y815154D01*
X371035Y815156D01*
X371036Y815157D01*
X371047Y815302D01*
X371059Y815438D01*
X371058Y815439D01*
X371059Y815441D01*
X371055Y815456D01*
X371003Y815716D01*
X370989Y815743D01*
X370983Y815768D01*
X370451Y817052D01*
X370451Y821248D01*
X372057Y825125D01*
X375025Y828093D01*
X378902Y829699D01*
X383098Y829699D01*
X386975Y828093D01*
X387140Y827928D01*
X387164Y827910D01*
X387183Y827888D01*
X387277Y827825D01*
X387367Y827757D01*
X387395Y827747D01*
X387419Y827730D01*
X387527Y827696D01*
X387633Y827656D01*
X387662Y827654D01*
X387690Y827645D01*
X387803Y827642D01*
X387916Y827632D01*
X387945Y827638D01*
X387974Y827637D01*
X388084Y827666D01*
X388195Y827688D01*
X388221Y827702D01*
X388249Y827709D01*
X388347Y827767D01*
X388447Y827819D01*
X388469Y827839D01*
X388494Y827854D01*
X388571Y827937D01*
X388653Y828015D01*
X388668Y828040D01*
X388688Y828062D01*
X388740Y828162D01*
X388797Y828260D01*
X388804Y828289D01*
X388818Y828315D01*
X388831Y828392D01*
X388867Y828536D01*
X388865Y828598D01*
X388873Y828646D01*
X388873Y835054D01*
X388869Y835083D01*
X388872Y835112D01*
X388867Y835138D01*
X388867Y835139D01*
X388865Y835146D01*
X388849Y835223D01*
X388833Y835336D01*
X388821Y835362D01*
X388816Y835391D01*
X388764Y835492D01*
X388717Y835595D01*
X388698Y835617D01*
X388685Y835643D01*
X388607Y835726D01*
X388534Y835812D01*
X388509Y835828D01*
X388489Y835850D01*
X388391Y835907D01*
X388297Y835970D01*
X388269Y835978D01*
X388244Y835993D01*
X388134Y836021D01*
X388026Y836055D01*
X387997Y836056D01*
X387968Y836063D01*
X387855Y836060D01*
X387742Y836063D01*
X387713Y836055D01*
X387684Y836054D01*
X387576Y836019D01*
X387467Y835991D01*
X387441Y835976D01*
X387413Y835967D01*
X387350Y835921D01*
X387222Y835846D01*
X387179Y835800D01*
X387140Y835772D01*
X386975Y835607D01*
X383098Y834001D01*
X378902Y834001D01*
X377618Y834533D01*
X377616Y834533D01*
X377615Y834534D01*
X377479Y834569D01*
X377342Y834604D01*
X377341Y834604D01*
X377339Y834604D01*
X377199Y834600D01*
X377058Y834596D01*
X377057Y834595D01*
X377055Y834595D01*
X376922Y834552D01*
X376788Y834509D01*
X376786Y834508D01*
X376785Y834508D01*
X376773Y834499D01*
X376551Y834351D01*
X376532Y834327D01*
X376511Y834313D01*
X340912Y798714D01*
X339642Y797444D01*
X339590Y797374D01*
X339530Y797310D01*
X339504Y797261D01*
X339471Y797217D01*
X339440Y797135D01*
X339400Y797057D01*
X339392Y797009D01*
X339370Y796951D01*
X339358Y796803D01*
X339345Y796726D01*
X339345Y796312D01*
X333988Y790955D01*
X326412Y790955D01*
X321055Y796312D01*
X321055Y803888D01*
X326412Y809245D01*
X333988Y809245D01*
X336249Y806983D01*
X336296Y806948D01*
X336336Y806906D01*
X336409Y806863D01*
X336476Y806812D01*
X336531Y806792D01*
X336581Y806762D01*
X336663Y806741D01*
X336742Y806711D01*
X336800Y806706D01*
X336857Y806692D01*
X336941Y806695D01*
X337025Y806688D01*
X337083Y806699D01*
X337141Y806701D01*
X337221Y806727D01*
X337304Y806744D01*
X337356Y806771D01*
X337412Y806789D01*
X337468Y806829D01*
X337556Y806875D01*
X337629Y806943D01*
X337685Y806983D01*
X370763Y840061D01*
X370764Y840063D01*
X370765Y840064D01*
X370853Y840181D01*
X370934Y840289D01*
X370934Y840290D01*
X370935Y840291D01*
X370984Y840421D01*
X371035Y840554D01*
X371035Y840556D01*
X371036Y840557D01*
X371047Y840702D01*
X371059Y840838D01*
X371058Y840839D01*
X371059Y840841D01*
X371055Y840856D01*
X371003Y841116D01*
X370989Y841143D01*
X370983Y841168D01*
X370451Y842452D01*
X370451Y846648D01*
X372057Y850525D01*
X375025Y853493D01*
X378902Y855099D01*
X383098Y855099D01*
X386975Y853493D01*
X387140Y853328D01*
X387164Y853310D01*
X387183Y853288D01*
X387277Y853225D01*
X387367Y853157D01*
X387395Y853147D01*
X387419Y853130D01*
X387527Y853096D01*
X387633Y853056D01*
X387662Y853054D01*
X387690Y853045D01*
X387803Y853042D01*
X387916Y853032D01*
X387945Y853038D01*
X387974Y853037D01*
X388084Y853066D01*
X388195Y853088D01*
X388221Y853102D01*
X388249Y853109D01*
X388347Y853167D01*
X388447Y853219D01*
X388469Y853239D01*
X388494Y853254D01*
X388571Y853337D01*
X388653Y853415D01*
X388668Y853440D01*
X388688Y853462D01*
X388740Y853562D01*
X388797Y853660D01*
X388804Y853689D01*
X388818Y853715D01*
X388831Y853792D01*
X388867Y853936D01*
X388865Y853998D01*
X388873Y854046D01*
X388873Y860454D01*
X388869Y860483D01*
X388872Y860512D01*
X388849Y860623D01*
X388833Y860736D01*
X388821Y860762D01*
X388816Y860791D01*
X388764Y860892D01*
X388717Y860995D01*
X388698Y861017D01*
X388685Y861043D01*
X388607Y861126D01*
X388534Y861212D01*
X388509Y861228D01*
X388489Y861250D01*
X388391Y861307D01*
X388297Y861370D01*
X388269Y861378D01*
X388244Y861393D01*
X388134Y861421D01*
X388026Y861455D01*
X387997Y861456D01*
X387968Y861463D01*
X387855Y861460D01*
X387742Y861463D01*
X387713Y861455D01*
X387684Y861454D01*
X387576Y861419D01*
X387467Y861391D01*
X387441Y861376D01*
X387413Y861367D01*
X387350Y861321D01*
X387222Y861246D01*
X387179Y861200D01*
X387140Y861172D01*
X386975Y861007D01*
X383098Y859401D01*
X378902Y859401D01*
X375025Y861007D01*
X372057Y863975D01*
X371525Y865259D01*
X371525Y865260D01*
X371524Y865261D01*
X371453Y865382D01*
X371381Y865503D01*
X371380Y865504D01*
X371379Y865506D01*
X371275Y865603D01*
X371174Y865699D01*
X371173Y865699D01*
X371172Y865700D01*
X371046Y865765D01*
X370921Y865829D01*
X370920Y865829D01*
X370918Y865830D01*
X370904Y865832D01*
X370643Y865884D01*
X370612Y865881D01*
X370587Y865885D01*
X272614Y865885D01*
X272585Y865881D01*
X272556Y865884D01*
X272445Y865861D01*
X272333Y865845D01*
X272306Y865833D01*
X272277Y865828D01*
X272177Y865776D01*
X272073Y865729D01*
X272051Y865710D01*
X272025Y865697D01*
X271943Y865619D01*
X271856Y865546D01*
X271840Y865521D01*
X271819Y865501D01*
X271761Y865403D01*
X271699Y865309D01*
X271690Y865281D01*
X271675Y865256D01*
X271647Y865146D01*
X271613Y865038D01*
X271612Y865008D01*
X271605Y864980D01*
X271608Y864867D01*
X271606Y864754D01*
X271613Y864725D01*
X271614Y864696D01*
X271649Y864588D01*
X271677Y864479D01*
X271692Y864453D01*
X271701Y864425D01*
X271747Y864362D01*
X271823Y864234D01*
X271868Y864191D01*
X271896Y864152D01*
X306186Y829862D01*
X306256Y829810D01*
X306320Y829750D01*
X306369Y829724D01*
X306414Y829691D01*
X306495Y829660D01*
X306573Y829620D01*
X306621Y829612D01*
X306679Y829590D01*
X306827Y829578D01*
X306904Y829565D01*
X320912Y829565D01*
X320998Y829577D01*
X321086Y829580D01*
X321138Y829597D01*
X321193Y829605D01*
X321273Y829640D01*
X321356Y829667D01*
X321395Y829695D01*
X321453Y829721D01*
X321566Y829817D01*
X321629Y829862D01*
X326412Y834645D01*
X333988Y834645D01*
X339345Y829288D01*
X339345Y821712D01*
X333988Y816355D01*
X326412Y816355D01*
X321629Y821138D01*
X321560Y821190D01*
X321496Y821250D01*
X321446Y821276D01*
X321402Y821309D01*
X321321Y821340D01*
X321243Y821380D01*
X321195Y821388D01*
X321137Y821410D01*
X320989Y821422D01*
X320912Y821435D01*
X303116Y821435D01*
X252614Y871938D01*
X252544Y871990D01*
X252480Y872050D01*
X252431Y872076D01*
X252386Y872109D01*
X252305Y872140D01*
X252227Y872180D01*
X252179Y872188D01*
X252121Y872210D01*
X251973Y872222D01*
X251896Y872235D01*
X239616Y872235D01*
X219594Y892258D01*
X219524Y892310D01*
X219460Y892370D01*
X219411Y892396D01*
X219367Y892429D01*
X219285Y892460D01*
X219207Y892500D01*
X219159Y892508D01*
X219101Y892530D01*
X218953Y892542D01*
X218876Y892555D01*
X212112Y892555D01*
X206755Y897912D01*
X206755Y905488D01*
X212112Y910845D01*
X219688Y910845D01*
X225045Y905488D01*
X225045Y898724D01*
X225057Y898638D01*
X225060Y898550D01*
X225077Y898497D01*
X225085Y898443D01*
X225120Y898363D01*
X225147Y898280D01*
X225175Y898240D01*
X225201Y898183D01*
X225297Y898070D01*
X225342Y898006D01*
X242686Y880662D01*
X242756Y880610D01*
X242820Y880550D01*
X242869Y880524D01*
X242914Y880491D01*
X242995Y880460D01*
X243073Y880420D01*
X243121Y880412D01*
X243179Y880390D01*
X243327Y880378D01*
X243404Y880365D01*
X254436Y880365D01*
X254465Y880369D01*
X254494Y880366D01*
X254605Y880389D01*
X254717Y880405D01*
X254744Y880417D01*
X254773Y880422D01*
X254873Y880474D01*
X254977Y880521D01*
X254999Y880540D01*
X255025Y880553D01*
X255107Y880631D01*
X255194Y880704D01*
X255210Y880729D01*
X255231Y880749D01*
X255289Y880847D01*
X255351Y880941D01*
X255360Y880969D01*
X255375Y880994D01*
X255403Y881104D01*
X255437Y881212D01*
X255438Y881242D01*
X255445Y881270D01*
X255442Y881383D01*
X255444Y881496D01*
X255437Y881525D01*
X255436Y881554D01*
X255401Y881662D01*
X255373Y881771D01*
X255358Y881797D01*
X255349Y881825D01*
X255303Y881888D01*
X255227Y882016D01*
X255182Y882059D01*
X255154Y882098D01*
X244994Y892258D01*
X244924Y892310D01*
X244860Y892370D01*
X244811Y892396D01*
X244767Y892429D01*
X244685Y892460D01*
X244607Y892500D01*
X244559Y892508D01*
X244501Y892530D01*
X244353Y892542D01*
X244276Y892555D01*
X237512Y892555D01*
X232155Y897912D01*
X232155Y905488D01*
X237512Y910845D01*
X245088Y910845D01*
X250445Y905488D01*
X250445Y898724D01*
X250457Y898638D01*
X250460Y898550D01*
X250477Y898497D01*
X250485Y898443D01*
X250520Y898363D01*
X250547Y898280D01*
X250575Y898240D01*
X250601Y898183D01*
X250697Y898070D01*
X250742Y898006D01*
X274436Y874312D01*
X274506Y874260D01*
X274570Y874200D01*
X274619Y874174D01*
X274664Y874141D01*
X274745Y874110D01*
X274823Y874070D01*
X274871Y874062D01*
X274929Y874040D01*
X275077Y874028D01*
X275154Y874015D01*
X370587Y874015D01*
X370589Y874015D01*
X370591Y874015D01*
X370731Y874035D01*
X370869Y874055D01*
X370870Y874055D01*
X370872Y874055D01*
X370998Y874112D01*
X371128Y874171D01*
X371130Y874172D01*
X371131Y874173D01*
X371238Y874264D01*
X371345Y874354D01*
X371346Y874356D01*
X371347Y874357D01*
X371356Y874370D01*
X371503Y874591D01*
X371512Y874620D01*
X371525Y874641D01*
X372057Y875925D01*
X375025Y878893D01*
X378902Y880499D01*
X383098Y880499D01*
X386975Y878893D01*
X387140Y878728D01*
X387164Y878710D01*
X387183Y878688D01*
X387277Y878625D01*
X387367Y878557D01*
X387395Y878547D01*
X387419Y878530D01*
X387527Y878496D01*
X387633Y878456D01*
X387662Y878454D01*
X387690Y878445D01*
X387803Y878442D01*
X387916Y878432D01*
X387945Y878438D01*
X387974Y878437D01*
X388084Y878466D01*
X388195Y878488D01*
X388221Y878502D01*
X388249Y878509D01*
X388347Y878567D01*
X388447Y878619D01*
X388469Y878639D01*
X388494Y878654D01*
X388571Y878737D01*
X388653Y878815D01*
X388668Y878840D01*
X388688Y878862D01*
X388740Y878962D01*
X388797Y879060D01*
X388804Y879089D01*
X388818Y879115D01*
X388831Y879192D01*
X388867Y879336D01*
X388865Y879398D01*
X388873Y879446D01*
X388873Y885854D01*
X388869Y885883D01*
X388872Y885912D01*
X388849Y886023D01*
X388833Y886136D01*
X388821Y886162D01*
X388816Y886191D01*
X388764Y886292D01*
X388717Y886395D01*
X388698Y886417D01*
X388685Y886443D01*
X388607Y886526D01*
X388534Y886612D01*
X388509Y886628D01*
X388489Y886650D01*
X388391Y886707D01*
X388297Y886770D01*
X388269Y886778D01*
X388244Y886793D01*
X388134Y886821D01*
X388026Y886855D01*
X387997Y886856D01*
X387968Y886863D01*
X387855Y886860D01*
X387742Y886863D01*
X387713Y886855D01*
X387684Y886854D01*
X387576Y886819D01*
X387467Y886791D01*
X387441Y886776D01*
X387413Y886767D01*
X387350Y886721D01*
X387222Y886646D01*
X387179Y886600D01*
X387140Y886572D01*
X386975Y886407D01*
X383098Y884801D01*
X378902Y884801D01*
X375025Y886407D01*
X372057Y889375D01*
X370451Y893252D01*
X370451Y897448D01*
X372057Y901325D01*
X375025Y904293D01*
X378902Y905899D01*
X383098Y905899D01*
X386975Y904293D01*
X387140Y904128D01*
X387164Y904110D01*
X387183Y904088D01*
X387277Y904025D01*
X387367Y903957D01*
X387395Y903947D01*
X387419Y903930D01*
X387527Y903896D01*
X387633Y903856D01*
X387662Y903854D01*
X387690Y903845D01*
X387803Y903842D01*
X387916Y903832D01*
X387945Y903838D01*
X387974Y903837D01*
X388084Y903866D01*
X388195Y903888D01*
X388221Y903902D01*
X388249Y903909D01*
X388347Y903967D01*
X388447Y904019D01*
X388469Y904039D01*
X388494Y904054D01*
X388571Y904137D01*
X388653Y904215D01*
X388668Y904240D01*
X388688Y904262D01*
X388740Y904362D01*
X388797Y904460D01*
X388804Y904489D01*
X388818Y904515D01*
X388831Y904592D01*
X388867Y904736D01*
X388865Y904798D01*
X388873Y904846D01*
X388873Y911254D01*
X388869Y911283D01*
X388872Y911312D01*
X388849Y911423D01*
X388833Y911536D01*
X388821Y911562D01*
X388816Y911591D01*
X388764Y911692D01*
X388717Y911795D01*
X388698Y911817D01*
X388685Y911843D01*
X388607Y911926D01*
X388534Y912012D01*
X388509Y912028D01*
X388489Y912050D01*
X388391Y912107D01*
X388297Y912170D01*
X388269Y912178D01*
X388244Y912193D01*
X388134Y912221D01*
X388026Y912255D01*
X387997Y912256D01*
X387968Y912263D01*
X387855Y912260D01*
X387742Y912263D01*
X387713Y912255D01*
X387684Y912254D01*
X387576Y912219D01*
X387467Y912191D01*
X387441Y912176D01*
X387413Y912167D01*
X387350Y912121D01*
X387222Y912046D01*
X387179Y912000D01*
X387140Y911972D01*
X386975Y911807D01*
X383098Y910201D01*
X378902Y910201D01*
X375025Y911807D01*
X372057Y914775D01*
X370451Y918652D01*
X370451Y922848D01*
X372057Y926725D01*
X375025Y929693D01*
X378902Y931299D01*
X383098Y931299D01*
X386975Y929693D01*
X387140Y929528D01*
X387164Y929510D01*
X387183Y929488D01*
X387277Y929425D01*
X387367Y929357D01*
X387395Y929347D01*
X387419Y929330D01*
X387527Y929296D01*
X387633Y929256D01*
X387662Y929254D01*
X387690Y929245D01*
X387803Y929242D01*
X387916Y929232D01*
X387945Y929238D01*
X387974Y929237D01*
X388084Y929266D01*
X388195Y929288D01*
X388221Y929302D01*
X388249Y929309D01*
X388347Y929367D01*
X388447Y929419D01*
X388469Y929439D01*
X388494Y929454D01*
X388571Y929537D01*
X388653Y929615D01*
X388668Y929640D01*
X388688Y929662D01*
X388740Y929762D01*
X388797Y929860D01*
X388804Y929889D01*
X388818Y929915D01*
X388831Y929992D01*
X388867Y930136D01*
X388865Y930198D01*
X388873Y930246D01*
X388873Y933958D01*
X388865Y934016D01*
X388867Y934074D01*
X388845Y934156D01*
X388833Y934240D01*
X388810Y934293D01*
X388795Y934349D01*
X388752Y934422D01*
X388717Y934499D01*
X388679Y934544D01*
X388650Y934594D01*
X388588Y934652D01*
X388534Y934716D01*
X388485Y934748D01*
X388442Y934788D01*
X388367Y934827D01*
X388297Y934874D01*
X388241Y934891D01*
X388189Y934918D01*
X388121Y934929D01*
X388026Y934959D01*
X387926Y934962D01*
X387858Y934973D01*
X145542Y934973D01*
X145484Y934965D01*
X145426Y934967D01*
X145344Y934945D01*
X145260Y934933D01*
X145207Y934910D01*
X145151Y934895D01*
X145078Y934852D01*
X145001Y934817D01*
X144956Y934779D01*
X144906Y934750D01*
X144848Y934688D01*
X144784Y934634D01*
X144752Y934585D01*
X144712Y934542D01*
X144673Y934467D01*
X144626Y934397D01*
X144609Y934341D01*
X144582Y934289D01*
X144571Y934221D01*
X144541Y934126D01*
X144538Y934026D01*
X144527Y933958D01*
X144527Y930246D01*
X144531Y930217D01*
X144528Y930188D01*
X144551Y930077D01*
X144567Y929964D01*
X144579Y929938D01*
X144584Y929909D01*
X144636Y929808D01*
X144683Y929705D01*
X144702Y929683D01*
X144715Y929657D01*
X144793Y929574D01*
X144866Y929488D01*
X144891Y929472D01*
X144911Y929450D01*
X145009Y929393D01*
X145103Y929330D01*
X145131Y929322D01*
X145156Y929307D01*
X145266Y929279D01*
X145374Y929245D01*
X145403Y929244D01*
X145432Y929237D01*
X145545Y929240D01*
X145658Y929237D01*
X145687Y929245D01*
X145716Y929246D01*
X145824Y929281D01*
X145933Y929309D01*
X145959Y929324D01*
X145987Y929333D01*
X146050Y929379D01*
X146178Y929454D01*
X146221Y929500D01*
X146260Y929528D01*
X146425Y929693D01*
X150302Y931299D01*
X154498Y931299D01*
X158375Y929693D01*
X161343Y926725D01*
X162949Y922848D01*
X162949Y918652D01*
X161343Y914775D01*
X158375Y911807D01*
X154498Y910201D01*
X150302Y910201D01*
X146425Y911807D01*
X146260Y911972D01*
X146236Y911990D01*
X146217Y912012D01*
X146123Y912075D01*
X146033Y912143D01*
X146005Y912153D01*
X145981Y912170D01*
X145873Y912204D01*
X145767Y912244D01*
X145738Y912246D01*
X145710Y912255D01*
X145597Y912258D01*
X145484Y912268D01*
X145455Y912262D01*
X145426Y912263D01*
X145316Y912234D01*
X145205Y912212D01*
X145179Y912198D01*
X145151Y912191D01*
X145053Y912133D01*
X144953Y912081D01*
X144931Y912061D01*
X144906Y912046D01*
X144829Y911963D01*
X144747Y911885D01*
X144732Y911860D01*
X144712Y911838D01*
X144660Y911738D01*
X144603Y911640D01*
X144596Y911611D01*
X144582Y911585D01*
X144569Y911508D01*
X144533Y911364D01*
X144535Y911302D01*
X144527Y911254D01*
X144527Y904846D01*
X144531Y904817D01*
X144528Y904788D01*
X144551Y904677D01*
X144567Y904564D01*
X144579Y904538D01*
X144584Y904509D01*
X144636Y904408D01*
X144683Y904305D01*
X144702Y904283D01*
X144715Y904257D01*
X144793Y904174D01*
X144866Y904088D01*
X144891Y904072D01*
X144911Y904050D01*
X145009Y903993D01*
X145103Y903930D01*
X145131Y903922D01*
X145156Y903907D01*
X145266Y903879D01*
X145374Y903845D01*
X145403Y903844D01*
X145432Y903837D01*
X145545Y903840D01*
X145658Y903837D01*
X145687Y903845D01*
X145716Y903846D01*
X145824Y903881D01*
X145933Y903909D01*
X145959Y903924D01*
X145987Y903933D01*
X146050Y903979D01*
X146178Y904054D01*
X146221Y904100D01*
X146260Y904128D01*
X146425Y904293D01*
X150302Y905899D01*
X154498Y905899D01*
X158375Y904293D01*
X161343Y901325D01*
X161875Y900041D01*
X161875Y900040D01*
X161876Y900039D01*
X161947Y899918D01*
X162019Y899797D01*
X162020Y899796D01*
X162021Y899794D01*
X162125Y899697D01*
X162226Y899601D01*
X162227Y899601D01*
X162228Y899600D01*
X162354Y899535D01*
X162479Y899471D01*
X162480Y899471D01*
X162482Y899470D01*
X162496Y899468D01*
X162757Y899416D01*
X162788Y899419D01*
X162813Y899415D01*
X185834Y899415D01*
X232665Y852584D01*
X232665Y827604D01*
X232677Y827518D01*
X232680Y827430D01*
X232697Y827378D01*
X232705Y827323D01*
X232740Y827243D01*
X232767Y827160D01*
X232795Y827120D01*
X232821Y827063D01*
X232917Y826950D01*
X232962Y826886D01*
X242686Y817162D01*
X242756Y817110D01*
X242820Y817050D01*
X242869Y817024D01*
X242914Y816991D01*
X242995Y816960D01*
X243073Y816920D01*
X243121Y816912D01*
X243179Y816890D01*
X243327Y816878D01*
X243404Y816865D01*
X247970Y816865D01*
X247999Y816869D01*
X248028Y816866D01*
X248139Y816889D01*
X248252Y816905D01*
X248278Y816917D01*
X248307Y816922D01*
X248408Y816974D01*
X248511Y817021D01*
X248533Y817040D01*
X248559Y817053D01*
X248641Y817131D01*
X248728Y817204D01*
X248744Y817229D01*
X248766Y817249D01*
X248823Y817347D01*
X248886Y817441D01*
X248894Y817469D01*
X248909Y817494D01*
X248937Y817604D01*
X248971Y817712D01*
X248972Y817742D01*
X248979Y817770D01*
X248976Y817883D01*
X248979Y817996D01*
X248971Y818025D01*
X248970Y818054D01*
X248935Y818162D01*
X248907Y818271D01*
X248892Y818297D01*
X248883Y818325D01*
X248837Y818388D01*
X248762Y818516D01*
X248716Y818559D01*
X248688Y818598D01*
X245363Y821923D01*
X245363Y823469D01*
X252984Y823469D01*
X253042Y823477D01*
X253100Y823475D01*
X253182Y823497D01*
X253265Y823509D01*
X253319Y823533D01*
X253375Y823547D01*
X253448Y823590D01*
X253525Y823625D01*
X253569Y823663D01*
X253620Y823693D01*
X253677Y823754D01*
X253742Y823809D01*
X253774Y823857D01*
X253814Y823900D01*
X253853Y823975D01*
X253899Y824045D01*
X253917Y824101D01*
X253944Y824153D01*
X253955Y824221D01*
X253985Y824316D01*
X253988Y824416D01*
X253999Y824484D01*
X253999Y825501D01*
X254001Y825501D01*
X254001Y824484D01*
X254009Y824426D01*
X254008Y824368D01*
X254029Y824286D01*
X254041Y824203D01*
X254065Y824149D01*
X254079Y824093D01*
X254122Y824020D01*
X254157Y823943D01*
X254195Y823898D01*
X254225Y823848D01*
X254286Y823790D01*
X254341Y823726D01*
X254389Y823694D01*
X254432Y823654D01*
X254507Y823615D01*
X254577Y823569D01*
X254633Y823551D01*
X254685Y823524D01*
X254753Y823513D01*
X254848Y823483D01*
X254948Y823480D01*
X255016Y823469D01*
X262637Y823469D01*
X262637Y821923D01*
X259312Y818598D01*
X259294Y818574D01*
X259272Y818555D01*
X259209Y818461D01*
X259141Y818371D01*
X259131Y818343D01*
X259114Y818319D01*
X259080Y818211D01*
X259040Y818105D01*
X259037Y818076D01*
X259029Y818048D01*
X259026Y817934D01*
X259016Y817822D01*
X259022Y817793D01*
X259021Y817764D01*
X259050Y817654D01*
X259072Y817543D01*
X259086Y817517D01*
X259093Y817489D01*
X259151Y817391D01*
X259203Y817291D01*
X259223Y817269D01*
X259238Y817244D01*
X259321Y817167D01*
X259399Y817085D01*
X259424Y817070D01*
X259446Y817050D01*
X259547Y816998D01*
X259644Y816941D01*
X259673Y816934D01*
X259699Y816920D01*
X259776Y816907D01*
X259920Y816871D01*
X259982Y816873D01*
X260030Y816865D01*
X293784Y816865D01*
X296165Y814484D01*
X296165Y764104D01*
X296177Y764018D01*
X296180Y763930D01*
X296197Y763878D01*
X296205Y763823D01*
X296240Y763743D01*
X296267Y763660D01*
X296295Y763620D01*
X296321Y763563D01*
X296417Y763450D01*
X296462Y763386D01*
X359102Y700746D01*
X359149Y700711D01*
X359189Y700668D01*
X359262Y700626D01*
X359330Y700575D01*
X359384Y700554D01*
X359435Y700525D01*
X359516Y700504D01*
X359595Y700474D01*
X359654Y700469D01*
X359710Y700455D01*
X359794Y700457D01*
X359879Y700450D01*
X359936Y700462D01*
X359994Y700464D01*
X360075Y700490D01*
X360157Y700506D01*
X360209Y700533D01*
X360265Y700551D01*
X360321Y700591D01*
X360410Y700637D01*
X360482Y700706D01*
X360538Y700746D01*
X362257Y702465D01*
X366178Y704089D01*
X370422Y704089D01*
X374343Y702464D01*
X377344Y699463D01*
X378969Y695542D01*
X378969Y676058D01*
X377344Y672137D01*
X374343Y669136D01*
X370422Y667511D01*
X366178Y667511D01*
X362257Y669136D01*
X359256Y672137D01*
X357631Y676058D01*
X357631Y690300D01*
X357619Y690386D01*
X357616Y690474D01*
X357599Y690526D01*
X357591Y690581D01*
X357556Y690661D01*
X357529Y690744D01*
X357501Y690784D01*
X357475Y690841D01*
X357379Y690954D01*
X357334Y691018D01*
X355302Y693050D01*
X355278Y693067D01*
X355259Y693090D01*
X355165Y693153D01*
X355075Y693221D01*
X355047Y693231D01*
X355023Y693247D01*
X354915Y693282D01*
X354809Y693322D01*
X354780Y693324D01*
X354752Y693333D01*
X354638Y693336D01*
X354526Y693345D01*
X354497Y693340D01*
X354468Y693340D01*
X354358Y693312D01*
X354247Y693290D01*
X354221Y693276D01*
X354193Y693269D01*
X354095Y693211D01*
X353995Y693159D01*
X353973Y693138D01*
X353948Y693123D01*
X353871Y693041D01*
X353789Y692963D01*
X353774Y692937D01*
X353754Y692916D01*
X353702Y692815D01*
X353645Y692717D01*
X353638Y692689D01*
X353624Y692663D01*
X353611Y692586D01*
X353575Y692442D01*
X353577Y692379D01*
X353569Y692332D01*
X353569Y676058D01*
X351944Y672137D01*
X348943Y669136D01*
X345022Y667511D01*
X340778Y667511D01*
X336857Y669136D01*
X333856Y672137D01*
X332231Y676058D01*
X332231Y690300D01*
X332219Y690386D01*
X332216Y690474D01*
X332199Y690526D01*
X332191Y690581D01*
X332156Y690661D01*
X332129Y690744D01*
X332101Y690784D01*
X332075Y690841D01*
X331979Y690954D01*
X331934Y691018D01*
X329394Y693558D01*
X329370Y693575D01*
X329351Y693598D01*
X329257Y693661D01*
X329167Y693729D01*
X329139Y693739D01*
X329115Y693755D01*
X329007Y693790D01*
X328901Y693830D01*
X328872Y693832D01*
X328844Y693841D01*
X328730Y693844D01*
X328618Y693853D01*
X328589Y693848D01*
X328560Y693848D01*
X328450Y693820D01*
X328339Y693798D01*
X328313Y693784D01*
X328285Y693777D01*
X328187Y693719D01*
X328087Y693667D01*
X328065Y693646D01*
X328040Y693631D01*
X327963Y693549D01*
X327881Y693471D01*
X327866Y693445D01*
X327846Y693424D01*
X327794Y693323D01*
X327737Y693225D01*
X327730Y693197D01*
X327716Y693171D01*
X327703Y693094D01*
X327667Y692950D01*
X327669Y692887D01*
X327661Y692840D01*
X327661Y687831D01*
X319531Y687831D01*
X319531Y703000D01*
X319519Y703086D01*
X319516Y703174D01*
X319499Y703227D01*
X319491Y703281D01*
X319456Y703361D01*
X319429Y703444D01*
X319401Y703484D01*
X319375Y703541D01*
X319282Y703651D01*
X319267Y703676D01*
X319256Y703686D01*
X319234Y703718D01*
X275335Y747616D01*
X275335Y782320D01*
X275327Y782378D01*
X275329Y782436D01*
X275307Y782518D01*
X275295Y782602D01*
X275272Y782655D01*
X275257Y782711D01*
X275214Y782784D01*
X275179Y782861D01*
X275141Y782906D01*
X275112Y782956D01*
X275050Y783014D01*
X274996Y783078D01*
X274947Y783110D01*
X274904Y783150D01*
X274829Y783189D01*
X274759Y783236D01*
X274703Y783253D01*
X274651Y783280D01*
X274583Y783291D01*
X274488Y783321D01*
X274388Y783324D01*
X274320Y783335D01*
X260748Y783335D01*
X260719Y783331D01*
X260690Y783334D01*
X260579Y783311D01*
X260467Y783295D01*
X260440Y783283D01*
X260411Y783278D01*
X260311Y783225D01*
X260207Y783179D01*
X260185Y783160D01*
X260159Y783147D01*
X260077Y783069D01*
X259990Y782996D01*
X259974Y782971D01*
X259953Y782951D01*
X259896Y782853D01*
X259833Y782759D01*
X259824Y782731D01*
X259809Y782706D01*
X259781Y782596D01*
X259747Y782488D01*
X259746Y782458D01*
X259739Y782430D01*
X259743Y782317D01*
X259740Y782204D01*
X259747Y782175D01*
X259748Y782146D01*
X259783Y782038D01*
X259812Y781929D01*
X259827Y781903D01*
X259836Y781875D01*
X259881Y781812D01*
X259957Y781684D01*
X260002Y781641D01*
X260030Y781602D01*
X263145Y778488D01*
X263145Y770912D01*
X257788Y765555D01*
X250212Y765555D01*
X244855Y770912D01*
X244855Y777676D01*
X244843Y777762D01*
X244840Y777850D01*
X244823Y777903D01*
X244815Y777957D01*
X244780Y778037D01*
X244753Y778120D01*
X244725Y778160D01*
X244699Y778217D01*
X244603Y778330D01*
X244558Y778394D01*
X243978Y778974D01*
X243908Y779027D01*
X243844Y779086D01*
X243795Y779112D01*
X243750Y779145D01*
X243669Y779176D01*
X243591Y779216D01*
X243543Y779224D01*
X243485Y779246D01*
X243337Y779258D01*
X243333Y779259D01*
X237083Y785510D01*
X237014Y785561D01*
X236951Y785620D01*
X236901Y785647D01*
X236855Y785681D01*
X236775Y785711D01*
X236699Y785751D01*
X236643Y785762D01*
X236590Y785782D01*
X236504Y785789D01*
X236420Y785806D01*
X236363Y785801D01*
X236306Y785805D01*
X236222Y785789D01*
X236137Y785781D01*
X236084Y785761D01*
X236028Y785750D01*
X235951Y785710D01*
X235871Y785679D01*
X235826Y785645D01*
X235775Y785619D01*
X235713Y785559D01*
X235645Y785508D01*
X235611Y785462D01*
X235569Y785423D01*
X235526Y785349D01*
X235474Y785280D01*
X235454Y785227D01*
X235426Y785178D01*
X235404Y785094D01*
X235374Y785014D01*
X235369Y784957D01*
X235355Y784902D01*
X235358Y784816D01*
X235351Y784731D01*
X235362Y784682D01*
X235365Y784618D01*
X235409Y784480D01*
X235427Y784403D01*
X236094Y782793D01*
X236094Y779307D01*
X234760Y776086D01*
X232294Y773620D01*
X229073Y772286D01*
X214157Y772286D01*
X212014Y773174D01*
X211985Y773181D01*
X211959Y773195D01*
X211848Y773217D01*
X211738Y773245D01*
X211709Y773244D01*
X211680Y773250D01*
X211567Y773240D01*
X211454Y773237D01*
X211426Y773228D01*
X211397Y773225D01*
X211291Y773185D01*
X211183Y773150D01*
X211159Y773134D01*
X211132Y773123D01*
X211041Y773055D01*
X210947Y772992D01*
X210928Y772969D01*
X210905Y772952D01*
X210837Y772861D01*
X210764Y772774D01*
X210752Y772747D01*
X210735Y772724D01*
X210695Y772618D01*
X210649Y772514D01*
X210645Y772485D01*
X210634Y772458D01*
X210625Y772345D01*
X210610Y772233D01*
X210614Y772204D01*
X210612Y772175D01*
X210629Y772098D01*
X210651Y771951D01*
X210676Y771895D01*
X210687Y771847D01*
X211138Y770758D01*
X211239Y770254D01*
X205104Y770254D01*
X205104Y776389D01*
X205608Y776288D01*
X206697Y775837D01*
X206726Y775830D01*
X206752Y775816D01*
X206863Y775795D01*
X206973Y775766D01*
X207002Y775767D01*
X207031Y775761D01*
X207144Y775771D01*
X207257Y775774D01*
X207285Y775783D01*
X207314Y775786D01*
X207420Y775827D01*
X207528Y775861D01*
X207552Y775877D01*
X207579Y775888D01*
X207670Y775956D01*
X207764Y776019D01*
X207783Y776042D01*
X207806Y776060D01*
X207874Y776150D01*
X207947Y776237D01*
X207959Y776264D01*
X207976Y776287D01*
X208016Y776393D01*
X208062Y776497D01*
X208066Y776526D01*
X208077Y776553D01*
X208086Y776666D01*
X208101Y776778D01*
X208097Y776807D01*
X208099Y776837D01*
X208082Y776913D01*
X208061Y777060D01*
X208035Y777117D01*
X208024Y777164D01*
X207136Y779307D01*
X207136Y782793D01*
X207749Y784273D01*
X207756Y784301D01*
X207770Y784327D01*
X207792Y784438D01*
X207820Y784548D01*
X207819Y784577D01*
X207825Y784606D01*
X207815Y784719D01*
X207812Y784832D01*
X207803Y784860D01*
X207800Y784889D01*
X207760Y784995D01*
X207725Y785103D01*
X207709Y785127D01*
X207698Y785154D01*
X207630Y785245D01*
X207567Y785339D01*
X207544Y785358D01*
X207527Y785381D01*
X207436Y785449D01*
X207349Y785522D01*
X207323Y785534D01*
X207299Y785551D01*
X207193Y785591D01*
X207090Y785637D01*
X207060Y785641D01*
X207033Y785652D01*
X206920Y785661D01*
X206808Y785676D01*
X206779Y785672D01*
X206750Y785674D01*
X206673Y785657D01*
X206527Y785636D01*
X206470Y785610D01*
X206423Y785599D01*
X204943Y784986D01*
X190027Y784986D01*
X186806Y786320D01*
X184340Y788786D01*
X183006Y792007D01*
X183006Y795493D01*
X184340Y798714D01*
X186806Y801180D01*
X190027Y802514D01*
X204943Y802514D01*
X208164Y801180D01*
X210629Y798714D01*
X210742Y798442D01*
X210743Y798440D01*
X210744Y798439D01*
X210813Y798321D01*
X210887Y798197D01*
X210888Y798196D01*
X210889Y798194D01*
X210991Y798099D01*
X211094Y798001D01*
X211095Y798001D01*
X211096Y798000D01*
X211222Y797935D01*
X211346Y797871D01*
X211348Y797871D01*
X211349Y797870D01*
X211365Y797868D01*
X211625Y797816D01*
X211656Y797819D01*
X211680Y797815D01*
X228074Y797815D01*
X228103Y797819D01*
X228132Y797816D01*
X228243Y797839D01*
X228356Y797855D01*
X228382Y797867D01*
X228411Y797872D01*
X228512Y797924D01*
X228615Y797971D01*
X228637Y797990D01*
X228663Y798003D01*
X228745Y798081D01*
X228832Y798154D01*
X228848Y798179D01*
X228869Y798199D01*
X228927Y798297D01*
X228990Y798391D01*
X228998Y798419D01*
X229013Y798444D01*
X229041Y798554D01*
X229075Y798662D01*
X229076Y798692D01*
X229083Y798720D01*
X229080Y798833D01*
X229083Y798946D01*
X229075Y798975D01*
X229074Y799004D01*
X229039Y799112D01*
X229011Y799221D01*
X228996Y799247D01*
X228987Y799275D01*
X228941Y799338D01*
X228866Y799466D01*
X228820Y799509D01*
X228792Y799548D01*
X167385Y860954D01*
X167385Y861496D01*
X167373Y861582D01*
X167370Y861670D01*
X167353Y861722D01*
X167345Y861777D01*
X167310Y861857D01*
X167283Y861940D01*
X167255Y861980D01*
X167229Y862037D01*
X167133Y862150D01*
X167088Y862214D01*
X163714Y865588D01*
X163644Y865640D01*
X163580Y865700D01*
X163531Y865726D01*
X163486Y865759D01*
X163405Y865790D01*
X163327Y865830D01*
X163279Y865838D01*
X163221Y865860D01*
X163073Y865872D01*
X162996Y865885D01*
X162813Y865885D01*
X162811Y865885D01*
X162809Y865885D01*
X162669Y865865D01*
X162531Y865845D01*
X162530Y865845D01*
X162528Y865845D01*
X162402Y865788D01*
X162272Y865729D01*
X162270Y865728D01*
X162269Y865727D01*
X162162Y865636D01*
X162055Y865546D01*
X162054Y865544D01*
X162053Y865543D01*
X162044Y865530D01*
X161897Y865309D01*
X161888Y865280D01*
X161875Y865259D01*
X161343Y863975D01*
X158375Y861007D01*
X154498Y859401D01*
X150302Y859401D01*
X146425Y861007D01*
X146260Y861172D01*
X146236Y861190D01*
X146217Y861212D01*
X146123Y861275D01*
X146033Y861343D01*
X146005Y861353D01*
X145981Y861370D01*
X145873Y861404D01*
X145767Y861444D01*
X145738Y861446D01*
X145710Y861455D01*
X145597Y861458D01*
X145484Y861468D01*
X145455Y861462D01*
X145426Y861463D01*
X145316Y861434D01*
X145205Y861412D01*
X145179Y861398D01*
X145151Y861391D01*
X145053Y861333D01*
X144953Y861281D01*
X144931Y861261D01*
X144906Y861246D01*
X144829Y861163D01*
X144747Y861085D01*
X144732Y861060D01*
X144712Y861038D01*
X144660Y860938D01*
X144603Y860840D01*
X144596Y860811D01*
X144582Y860785D01*
X144569Y860708D01*
X144533Y860564D01*
X144535Y860502D01*
X144527Y860454D01*
X144527Y854046D01*
X144531Y854017D01*
X144528Y853988D01*
X144551Y853877D01*
X144567Y853764D01*
X144579Y853738D01*
X144584Y853709D01*
X144636Y853608D01*
X144683Y853505D01*
X144702Y853483D01*
X144715Y853457D01*
X144793Y853374D01*
X144866Y853288D01*
X144891Y853272D01*
X144911Y853250D01*
X145009Y853193D01*
X145103Y853130D01*
X145131Y853122D01*
X145156Y853107D01*
X145266Y853079D01*
X145374Y853045D01*
X145403Y853044D01*
X145432Y853037D01*
X145545Y853040D01*
X145658Y853037D01*
X145687Y853045D01*
X145716Y853046D01*
X145824Y853081D01*
X145933Y853109D01*
X145959Y853124D01*
X145987Y853133D01*
X146050Y853179D01*
X146178Y853254D01*
X146221Y853300D01*
X146260Y853328D01*
X146425Y853493D01*
X150302Y855099D01*
X154498Y855099D01*
X158375Y853493D01*
X161343Y850525D01*
X162949Y846648D01*
X162949Y842452D01*
X161343Y838575D01*
X158375Y835607D01*
X154498Y834001D01*
X150302Y834001D01*
X146425Y835607D01*
X146260Y835772D01*
X146236Y835790D01*
X146217Y835812D01*
X146162Y835849D01*
X146157Y835853D01*
X146149Y835857D01*
X146123Y835875D01*
X146033Y835943D01*
X146005Y835953D01*
X145981Y835970D01*
X145873Y836004D01*
X145767Y836044D01*
X145738Y836046D01*
X145710Y836055D01*
X145597Y836058D01*
X145484Y836068D01*
X145455Y836062D01*
X145426Y836063D01*
X145316Y836034D01*
X145205Y836012D01*
X145179Y835998D01*
X145151Y835991D01*
X145053Y835933D01*
X144953Y835881D01*
X144931Y835861D01*
X144906Y835846D01*
X144829Y835763D01*
X144747Y835685D01*
X144732Y835660D01*
X144712Y835638D01*
X144660Y835538D01*
X144603Y835440D01*
X144596Y835411D01*
X144582Y835385D01*
X144569Y835308D01*
X144533Y835164D01*
X144535Y835102D01*
X144527Y835054D01*
X144527Y828646D01*
X144531Y828617D01*
X144528Y828588D01*
X144551Y828477D01*
X144567Y828364D01*
X144579Y828338D01*
X144584Y828309D01*
X144636Y828208D01*
X144683Y828105D01*
X144702Y828083D01*
X144715Y828057D01*
X144793Y827974D01*
X144866Y827888D01*
X144891Y827872D01*
X144911Y827850D01*
X145009Y827793D01*
X145103Y827730D01*
X145131Y827722D01*
X145156Y827707D01*
X145266Y827679D01*
X145374Y827645D01*
X145403Y827644D01*
X145432Y827637D01*
X145545Y827640D01*
X145658Y827637D01*
X145687Y827645D01*
X145716Y827646D01*
X145824Y827681D01*
X145933Y827709D01*
X145959Y827724D01*
X145987Y827733D01*
X146050Y827779D01*
X146178Y827854D01*
X146221Y827900D01*
X146260Y827928D01*
X146425Y828093D01*
X150302Y829699D01*
X154498Y829699D01*
X158375Y828093D01*
X161343Y825125D01*
X162949Y821248D01*
X162949Y817052D01*
X161343Y813175D01*
X158375Y810207D01*
X154498Y808601D01*
X150302Y808601D01*
X146425Y810207D01*
X146260Y810372D01*
X146236Y810390D01*
X146217Y810412D01*
X146166Y810446D01*
X146138Y810472D01*
X146102Y810491D01*
X146033Y810543D01*
X146005Y810553D01*
X145981Y810570D01*
X145894Y810597D01*
X145885Y810602D01*
X145874Y810603D01*
X145873Y810604D01*
X145767Y810644D01*
X145738Y810646D01*
X145710Y810655D01*
X145597Y810658D01*
X145484Y810668D01*
X145455Y810662D01*
X145426Y810663D01*
X145316Y810634D01*
X145205Y810612D01*
X145179Y810598D01*
X145151Y810591D01*
X145053Y810533D01*
X144953Y810481D01*
X144931Y810461D01*
X144906Y810446D01*
X144829Y810363D01*
X144747Y810285D01*
X144732Y810260D01*
X144712Y810238D01*
X144660Y810138D01*
X144629Y810085D01*
X144626Y810081D01*
X144626Y810079D01*
X144603Y810040D01*
X144596Y810011D01*
X144582Y809985D01*
X144569Y809908D01*
X144559Y809867D01*
X144541Y809810D01*
X144540Y809794D01*
X144533Y809764D01*
X144535Y809702D01*
X144527Y809654D01*
X144527Y803246D01*
X144531Y803217D01*
X144528Y803188D01*
X144551Y803077D01*
X144567Y802964D01*
X144579Y802938D01*
X144584Y802909D01*
X144636Y802808D01*
X144683Y802705D01*
X144702Y802683D01*
X144715Y802657D01*
X144793Y802574D01*
X144866Y802488D01*
X144891Y802472D01*
X144911Y802450D01*
X145009Y802393D01*
X145103Y802330D01*
X145131Y802322D01*
X145156Y802307D01*
X145266Y802279D01*
X145374Y802245D01*
X145403Y802244D01*
X145432Y802237D01*
X145545Y802240D01*
X145658Y802237D01*
X145687Y802245D01*
X145716Y802246D01*
X145824Y802281D01*
X145933Y802309D01*
X145959Y802324D01*
X145987Y802333D01*
X146050Y802379D01*
X146178Y802454D01*
X146221Y802500D01*
X146260Y802528D01*
X146425Y802693D01*
X150302Y804299D01*
X154498Y804299D01*
X158375Y802693D01*
X161343Y799725D01*
X162949Y795848D01*
X162949Y791652D01*
X161343Y787775D01*
X158375Y784807D01*
X154498Y783201D01*
X150302Y783201D01*
X146425Y784807D01*
X146260Y784972D01*
X146236Y784990D01*
X146217Y785012D01*
X146123Y785075D01*
X146033Y785143D01*
X146005Y785153D01*
X145981Y785170D01*
X145873Y785204D01*
X145767Y785244D01*
X145738Y785246D01*
X145710Y785255D01*
X145597Y785258D01*
X145484Y785268D01*
X145455Y785262D01*
X145426Y785263D01*
X145316Y785234D01*
X145205Y785212D01*
X145179Y785198D01*
X145151Y785191D01*
X145053Y785133D01*
X144953Y785081D01*
X144931Y785061D01*
X144906Y785046D01*
X144829Y784963D01*
X144747Y784885D01*
X144732Y784860D01*
X144712Y784838D01*
X144660Y784738D01*
X144603Y784640D01*
X144596Y784611D01*
X144582Y784585D01*
X144569Y784508D01*
X144533Y784364D01*
X144535Y784302D01*
X144527Y784254D01*
X144527Y777846D01*
X144531Y777817D01*
X144528Y777788D01*
X144551Y777677D01*
X144567Y777564D01*
X144579Y777538D01*
X144584Y777509D01*
X144636Y777408D01*
X144683Y777305D01*
X144702Y777283D01*
X144715Y777257D01*
X144793Y777174D01*
X144866Y777088D01*
X144891Y777072D01*
X144911Y777050D01*
X145009Y776993D01*
X145103Y776930D01*
X145131Y776922D01*
X145156Y776907D01*
X145266Y776879D01*
X145374Y776845D01*
X145403Y776844D01*
X145432Y776837D01*
X145545Y776840D01*
X145658Y776837D01*
X145687Y776845D01*
X145716Y776846D01*
X145824Y776881D01*
X145933Y776909D01*
X145959Y776924D01*
X145987Y776933D01*
X146050Y776979D01*
X146178Y777054D01*
X146221Y777100D01*
X146260Y777128D01*
X146425Y777293D01*
X150302Y778899D01*
X154498Y778899D01*
X158375Y777293D01*
X161343Y774325D01*
X162949Y770448D01*
X162949Y766252D01*
X161343Y762375D01*
X158375Y759407D01*
X154498Y757801D01*
X150302Y757801D01*
X146425Y759407D01*
X146260Y759572D01*
X146236Y759590D01*
X146217Y759612D01*
X146123Y759675D01*
X146033Y759743D01*
X146005Y759753D01*
X145981Y759770D01*
X145873Y759804D01*
X145767Y759844D01*
X145738Y759846D01*
X145710Y759855D01*
X145597Y759858D01*
X145484Y759868D01*
X145455Y759862D01*
X145426Y759863D01*
X145316Y759834D01*
X145205Y759812D01*
X145179Y759798D01*
X145151Y759791D01*
X145053Y759733D01*
X144953Y759681D01*
X144931Y759661D01*
X144906Y759646D01*
X144829Y759563D01*
X144747Y759485D01*
X144732Y759460D01*
X144712Y759438D01*
X144660Y759338D01*
X144603Y759240D01*
X144596Y759211D01*
X144582Y759185D01*
X144569Y759108D01*
X144533Y758964D01*
X144535Y758902D01*
X144527Y758854D01*
X144527Y752446D01*
X144531Y752417D01*
X144528Y752388D01*
X144551Y752277D01*
X144567Y752164D01*
X144579Y752138D01*
X144584Y752109D01*
X144636Y752008D01*
X144683Y751905D01*
X144702Y751883D01*
X144715Y751857D01*
X144793Y751774D01*
X144866Y751688D01*
X144891Y751672D01*
X144911Y751650D01*
X145009Y751593D01*
X145103Y751530D01*
X145131Y751522D01*
X145156Y751507D01*
X145266Y751479D01*
X145374Y751445D01*
X145403Y751444D01*
X145432Y751437D01*
X145545Y751440D01*
X145658Y751437D01*
X145687Y751445D01*
X145716Y751446D01*
X145824Y751481D01*
X145933Y751509D01*
X145959Y751524D01*
X145987Y751533D01*
X146050Y751579D01*
X146178Y751654D01*
X146221Y751700D01*
X146260Y751728D01*
X146425Y751893D01*
X150302Y753499D01*
X154498Y753499D01*
X158375Y751893D01*
X161343Y748925D01*
X161875Y747641D01*
X161875Y747640D01*
X161876Y747639D01*
X161947Y747518D01*
X162019Y747397D01*
X162020Y747396D01*
X162021Y747394D01*
X162125Y747297D01*
X162226Y747201D01*
X162227Y747201D01*
X162228Y747200D01*
X162355Y747135D01*
X162479Y747071D01*
X162480Y747071D01*
X162482Y747070D01*
X162496Y747068D01*
X162757Y747016D01*
X162788Y747019D01*
X162813Y747015D01*
X173134Y747015D01*
X194565Y725584D01*
X194565Y703962D01*
X194565Y703961D01*
X194565Y703959D01*
X194585Y703819D01*
X194605Y703681D01*
X194605Y703680D01*
X194605Y703678D01*
X194662Y703552D01*
X194721Y703422D01*
X194722Y703420D01*
X194723Y703419D01*
X194817Y703308D01*
X194904Y703205D01*
X194906Y703204D01*
X194907Y703202D01*
X194920Y703194D01*
X195141Y703047D01*
X195170Y703038D01*
X195191Y703024D01*
X196543Y702465D01*
X198262Y700746D01*
X198309Y700711D01*
X198349Y700668D01*
X198422Y700626D01*
X198489Y700575D01*
X198544Y700554D01*
X198594Y700525D01*
X198676Y700504D01*
X198755Y700474D01*
X198813Y700469D01*
X198870Y700455D01*
X198954Y700457D01*
X199038Y700450D01*
X199095Y700462D01*
X199154Y700464D01*
X199234Y700490D01*
X199317Y700506D01*
X199369Y700533D01*
X199424Y700551D01*
X199481Y700591D01*
X199569Y700637D01*
X199641Y700706D01*
X199698Y700746D01*
X211538Y712586D01*
X214216Y715265D01*
X268384Y715265D01*
X271062Y712586D01*
X282902Y700746D01*
X282949Y700711D01*
X282989Y700668D01*
X283062Y700626D01*
X283130Y700575D01*
X283184Y700554D01*
X283235Y700525D01*
X283316Y700504D01*
X283395Y700474D01*
X283454Y700469D01*
X283510Y700455D01*
X283594Y700457D01*
X283679Y700450D01*
X283736Y700462D01*
X283794Y700464D01*
X283875Y700490D01*
X283957Y700506D01*
X284009Y700533D01*
X284065Y700551D01*
X284121Y700591D01*
X284210Y700637D01*
X284282Y700706D01*
X284338Y700746D01*
X286057Y702465D01*
X289978Y704089D01*
X294222Y704089D01*
X298143Y702464D01*
X301144Y699463D01*
X302769Y695542D01*
X302769Y676058D01*
X301144Y672137D01*
X298143Y669136D01*
X294222Y667511D01*
X289978Y667511D01*
X286057Y669136D01*
X283056Y672137D01*
X281431Y676058D01*
X281431Y690300D01*
X281419Y690386D01*
X281416Y690474D01*
X281399Y690526D01*
X281391Y690581D01*
X281356Y690661D01*
X281329Y690744D01*
X281301Y690784D01*
X281275Y690841D01*
X281179Y690954D01*
X281134Y691018D01*
X265314Y706838D01*
X265244Y706890D01*
X265180Y706950D01*
X265131Y706976D01*
X265086Y707009D01*
X265005Y707040D01*
X264927Y707080D01*
X264879Y707088D01*
X264821Y707110D01*
X264673Y707122D01*
X264596Y707135D01*
X218004Y707135D01*
X217918Y707123D01*
X217830Y707120D01*
X217778Y707103D01*
X217723Y707095D01*
X217643Y707060D01*
X217560Y707033D01*
X217520Y707005D01*
X217463Y706979D01*
X217350Y706883D01*
X217286Y706838D01*
X216270Y705822D01*
X216253Y705798D01*
X216230Y705779D01*
X216167Y705685D01*
X216099Y705595D01*
X216089Y705567D01*
X216073Y705543D01*
X216038Y705435D01*
X215998Y705329D01*
X215996Y705300D01*
X215987Y705272D01*
X215984Y705158D01*
X215975Y705046D01*
X215980Y705017D01*
X215980Y704988D01*
X216008Y704878D01*
X216030Y704767D01*
X216044Y704741D01*
X216051Y704713D01*
X216109Y704615D01*
X216161Y704515D01*
X216182Y704493D01*
X216197Y704468D01*
X216279Y704391D01*
X216357Y704309D01*
X216383Y704294D01*
X216404Y704274D01*
X216505Y704222D01*
X216603Y704165D01*
X216631Y704158D01*
X216657Y704144D01*
X216734Y704131D01*
X216878Y704095D01*
X216941Y704097D01*
X216988Y704089D01*
X218022Y704089D01*
X221943Y702464D01*
X224944Y699463D01*
X226569Y695542D01*
X226569Y676058D01*
X224944Y672137D01*
X221943Y669136D01*
X218022Y667511D01*
X213778Y667511D01*
X209857Y669136D01*
X206856Y672137D01*
X205231Y676058D01*
X205231Y692332D01*
X205227Y692361D01*
X205230Y692390D01*
X205207Y692501D01*
X205191Y692613D01*
X205179Y692640D01*
X205174Y692669D01*
X205121Y692770D01*
X205075Y692873D01*
X205056Y692895D01*
X205043Y692921D01*
X204965Y693003D01*
X204892Y693090D01*
X204867Y693106D01*
X204847Y693127D01*
X204749Y693184D01*
X204655Y693247D01*
X204627Y693256D01*
X204602Y693271D01*
X204492Y693299D01*
X204384Y693333D01*
X204354Y693334D01*
X204326Y693341D01*
X204213Y693338D01*
X204100Y693340D01*
X204071Y693333D01*
X204042Y693332D01*
X203934Y693297D01*
X203825Y693269D01*
X203799Y693254D01*
X203771Y693245D01*
X203708Y693199D01*
X203580Y693123D01*
X203537Y693078D01*
X203498Y693050D01*
X201466Y691018D01*
X201414Y690948D01*
X201354Y690884D01*
X201328Y690835D01*
X201295Y690790D01*
X201264Y690709D01*
X201224Y690631D01*
X201216Y690583D01*
X201194Y690525D01*
X201182Y690377D01*
X201169Y690300D01*
X201169Y676058D01*
X199544Y672137D01*
X196543Y669136D01*
X192622Y667511D01*
X188378Y667511D01*
X184457Y669136D01*
X181456Y672137D01*
X179831Y676058D01*
X179831Y695542D01*
X181456Y699463D01*
X184457Y702464D01*
X185809Y703024D01*
X185810Y703025D01*
X185811Y703026D01*
X185930Y703096D01*
X186053Y703169D01*
X186054Y703170D01*
X186056Y703171D01*
X186151Y703272D01*
X186249Y703376D01*
X186249Y703377D01*
X186250Y703378D01*
X186312Y703498D01*
X186379Y703628D01*
X186379Y703630D01*
X186380Y703631D01*
X186382Y703646D01*
X186434Y703907D01*
X186431Y703938D01*
X186435Y703962D01*
X186435Y721796D01*
X186423Y721882D01*
X186420Y721970D01*
X186403Y722022D01*
X186395Y722077D01*
X186360Y722157D01*
X186333Y722240D01*
X186305Y722280D01*
X186279Y722337D01*
X186183Y722450D01*
X186138Y722514D01*
X170064Y738588D01*
X169994Y738640D01*
X169930Y738700D01*
X169881Y738726D01*
X169836Y738759D01*
X169755Y738790D01*
X169677Y738830D01*
X169629Y738838D01*
X169571Y738860D01*
X169423Y738872D01*
X169346Y738885D01*
X162813Y738885D01*
X162811Y738885D01*
X162809Y738885D01*
X162669Y738865D01*
X162531Y738845D01*
X162530Y738845D01*
X162528Y738845D01*
X162402Y738788D01*
X162272Y738729D01*
X162270Y738728D01*
X162269Y738727D01*
X162162Y738636D01*
X162055Y738546D01*
X162054Y738544D01*
X162053Y738543D01*
X162044Y738530D01*
X161897Y738309D01*
X161888Y738280D01*
X161875Y738259D01*
X161343Y736975D01*
X158375Y734007D01*
X154498Y732401D01*
X150302Y732401D01*
X146425Y734007D01*
X146260Y734172D01*
X146236Y734190D01*
X146217Y734212D01*
X146123Y734275D01*
X146033Y734343D01*
X146005Y734353D01*
X145981Y734370D01*
X145873Y734404D01*
X145767Y734444D01*
X145738Y734446D01*
X145710Y734455D01*
X145597Y734458D01*
X145484Y734468D01*
X145455Y734462D01*
X145426Y734463D01*
X145316Y734434D01*
X145205Y734412D01*
X145179Y734398D01*
X145151Y734391D01*
X145053Y734333D01*
X144953Y734281D01*
X144931Y734261D01*
X144906Y734246D01*
X144829Y734163D01*
X144747Y734085D01*
X144732Y734060D01*
X144712Y734038D01*
X144660Y733938D01*
X144603Y733840D01*
X144596Y733811D01*
X144582Y733785D01*
X144569Y733708D01*
X144533Y733564D01*
X144535Y733502D01*
X144527Y733454D01*
X144527Y729742D01*
X144535Y729684D01*
X144533Y729626D01*
X144555Y729544D01*
X144567Y729460D01*
X144590Y729407D01*
X144605Y729351D01*
X144648Y729278D01*
X144683Y729201D01*
X144721Y729156D01*
X144750Y729106D01*
X144812Y729048D01*
X144866Y728984D01*
X144915Y728952D01*
X144958Y728912D01*
X145033Y728873D01*
X145103Y728826D01*
X145159Y728809D01*
X145211Y728782D01*
X145279Y728771D01*
X145374Y728741D01*
X145474Y728738D01*
X145542Y728727D01*
X167099Y728727D01*
X169927Y725899D01*
X169927Y660400D01*
X169935Y660342D01*
X169933Y660284D01*
X169955Y660202D01*
X169967Y660119D01*
X169990Y660065D01*
X170005Y660009D01*
X170048Y659936D01*
X170083Y659859D01*
X170121Y659814D01*
X170150Y659764D01*
X170212Y659706D01*
X170266Y659642D01*
X170315Y659610D01*
X170358Y659570D01*
X170433Y659531D01*
X170503Y659485D01*
X170559Y659467D01*
X170611Y659440D01*
X170679Y659429D01*
X170774Y659399D01*
X170874Y659396D01*
X170942Y659385D01*
X387858Y659385D01*
X387916Y659393D01*
G37*
%LPC*%
G36*
X250212Y740155D02*
X250212Y740155D01*
X245429Y744938D01*
X245360Y744990D01*
X245296Y745050D01*
X245246Y745076D01*
X245202Y745109D01*
X245121Y745140D01*
X245043Y745180D01*
X244995Y745188D01*
X244937Y745210D01*
X244789Y745222D01*
X244712Y745235D01*
X220566Y745235D01*
X219213Y746589D01*
X219143Y746641D01*
X219079Y746701D01*
X219030Y746727D01*
X218985Y746760D01*
X218904Y746791D01*
X218826Y746831D01*
X218778Y746839D01*
X218720Y746861D01*
X218572Y746873D01*
X218495Y746886D01*
X214157Y746886D01*
X210936Y748220D01*
X208470Y750686D01*
X207136Y753907D01*
X207136Y757393D01*
X208024Y759536D01*
X208031Y759565D01*
X208045Y759591D01*
X208066Y759700D01*
X208075Y759727D01*
X208075Y759734D01*
X208095Y759812D01*
X208094Y759841D01*
X208100Y759870D01*
X208090Y759983D01*
X208087Y760096D01*
X208078Y760124D01*
X208075Y760153D01*
X208035Y760259D01*
X208000Y760367D01*
X207984Y760391D01*
X207973Y760418D01*
X207905Y760509D01*
X207842Y760603D01*
X207819Y760622D01*
X207802Y760645D01*
X207711Y760713D01*
X207624Y760786D01*
X207597Y760798D01*
X207574Y760815D01*
X207468Y760855D01*
X207364Y760901D01*
X207335Y760905D01*
X207308Y760916D01*
X207195Y760925D01*
X207083Y760940D01*
X207054Y760936D01*
X207025Y760938D01*
X206948Y760921D01*
X206801Y760899D01*
X206745Y760874D01*
X206697Y760863D01*
X205608Y760412D01*
X205104Y760311D01*
X205104Y766446D01*
X211239Y766446D01*
X211138Y765942D01*
X210687Y764853D01*
X210680Y764824D01*
X210666Y764798D01*
X210645Y764687D01*
X210616Y764577D01*
X210617Y764548D01*
X210611Y764519D01*
X210621Y764406D01*
X210624Y764293D01*
X210633Y764265D01*
X210636Y764236D01*
X210677Y764130D01*
X210711Y764022D01*
X210727Y763998D01*
X210738Y763971D01*
X210806Y763880D01*
X210869Y763786D01*
X210892Y763767D01*
X210910Y763744D01*
X211000Y763676D01*
X211087Y763603D01*
X211114Y763591D01*
X211137Y763574D01*
X211243Y763534D01*
X211347Y763488D01*
X211376Y763484D01*
X211403Y763473D01*
X211516Y763464D01*
X211628Y763449D01*
X211657Y763453D01*
X211687Y763451D01*
X211763Y763468D01*
X211910Y763489D01*
X211967Y763515D01*
X212014Y763526D01*
X214157Y764414D01*
X229073Y764414D01*
X232294Y763080D01*
X234760Y760614D01*
X236094Y757393D01*
X236094Y754380D01*
X236102Y754322D01*
X236100Y754264D01*
X236122Y754182D01*
X236134Y754098D01*
X236157Y754045D01*
X236172Y753989D01*
X236215Y753916D01*
X236250Y753839D01*
X236288Y753794D01*
X236317Y753744D01*
X236379Y753686D01*
X236433Y753622D01*
X236482Y753590D01*
X236525Y753550D01*
X236600Y753511D01*
X236670Y753464D01*
X236726Y753447D01*
X236778Y753420D01*
X236846Y753409D01*
X236941Y753379D01*
X237041Y753376D01*
X237109Y753365D01*
X244712Y753365D01*
X244798Y753377D01*
X244886Y753380D01*
X244938Y753397D01*
X244993Y753405D01*
X245073Y753440D01*
X245156Y753467D01*
X245195Y753495D01*
X245253Y753521D01*
X245366Y753617D01*
X245429Y753662D01*
X250212Y758445D01*
X257788Y758445D01*
X263145Y753088D01*
X263145Y745512D01*
X257788Y740155D01*
X250212Y740155D01*
G37*
%LPD*%
%LPC*%
G36*
X288312Y892555D02*
X288312Y892555D01*
X282955Y897912D01*
X282955Y905488D01*
X288312Y910845D01*
X295888Y910845D01*
X301245Y905488D01*
X301245Y897912D01*
X295888Y892555D01*
X288312Y892555D01*
G37*
%LPD*%
%LPC*%
G36*
X313712Y892555D02*
X313712Y892555D01*
X308355Y897912D01*
X308355Y905488D01*
X313712Y910845D01*
X321288Y910845D01*
X326645Y905488D01*
X326645Y897912D01*
X321288Y892555D01*
X313712Y892555D01*
G37*
%LPD*%
%LPC*%
G36*
X326412Y841755D02*
X326412Y841755D01*
X321055Y847112D01*
X321055Y854688D01*
X326412Y860045D01*
X333988Y860045D01*
X339345Y854688D01*
X339345Y847112D01*
X333988Y841755D01*
X326412Y841755D01*
G37*
%LPD*%
%LPC*%
G36*
X243331Y687831D02*
X243331Y687831D01*
X243331Y703386D01*
X243679Y703331D01*
X245200Y702836D01*
X246625Y702110D01*
X247919Y701170D01*
X249050Y700039D01*
X249990Y698745D01*
X250716Y697320D01*
X251211Y695799D01*
X251461Y694220D01*
X251461Y687831D01*
X243331Y687831D01*
G37*
%LPD*%
%LPC*%
G36*
X319531Y683769D02*
X319531Y683769D01*
X327661Y683769D01*
X327661Y677380D01*
X327411Y675801D01*
X326916Y674280D01*
X326190Y672855D01*
X325250Y671561D01*
X324119Y670430D01*
X322825Y669490D01*
X321400Y668764D01*
X319879Y668269D01*
X319531Y668214D01*
X319531Y683769D01*
G37*
%LPD*%
%LPC*%
G36*
X243331Y683769D02*
X243331Y683769D01*
X251461Y683769D01*
X251461Y677380D01*
X251211Y675801D01*
X250716Y674280D01*
X249990Y672855D01*
X249050Y671561D01*
X247919Y670430D01*
X246625Y669490D01*
X245200Y668764D01*
X243679Y668269D01*
X243331Y668214D01*
X243331Y683769D01*
G37*
%LPD*%
%LPC*%
G36*
X231139Y687831D02*
X231139Y687831D01*
X231139Y694220D01*
X231389Y695799D01*
X231884Y697320D01*
X232610Y698745D01*
X233550Y700039D01*
X234681Y701170D01*
X235975Y702110D01*
X237400Y702836D01*
X238921Y703331D01*
X239269Y703386D01*
X239269Y687831D01*
X231139Y687831D01*
G37*
%LPD*%
%LPC*%
G36*
X307339Y687831D02*
X307339Y687831D01*
X307339Y694220D01*
X307589Y695799D01*
X308084Y697320D01*
X308810Y698745D01*
X309750Y700039D01*
X310881Y701170D01*
X312175Y702110D01*
X313600Y702836D01*
X315121Y703331D01*
X315469Y703386D01*
X315469Y687831D01*
X307339Y687831D01*
G37*
%LPD*%
%LPC*%
G36*
X315121Y668269D02*
X315121Y668269D01*
X313600Y668764D01*
X312175Y669490D01*
X310881Y670430D01*
X309750Y671561D01*
X308810Y672855D01*
X308084Y674280D01*
X307589Y675801D01*
X307339Y677380D01*
X307339Y683769D01*
X315469Y683769D01*
X315469Y668214D01*
X315121Y668269D01*
G37*
%LPD*%
%LPC*%
G36*
X238921Y668269D02*
X238921Y668269D01*
X237400Y668764D01*
X235975Y669490D01*
X234681Y670430D01*
X233550Y671561D01*
X232610Y672855D01*
X231884Y674280D01*
X231389Y675801D01*
X231139Y677380D01*
X231139Y683769D01*
X239269Y683769D01*
X239269Y668214D01*
X238921Y668269D01*
G37*
%LPD*%
%LPC*%
G36*
X183731Y770254D02*
X183731Y770254D01*
X183832Y770758D01*
X184454Y772261D01*
X185357Y773613D01*
X186507Y774763D01*
X187859Y775666D01*
X189362Y776288D01*
X190957Y776606D01*
X201296Y776606D01*
X201296Y770254D01*
X183731Y770254D01*
G37*
%LPD*%
%LPC*%
G36*
X190957Y760094D02*
X190957Y760094D01*
X189362Y760412D01*
X187859Y761034D01*
X186507Y761937D01*
X185357Y763087D01*
X184454Y764439D01*
X183832Y765942D01*
X183731Y766446D01*
X201296Y766446D01*
X201296Y760094D01*
X190957Y760094D01*
G37*
%LPD*%
%LPC*%
G36*
X371156Y770381D02*
X371156Y770381D01*
X371207Y770701D01*
X371695Y772204D01*
X372412Y773613D01*
X373341Y774891D01*
X374459Y776009D01*
X375737Y776938D01*
X377146Y777655D01*
X378649Y778143D01*
X378969Y778194D01*
X378969Y770381D01*
X371156Y770381D01*
G37*
%LPD*%
%LPC*%
G36*
X378649Y758557D02*
X378649Y758557D01*
X377146Y759045D01*
X375737Y759762D01*
X374459Y760691D01*
X373341Y761809D01*
X372412Y763087D01*
X371695Y764496D01*
X371207Y765999D01*
X371156Y766319D01*
X378969Y766319D01*
X378969Y758506D01*
X378649Y758557D01*
G37*
%LPD*%
%LPC*%
G36*
X256031Y852931D02*
X256031Y852931D01*
X256031Y859537D01*
X257577Y859537D01*
X262637Y854477D01*
X262637Y852931D01*
X256031Y852931D01*
G37*
%LPD*%
%LPC*%
G36*
X256031Y827531D02*
X256031Y827531D01*
X256031Y834137D01*
X257577Y834137D01*
X262637Y829077D01*
X262637Y827531D01*
X256031Y827531D01*
G37*
%LPD*%
%LPC*%
G36*
X245363Y852931D02*
X245363Y852931D01*
X245363Y854477D01*
X250423Y859537D01*
X251969Y859537D01*
X251969Y852931D01*
X245363Y852931D01*
G37*
%LPD*%
%LPC*%
G36*
X245363Y827531D02*
X245363Y827531D01*
X245363Y829077D01*
X250423Y834137D01*
X251969Y834137D01*
X251969Y827531D01*
X245363Y827531D01*
G37*
%LPD*%
%LPC*%
G36*
X256031Y842263D02*
X256031Y842263D01*
X256031Y848869D01*
X262637Y848869D01*
X262637Y847323D01*
X257577Y842263D01*
X256031Y842263D01*
G37*
%LPD*%
%LPC*%
G36*
X250423Y842263D02*
X250423Y842263D01*
X245363Y847323D01*
X245363Y848869D01*
X251969Y848869D01*
X251969Y842263D01*
X250423Y842263D01*
G37*
%LPD*%
%LPC*%
G36*
X253999Y850899D02*
X253999Y850899D01*
X253999Y850901D01*
X254001Y850901D01*
X254001Y850899D01*
X253999Y850899D01*
G37*
%LPD*%
%LPC*%
G36*
X317499Y685799D02*
X317499Y685799D01*
X317499Y685801D01*
X317501Y685801D01*
X317501Y685799D01*
X317499Y685799D01*
G37*
%LPD*%
%LPC*%
G36*
X241299Y685799D02*
X241299Y685799D01*
X241299Y685801D01*
X241301Y685801D01*
X241301Y685799D01*
X241299Y685799D01*
G37*
%LPD*%
D10*
X203200Y768350D02*
X191770Y768350D01*
X215900Y755650D02*
X227330Y755650D01*
X227330Y781050D02*
X215900Y781050D01*
X203200Y793750D02*
X191770Y793750D01*
D11*
X241300Y901700D03*
X215900Y901700D03*
D12*
X292100Y901700D03*
X317500Y901700D03*
D11*
X330200Y800100D03*
X254000Y800100D03*
X330200Y774700D03*
X254000Y774700D03*
X330200Y749300D03*
X254000Y749300D03*
X330200Y825500D03*
X254000Y825500D03*
X330200Y850900D03*
X254000Y850900D03*
D13*
X152400Y768350D03*
X152400Y793750D03*
X152400Y819150D03*
X152400Y844550D03*
X152400Y869950D03*
X152400Y895350D03*
X152400Y920750D03*
X381000Y768350D03*
X381000Y793750D03*
X381000Y819150D03*
X381000Y844550D03*
X381000Y869950D03*
X381000Y895350D03*
X381000Y920750D03*
X152400Y742950D03*
X381000Y742950D03*
D14*
X190500Y693420D02*
X190500Y678180D01*
X215900Y678180D02*
X215900Y693420D01*
X241300Y693420D02*
X241300Y678180D01*
X292100Y678180D02*
X292100Y693420D01*
X317500Y693420D02*
X317500Y678180D01*
X342900Y678180D02*
X342900Y693420D01*
X368300Y693420D02*
X368300Y678180D01*
D15*
X336550Y749300D02*
X381000Y793750D01*
X336550Y749300D02*
X330200Y749300D01*
X336550Y774700D02*
X381000Y819150D01*
X336550Y774700D02*
X330200Y774700D01*
X336550Y800100D02*
X381000Y844550D01*
X336550Y800100D02*
X330200Y800100D01*
X381000Y869950D02*
X273050Y869950D01*
X241300Y901700D01*
X304800Y825500D02*
X330200Y825500D01*
X254000Y876300D02*
X241300Y876300D01*
X254000Y876300D02*
X304800Y825500D01*
X241300Y876300D02*
X215900Y901700D01*
X222250Y749300D02*
X254000Y749300D01*
X222250Y749300D02*
X215900Y755650D01*
X245364Y783336D02*
X254000Y774700D01*
X245364Y783336D02*
X245005Y783336D01*
X234591Y793750D02*
X203200Y793750D01*
X234591Y793750D02*
X245005Y783336D01*
X254000Y825500D02*
X254000Y850900D01*
X171450Y742950D02*
X152400Y742950D01*
X171450Y742950D02*
X190500Y723900D01*
X190500Y685800D01*
X215900Y711200D01*
X266700Y711200D02*
X292100Y685800D01*
X266700Y711200D02*
X215900Y711200D01*
X292100Y762000D02*
X292100Y812800D01*
X241300Y812800D01*
X228600Y825500D01*
X228600Y850900D01*
X184150Y895350D01*
X292100Y762000D02*
X368300Y685800D01*
X184150Y895350D02*
X152400Y895350D01*
X279400Y749300D02*
X342900Y685800D01*
X279400Y787400D02*
X246688Y787400D01*
X171450Y862638D02*
X171450Y863600D01*
X279400Y787400D02*
X279400Y749300D01*
X246688Y787400D02*
X171450Y862638D01*
X165100Y869950D02*
X152400Y869950D01*
X165100Y869950D02*
X171450Y863600D01*
M02*
