G04 EAGLE Gerber RS-274X export*
G75*
%MOMM*%
%FSLAX34Y34*%
%LPD*%
%INSilkscreen Top*%
%IPPOS*%
%AMOC8*
5,1,8,0,0,1.08239X$1,22.5*%
G01*
%ADD10C,0.101600*%
%ADD11C,0.050800*%
%ADD12C,0.127000*%
%ADD13C,0.203200*%
%ADD14C,0.254000*%
%ADD15C,0.152400*%
%ADD16R,0.381000X0.508000*%


D10*
X318008Y939292D02*
X320604Y927608D01*
X323201Y935397D01*
X325797Y927608D01*
X328394Y939292D01*
X244404Y927608D02*
X241808Y939292D01*
X247001Y935397D02*
X244404Y927608D01*
X249597Y927608D02*
X247001Y935397D01*
X252194Y939292D02*
X249597Y927608D01*
X258882Y927608D02*
X256286Y939292D01*
X261479Y935397D02*
X258882Y927608D01*
X264075Y927608D02*
X261479Y935397D01*
X266672Y939292D02*
X264075Y927608D01*
D11*
X249513Y715687D02*
X249513Y714417D01*
X249513Y715687D02*
X253746Y715687D01*
X253746Y713147D01*
X253744Y713066D01*
X253738Y712986D01*
X253729Y712906D01*
X253715Y712827D01*
X253698Y712748D01*
X253677Y712670D01*
X253653Y712593D01*
X253625Y712518D01*
X253593Y712444D01*
X253558Y712371D01*
X253519Y712301D01*
X253477Y712232D01*
X253432Y712165D01*
X253384Y712100D01*
X253332Y712038D01*
X253278Y711979D01*
X253221Y711922D01*
X253162Y711868D01*
X253100Y711816D01*
X253035Y711768D01*
X252968Y711723D01*
X252900Y711681D01*
X252829Y711642D01*
X252756Y711607D01*
X252682Y711575D01*
X252607Y711547D01*
X252530Y711523D01*
X252452Y711502D01*
X252373Y711485D01*
X252294Y711471D01*
X252214Y711462D01*
X252134Y711456D01*
X252053Y711454D01*
X247819Y711454D01*
X247738Y711456D01*
X247658Y711462D01*
X247578Y711471D01*
X247499Y711485D01*
X247420Y711502D01*
X247342Y711523D01*
X247265Y711547D01*
X247190Y711575D01*
X247116Y711607D01*
X247043Y711642D01*
X246973Y711681D01*
X246904Y711723D01*
X246837Y711768D01*
X246772Y711816D01*
X246710Y711867D01*
X246651Y711922D01*
X246594Y711979D01*
X246540Y712038D01*
X246488Y712100D01*
X246440Y712165D01*
X246395Y712232D01*
X246353Y712300D01*
X246314Y712371D01*
X246279Y712444D01*
X246247Y712518D01*
X246219Y712593D01*
X246195Y712670D01*
X246174Y712748D01*
X246157Y712827D01*
X246143Y712906D01*
X246134Y712986D01*
X246128Y713066D01*
X246126Y713147D01*
X246126Y715687D01*
X246126Y719257D02*
X253746Y719257D01*
X253746Y723490D02*
X246126Y719257D01*
X246126Y723490D02*
X253746Y723490D01*
X253746Y727060D02*
X246126Y727060D01*
X246126Y729176D01*
X246128Y729266D01*
X246134Y729356D01*
X246143Y729445D01*
X246156Y729534D01*
X246174Y729622D01*
X246194Y729709D01*
X246219Y729796D01*
X246247Y729881D01*
X246279Y729965D01*
X246314Y730048D01*
X246353Y730129D01*
X246395Y730208D01*
X246440Y730286D01*
X246489Y730361D01*
X246541Y730435D01*
X246596Y730506D01*
X246654Y730575D01*
X246715Y730641D01*
X246778Y730704D01*
X246844Y730765D01*
X246913Y730823D01*
X246984Y730878D01*
X247058Y730930D01*
X247133Y730979D01*
X247211Y731024D01*
X247290Y731066D01*
X247371Y731105D01*
X247454Y731140D01*
X247538Y731172D01*
X247623Y731200D01*
X247710Y731225D01*
X247797Y731245D01*
X247885Y731263D01*
X247974Y731276D01*
X248063Y731285D01*
X248153Y731291D01*
X248243Y731293D01*
X251629Y731293D01*
X251719Y731291D01*
X251809Y731285D01*
X251898Y731276D01*
X251987Y731263D01*
X252075Y731245D01*
X252162Y731225D01*
X252249Y731200D01*
X252334Y731172D01*
X252418Y731140D01*
X252501Y731105D01*
X252582Y731066D01*
X252661Y731024D01*
X252739Y730979D01*
X252814Y730930D01*
X252888Y730878D01*
X252959Y730823D01*
X253028Y730765D01*
X253094Y730704D01*
X253157Y730641D01*
X253218Y730575D01*
X253276Y730506D01*
X253331Y730435D01*
X253383Y730361D01*
X253432Y730286D01*
X253477Y730208D01*
X253519Y730129D01*
X253558Y730048D01*
X253593Y729965D01*
X253625Y729881D01*
X253653Y729796D01*
X253678Y729709D01*
X253698Y729622D01*
X253716Y729534D01*
X253729Y729445D01*
X253738Y729356D01*
X253744Y729266D01*
X253746Y729176D01*
X253746Y727060D01*
X228346Y711454D02*
X220726Y711454D01*
X220726Y713571D01*
X220728Y713661D01*
X220734Y713751D01*
X220743Y713840D01*
X220756Y713929D01*
X220774Y714017D01*
X220794Y714104D01*
X220819Y714191D01*
X220847Y714276D01*
X220879Y714360D01*
X220914Y714443D01*
X220953Y714524D01*
X220995Y714603D01*
X221040Y714681D01*
X221089Y714756D01*
X221141Y714830D01*
X221196Y714901D01*
X221254Y714970D01*
X221315Y715036D01*
X221378Y715099D01*
X221444Y715160D01*
X221513Y715218D01*
X221584Y715273D01*
X221658Y715325D01*
X221733Y715374D01*
X221811Y715419D01*
X221890Y715461D01*
X221971Y715500D01*
X222054Y715535D01*
X222138Y715567D01*
X222223Y715595D01*
X222310Y715620D01*
X222397Y715640D01*
X222485Y715658D01*
X222574Y715671D01*
X222663Y715680D01*
X222753Y715686D01*
X222843Y715688D01*
X222843Y715687D02*
X226229Y715687D01*
X226229Y715688D02*
X226319Y715686D01*
X226409Y715680D01*
X226498Y715671D01*
X226587Y715658D01*
X226675Y715640D01*
X226762Y715620D01*
X226849Y715595D01*
X226934Y715567D01*
X227018Y715535D01*
X227101Y715500D01*
X227182Y715461D01*
X227261Y715419D01*
X227339Y715374D01*
X227414Y715325D01*
X227488Y715273D01*
X227559Y715218D01*
X227628Y715160D01*
X227694Y715099D01*
X227757Y715036D01*
X227818Y714970D01*
X227876Y714901D01*
X227931Y714830D01*
X227983Y714756D01*
X228032Y714681D01*
X228077Y714603D01*
X228119Y714524D01*
X228158Y714443D01*
X228193Y714360D01*
X228225Y714276D01*
X228253Y714191D01*
X228278Y714104D01*
X228298Y714017D01*
X228316Y713929D01*
X228329Y713840D01*
X228338Y713751D01*
X228344Y713661D01*
X228346Y713571D01*
X228346Y711454D01*
X226229Y719013D02*
X226138Y719015D01*
X226047Y719021D01*
X225956Y719031D01*
X225866Y719044D01*
X225777Y719062D01*
X225688Y719083D01*
X225601Y719108D01*
X225514Y719137D01*
X225429Y719170D01*
X225346Y719206D01*
X225264Y719246D01*
X225184Y719289D01*
X225105Y719336D01*
X225029Y719386D01*
X224955Y719439D01*
X224884Y719495D01*
X224815Y719555D01*
X224748Y719617D01*
X224685Y719682D01*
X224624Y719750D01*
X224566Y719820D01*
X224511Y719893D01*
X224459Y719968D01*
X224411Y720045D01*
X224366Y720125D01*
X224324Y720206D01*
X224286Y720288D01*
X224252Y720373D01*
X224221Y720459D01*
X224194Y720546D01*
X224171Y720634D01*
X224152Y720723D01*
X224136Y720812D01*
X224124Y720903D01*
X224116Y720993D01*
X224112Y721084D01*
X224112Y721176D01*
X224116Y721267D01*
X224124Y721357D01*
X224136Y721448D01*
X224152Y721537D01*
X224171Y721626D01*
X224194Y721714D01*
X224221Y721801D01*
X224252Y721887D01*
X224286Y721972D01*
X224324Y722054D01*
X224366Y722135D01*
X224411Y722215D01*
X224459Y722292D01*
X224511Y722367D01*
X224566Y722440D01*
X224624Y722510D01*
X224685Y722578D01*
X224748Y722643D01*
X224815Y722705D01*
X224884Y722765D01*
X224955Y722821D01*
X225029Y722874D01*
X225105Y722924D01*
X225184Y722971D01*
X225264Y723014D01*
X225346Y723054D01*
X225429Y723090D01*
X225514Y723123D01*
X225601Y723152D01*
X225688Y723177D01*
X225777Y723198D01*
X225866Y723216D01*
X225956Y723229D01*
X226047Y723239D01*
X226138Y723245D01*
X226229Y723247D01*
X226320Y723245D01*
X226411Y723239D01*
X226502Y723229D01*
X226592Y723216D01*
X226681Y723198D01*
X226770Y723177D01*
X226857Y723152D01*
X226944Y723123D01*
X227029Y723090D01*
X227112Y723054D01*
X227194Y723014D01*
X227274Y722971D01*
X227353Y722924D01*
X227429Y722874D01*
X227503Y722821D01*
X227574Y722765D01*
X227643Y722705D01*
X227710Y722643D01*
X227773Y722578D01*
X227834Y722510D01*
X227892Y722440D01*
X227947Y722367D01*
X227999Y722292D01*
X228047Y722215D01*
X228092Y722135D01*
X228134Y722054D01*
X228172Y721972D01*
X228206Y721887D01*
X228237Y721801D01*
X228264Y721714D01*
X228287Y721626D01*
X228306Y721537D01*
X228322Y721448D01*
X228334Y721357D01*
X228342Y721267D01*
X228346Y721176D01*
X228346Y721084D01*
X228342Y720993D01*
X228334Y720903D01*
X228322Y720812D01*
X228306Y720723D01*
X228287Y720634D01*
X228264Y720546D01*
X228237Y720459D01*
X228206Y720373D01*
X228172Y720288D01*
X228134Y720206D01*
X228092Y720125D01*
X228047Y720045D01*
X227999Y719968D01*
X227947Y719893D01*
X227892Y719820D01*
X227834Y719750D01*
X227773Y719682D01*
X227710Y719617D01*
X227643Y719555D01*
X227574Y719495D01*
X227503Y719439D01*
X227429Y719386D01*
X227353Y719336D01*
X227274Y719289D01*
X227194Y719246D01*
X227112Y719206D01*
X227029Y719170D01*
X226944Y719137D01*
X226857Y719108D01*
X226770Y719083D01*
X226681Y719062D01*
X226592Y719044D01*
X226502Y719031D01*
X226411Y719021D01*
X226320Y719015D01*
X226229Y719013D01*
X222419Y719437D02*
X222338Y719439D01*
X222258Y719445D01*
X222178Y719454D01*
X222099Y719468D01*
X222020Y719485D01*
X221942Y719506D01*
X221865Y719530D01*
X221790Y719558D01*
X221716Y719590D01*
X221643Y719625D01*
X221573Y719664D01*
X221504Y719706D01*
X221437Y719751D01*
X221372Y719799D01*
X221310Y719851D01*
X221251Y719905D01*
X221194Y719962D01*
X221140Y720021D01*
X221088Y720083D01*
X221040Y720148D01*
X220995Y720215D01*
X220953Y720284D01*
X220914Y720354D01*
X220879Y720427D01*
X220847Y720501D01*
X220819Y720576D01*
X220795Y720653D01*
X220774Y720731D01*
X220757Y720810D01*
X220743Y720889D01*
X220734Y720969D01*
X220728Y721049D01*
X220726Y721130D01*
X220728Y721211D01*
X220734Y721291D01*
X220743Y721371D01*
X220757Y721450D01*
X220774Y721529D01*
X220795Y721607D01*
X220819Y721684D01*
X220847Y721759D01*
X220879Y721833D01*
X220914Y721906D01*
X220953Y721977D01*
X220995Y722045D01*
X221040Y722112D01*
X221088Y722177D01*
X221140Y722239D01*
X221194Y722298D01*
X221251Y722355D01*
X221310Y722409D01*
X221372Y722461D01*
X221437Y722509D01*
X221504Y722554D01*
X221573Y722596D01*
X221643Y722635D01*
X221716Y722670D01*
X221790Y722702D01*
X221865Y722730D01*
X221942Y722754D01*
X222020Y722775D01*
X222099Y722792D01*
X222178Y722806D01*
X222258Y722815D01*
X222338Y722821D01*
X222419Y722823D01*
X222500Y722821D01*
X222580Y722815D01*
X222660Y722806D01*
X222739Y722792D01*
X222818Y722775D01*
X222896Y722754D01*
X222973Y722730D01*
X223048Y722702D01*
X223122Y722670D01*
X223195Y722635D01*
X223265Y722596D01*
X223334Y722554D01*
X223401Y722509D01*
X223466Y722461D01*
X223528Y722409D01*
X223587Y722355D01*
X223644Y722298D01*
X223698Y722239D01*
X223750Y722177D01*
X223798Y722112D01*
X223843Y722045D01*
X223885Y721977D01*
X223924Y721906D01*
X223959Y721833D01*
X223991Y721759D01*
X224019Y721684D01*
X224043Y721607D01*
X224064Y721529D01*
X224081Y721450D01*
X224095Y721371D01*
X224104Y721291D01*
X224110Y721211D01*
X224112Y721130D01*
X224110Y721049D01*
X224104Y720969D01*
X224095Y720889D01*
X224081Y720810D01*
X224064Y720731D01*
X224043Y720653D01*
X224019Y720576D01*
X223991Y720501D01*
X223959Y720427D01*
X223924Y720354D01*
X223885Y720284D01*
X223843Y720215D01*
X223798Y720148D01*
X223750Y720083D01*
X223698Y720021D01*
X223644Y719962D01*
X223587Y719905D01*
X223528Y719851D01*
X223466Y719799D01*
X223401Y719751D01*
X223334Y719706D01*
X223266Y719664D01*
X223195Y719625D01*
X223122Y719590D01*
X223048Y719558D01*
X222973Y719530D01*
X222896Y719506D01*
X222818Y719485D01*
X222739Y719468D01*
X222660Y719454D01*
X222580Y719445D01*
X222500Y719439D01*
X222419Y719437D01*
X202946Y713994D02*
X195326Y711454D01*
X195326Y716534D02*
X202946Y713994D01*
X202946Y720867D02*
X202946Y722560D01*
X202946Y720867D02*
X202944Y720786D01*
X202938Y720706D01*
X202929Y720626D01*
X202915Y720547D01*
X202898Y720468D01*
X202877Y720390D01*
X202853Y720313D01*
X202825Y720238D01*
X202793Y720164D01*
X202758Y720091D01*
X202719Y720021D01*
X202677Y719952D01*
X202632Y719885D01*
X202584Y719820D01*
X202532Y719758D01*
X202478Y719699D01*
X202421Y719642D01*
X202362Y719588D01*
X202300Y719536D01*
X202235Y719488D01*
X202168Y719443D01*
X202100Y719401D01*
X202029Y719362D01*
X201956Y719327D01*
X201882Y719295D01*
X201807Y719267D01*
X201730Y719243D01*
X201652Y719222D01*
X201573Y719205D01*
X201494Y719191D01*
X201414Y719182D01*
X201334Y719176D01*
X201253Y719174D01*
X197019Y719174D01*
X196938Y719176D01*
X196858Y719182D01*
X196778Y719191D01*
X196699Y719205D01*
X196620Y719222D01*
X196542Y719243D01*
X196465Y719267D01*
X196390Y719295D01*
X196316Y719327D01*
X196243Y719362D01*
X196173Y719401D01*
X196104Y719443D01*
X196037Y719488D01*
X195972Y719536D01*
X195910Y719587D01*
X195851Y719642D01*
X195794Y719699D01*
X195740Y719758D01*
X195688Y719820D01*
X195640Y719885D01*
X195595Y719952D01*
X195553Y720020D01*
X195514Y720091D01*
X195479Y720164D01*
X195447Y720238D01*
X195419Y720313D01*
X195395Y720390D01*
X195374Y720468D01*
X195357Y720547D01*
X195343Y720626D01*
X195334Y720706D01*
X195328Y720786D01*
X195326Y720867D01*
X195326Y722560D01*
X202946Y726963D02*
X202946Y728656D01*
X202946Y726963D02*
X202944Y726882D01*
X202938Y726802D01*
X202929Y726722D01*
X202915Y726643D01*
X202898Y726564D01*
X202877Y726486D01*
X202853Y726409D01*
X202825Y726334D01*
X202793Y726260D01*
X202758Y726187D01*
X202719Y726117D01*
X202677Y726048D01*
X202632Y725981D01*
X202584Y725916D01*
X202532Y725854D01*
X202478Y725795D01*
X202421Y725738D01*
X202362Y725684D01*
X202300Y725632D01*
X202235Y725584D01*
X202168Y725539D01*
X202100Y725497D01*
X202029Y725458D01*
X201956Y725423D01*
X201882Y725391D01*
X201807Y725363D01*
X201730Y725339D01*
X201652Y725318D01*
X201573Y725301D01*
X201494Y725287D01*
X201414Y725278D01*
X201334Y725272D01*
X201253Y725270D01*
X197019Y725270D01*
X196938Y725272D01*
X196858Y725278D01*
X196778Y725287D01*
X196699Y725301D01*
X196620Y725318D01*
X196542Y725339D01*
X196465Y725363D01*
X196390Y725391D01*
X196316Y725423D01*
X196243Y725458D01*
X196173Y725497D01*
X196104Y725539D01*
X196037Y725584D01*
X195972Y725632D01*
X195910Y725683D01*
X195851Y725738D01*
X195794Y725795D01*
X195740Y725854D01*
X195688Y725916D01*
X195640Y725981D01*
X195595Y726048D01*
X195553Y726116D01*
X195514Y726187D01*
X195479Y726260D01*
X195447Y726334D01*
X195419Y726409D01*
X195395Y726486D01*
X195374Y726564D01*
X195357Y726643D01*
X195343Y726722D01*
X195334Y726802D01*
X195328Y726882D01*
X195326Y726963D01*
X195326Y728656D01*
X284226Y711454D02*
X291846Y713994D01*
X284226Y716534D01*
X291846Y720867D02*
X291846Y722560D01*
X291846Y720867D02*
X291844Y720786D01*
X291838Y720706D01*
X291829Y720626D01*
X291815Y720547D01*
X291798Y720468D01*
X291777Y720390D01*
X291753Y720313D01*
X291725Y720238D01*
X291693Y720164D01*
X291658Y720091D01*
X291619Y720021D01*
X291577Y719952D01*
X291532Y719885D01*
X291484Y719820D01*
X291432Y719758D01*
X291378Y719699D01*
X291321Y719642D01*
X291262Y719588D01*
X291200Y719536D01*
X291135Y719488D01*
X291068Y719443D01*
X291000Y719401D01*
X290929Y719362D01*
X290856Y719327D01*
X290782Y719295D01*
X290707Y719267D01*
X290630Y719243D01*
X290552Y719222D01*
X290473Y719205D01*
X290394Y719191D01*
X290314Y719182D01*
X290234Y719176D01*
X290153Y719174D01*
X285919Y719174D01*
X285838Y719176D01*
X285758Y719182D01*
X285678Y719191D01*
X285599Y719205D01*
X285520Y719222D01*
X285442Y719243D01*
X285365Y719267D01*
X285290Y719295D01*
X285216Y719327D01*
X285143Y719362D01*
X285073Y719401D01*
X285004Y719443D01*
X284937Y719488D01*
X284872Y719536D01*
X284810Y719587D01*
X284751Y719642D01*
X284694Y719699D01*
X284640Y719758D01*
X284588Y719820D01*
X284540Y719885D01*
X284495Y719952D01*
X284453Y720020D01*
X284414Y720091D01*
X284379Y720164D01*
X284347Y720238D01*
X284319Y720313D01*
X284295Y720390D01*
X284274Y720468D01*
X284257Y720547D01*
X284243Y720626D01*
X284234Y720706D01*
X284228Y720786D01*
X284226Y720867D01*
X284226Y722560D01*
X291846Y726963D02*
X291846Y728656D01*
X291846Y726963D02*
X291844Y726882D01*
X291838Y726802D01*
X291829Y726722D01*
X291815Y726643D01*
X291798Y726564D01*
X291777Y726486D01*
X291753Y726409D01*
X291725Y726334D01*
X291693Y726260D01*
X291658Y726187D01*
X291619Y726117D01*
X291577Y726048D01*
X291532Y725981D01*
X291484Y725916D01*
X291432Y725854D01*
X291378Y725795D01*
X291321Y725738D01*
X291262Y725684D01*
X291200Y725632D01*
X291135Y725584D01*
X291068Y725539D01*
X291000Y725497D01*
X290929Y725458D01*
X290856Y725423D01*
X290782Y725391D01*
X290707Y725363D01*
X290630Y725339D01*
X290552Y725318D01*
X290473Y725301D01*
X290394Y725287D01*
X290314Y725278D01*
X290234Y725272D01*
X290153Y725270D01*
X285919Y725270D01*
X285838Y725272D01*
X285758Y725278D01*
X285678Y725287D01*
X285599Y725301D01*
X285520Y725318D01*
X285442Y725339D01*
X285365Y725363D01*
X285290Y725391D01*
X285216Y725423D01*
X285143Y725458D01*
X285073Y725497D01*
X285004Y725539D01*
X284937Y725584D01*
X284872Y725632D01*
X284810Y725683D01*
X284751Y725738D01*
X284694Y725795D01*
X284640Y725854D01*
X284588Y725916D01*
X284540Y725981D01*
X284495Y726048D01*
X284453Y726116D01*
X284414Y726187D01*
X284379Y726260D01*
X284347Y726334D01*
X284319Y726409D01*
X284295Y726486D01*
X284274Y726564D01*
X284257Y726643D01*
X284243Y726722D01*
X284234Y726802D01*
X284228Y726882D01*
X284226Y726963D01*
X284226Y728656D01*
X313013Y715687D02*
X313013Y714417D01*
X313013Y715687D02*
X317246Y715687D01*
X317246Y713147D01*
X317244Y713066D01*
X317238Y712986D01*
X317229Y712906D01*
X317215Y712827D01*
X317198Y712748D01*
X317177Y712670D01*
X317153Y712593D01*
X317125Y712518D01*
X317093Y712444D01*
X317058Y712371D01*
X317019Y712301D01*
X316977Y712232D01*
X316932Y712165D01*
X316884Y712100D01*
X316832Y712038D01*
X316778Y711979D01*
X316721Y711922D01*
X316662Y711868D01*
X316600Y711816D01*
X316535Y711768D01*
X316468Y711723D01*
X316400Y711681D01*
X316329Y711642D01*
X316256Y711607D01*
X316182Y711575D01*
X316107Y711547D01*
X316030Y711523D01*
X315952Y711502D01*
X315873Y711485D01*
X315794Y711471D01*
X315714Y711462D01*
X315634Y711456D01*
X315553Y711454D01*
X311319Y711454D01*
X311238Y711456D01*
X311158Y711462D01*
X311078Y711471D01*
X310999Y711485D01*
X310920Y711502D01*
X310842Y711523D01*
X310765Y711547D01*
X310690Y711575D01*
X310616Y711607D01*
X310543Y711642D01*
X310473Y711681D01*
X310404Y711723D01*
X310337Y711768D01*
X310272Y711816D01*
X310210Y711867D01*
X310151Y711922D01*
X310094Y711979D01*
X310040Y712038D01*
X309988Y712100D01*
X309940Y712165D01*
X309895Y712232D01*
X309853Y712300D01*
X309814Y712371D01*
X309779Y712444D01*
X309747Y712518D01*
X309719Y712593D01*
X309695Y712670D01*
X309674Y712748D01*
X309657Y712827D01*
X309643Y712906D01*
X309634Y712986D01*
X309628Y713066D01*
X309626Y713147D01*
X309626Y715687D01*
X309626Y719257D02*
X317246Y719257D01*
X317246Y723490D02*
X309626Y719257D01*
X309626Y723490D02*
X317246Y723490D01*
X317246Y727060D02*
X309626Y727060D01*
X309626Y729176D01*
X309628Y729266D01*
X309634Y729356D01*
X309643Y729445D01*
X309656Y729534D01*
X309674Y729622D01*
X309694Y729709D01*
X309719Y729796D01*
X309747Y729881D01*
X309779Y729965D01*
X309814Y730048D01*
X309853Y730129D01*
X309895Y730208D01*
X309940Y730286D01*
X309989Y730361D01*
X310041Y730435D01*
X310096Y730506D01*
X310154Y730575D01*
X310215Y730641D01*
X310278Y730704D01*
X310344Y730765D01*
X310413Y730823D01*
X310484Y730878D01*
X310558Y730930D01*
X310633Y730979D01*
X310711Y731024D01*
X310790Y731066D01*
X310871Y731105D01*
X310954Y731140D01*
X311038Y731172D01*
X311123Y731200D01*
X311210Y731225D01*
X311297Y731245D01*
X311385Y731263D01*
X311474Y731276D01*
X311563Y731285D01*
X311653Y731291D01*
X311743Y731293D01*
X315129Y731293D01*
X315219Y731291D01*
X315309Y731285D01*
X315398Y731276D01*
X315487Y731263D01*
X315575Y731245D01*
X315662Y731225D01*
X315749Y731200D01*
X315834Y731172D01*
X315918Y731140D01*
X316001Y731105D01*
X316082Y731066D01*
X316161Y731024D01*
X316239Y730979D01*
X316314Y730930D01*
X316388Y730878D01*
X316459Y730823D01*
X316528Y730765D01*
X316594Y730704D01*
X316657Y730641D01*
X316718Y730575D01*
X316776Y730506D01*
X316831Y730435D01*
X316883Y730361D01*
X316932Y730286D01*
X316977Y730208D01*
X317019Y730129D01*
X317058Y730048D01*
X317093Y729965D01*
X317125Y729881D01*
X317153Y729796D01*
X317178Y729709D01*
X317198Y729622D01*
X317216Y729534D01*
X317229Y729445D01*
X317238Y729356D01*
X317244Y729266D01*
X317246Y729176D01*
X317246Y727060D01*
X335026Y711454D02*
X342646Y711454D01*
X335026Y711454D02*
X335026Y713571D01*
X335028Y713661D01*
X335034Y713751D01*
X335043Y713840D01*
X335056Y713929D01*
X335074Y714017D01*
X335094Y714104D01*
X335119Y714191D01*
X335147Y714276D01*
X335179Y714360D01*
X335214Y714443D01*
X335253Y714524D01*
X335295Y714603D01*
X335340Y714681D01*
X335389Y714756D01*
X335441Y714830D01*
X335496Y714901D01*
X335554Y714970D01*
X335615Y715036D01*
X335678Y715099D01*
X335744Y715160D01*
X335813Y715218D01*
X335884Y715273D01*
X335958Y715325D01*
X336033Y715374D01*
X336111Y715419D01*
X336190Y715461D01*
X336271Y715500D01*
X336354Y715535D01*
X336438Y715567D01*
X336523Y715595D01*
X336610Y715620D01*
X336697Y715640D01*
X336785Y715658D01*
X336874Y715671D01*
X336963Y715680D01*
X337053Y715686D01*
X337143Y715688D01*
X337143Y715687D02*
X340529Y715687D01*
X340529Y715688D02*
X340619Y715686D01*
X340709Y715680D01*
X340798Y715671D01*
X340887Y715658D01*
X340975Y715640D01*
X341062Y715620D01*
X341149Y715595D01*
X341234Y715567D01*
X341318Y715535D01*
X341401Y715500D01*
X341482Y715461D01*
X341561Y715419D01*
X341639Y715374D01*
X341714Y715325D01*
X341788Y715273D01*
X341859Y715218D01*
X341928Y715160D01*
X341994Y715099D01*
X342057Y715036D01*
X342118Y714970D01*
X342176Y714901D01*
X342231Y714830D01*
X342283Y714756D01*
X342332Y714681D01*
X342377Y714603D01*
X342419Y714524D01*
X342458Y714443D01*
X342493Y714360D01*
X342525Y714276D01*
X342553Y714191D01*
X342578Y714104D01*
X342598Y714017D01*
X342616Y713929D01*
X342629Y713840D01*
X342638Y713751D01*
X342644Y713661D01*
X342646Y713571D01*
X342646Y711454D01*
X338836Y719014D02*
X338678Y719016D01*
X338520Y719022D01*
X338362Y719032D01*
X338204Y719046D01*
X338047Y719064D01*
X337890Y719086D01*
X337734Y719111D01*
X337579Y719141D01*
X337424Y719175D01*
X337270Y719212D01*
X337118Y719254D01*
X336966Y719299D01*
X336816Y719348D01*
X336666Y719401D01*
X336519Y719457D01*
X336372Y719518D01*
X336228Y719581D01*
X336085Y719649D01*
X336084Y719649D02*
X336011Y719676D01*
X335940Y719706D01*
X335870Y719740D01*
X335802Y719778D01*
X335736Y719819D01*
X335672Y719863D01*
X335610Y719910D01*
X335551Y719960D01*
X335494Y720013D01*
X335440Y720069D01*
X335389Y720128D01*
X335341Y720188D01*
X335296Y720252D01*
X335254Y720317D01*
X335215Y720384D01*
X335180Y720454D01*
X335148Y720525D01*
X335120Y720597D01*
X335095Y720671D01*
X335074Y720745D01*
X335057Y720821D01*
X335043Y720898D01*
X335034Y720975D01*
X335028Y721052D01*
X335026Y721130D01*
X335028Y721208D01*
X335034Y721285D01*
X335043Y721362D01*
X335057Y721439D01*
X335074Y721515D01*
X335095Y721589D01*
X335120Y721663D01*
X335148Y721735D01*
X335180Y721806D01*
X335215Y721876D01*
X335254Y721943D01*
X335296Y722008D01*
X335341Y722072D01*
X335389Y722132D01*
X335440Y722191D01*
X335494Y722247D01*
X335551Y722300D01*
X335610Y722350D01*
X335672Y722397D01*
X335736Y722441D01*
X335802Y722482D01*
X335870Y722520D01*
X335940Y722554D01*
X336011Y722584D01*
X336084Y722611D01*
X336085Y722611D02*
X336228Y722679D01*
X336372Y722742D01*
X336519Y722803D01*
X336666Y722859D01*
X336816Y722912D01*
X336966Y722961D01*
X337118Y723006D01*
X337270Y723048D01*
X337424Y723085D01*
X337579Y723119D01*
X337734Y723149D01*
X337890Y723174D01*
X338047Y723196D01*
X338204Y723214D01*
X338362Y723228D01*
X338520Y723238D01*
X338678Y723244D01*
X338836Y723246D01*
X338836Y719013D02*
X338994Y719015D01*
X339152Y719021D01*
X339310Y719031D01*
X339468Y719045D01*
X339625Y719063D01*
X339782Y719085D01*
X339938Y719110D01*
X340093Y719140D01*
X340248Y719174D01*
X340402Y719211D01*
X340555Y719253D01*
X340706Y719298D01*
X340857Y719347D01*
X341006Y719400D01*
X341154Y719456D01*
X341300Y719517D01*
X341445Y719581D01*
X341588Y719648D01*
X341588Y719649D02*
X341661Y719676D01*
X341732Y719706D01*
X341802Y719740D01*
X341870Y719778D01*
X341936Y719819D01*
X342000Y719863D01*
X342062Y719910D01*
X342121Y719960D01*
X342178Y720013D01*
X342232Y720069D01*
X342283Y720128D01*
X342331Y720188D01*
X342377Y720252D01*
X342418Y720317D01*
X342457Y720384D01*
X342492Y720454D01*
X342524Y720525D01*
X342552Y720597D01*
X342577Y720671D01*
X342598Y720745D01*
X342615Y720821D01*
X342629Y720898D01*
X342638Y720975D01*
X342644Y721052D01*
X342646Y721130D01*
X341588Y722612D02*
X341445Y722679D01*
X341300Y722743D01*
X341154Y722804D01*
X341006Y722860D01*
X340857Y722913D01*
X340706Y722962D01*
X340555Y723007D01*
X340402Y723049D01*
X340248Y723086D01*
X340093Y723120D01*
X339938Y723150D01*
X339782Y723175D01*
X339625Y723197D01*
X339468Y723215D01*
X339310Y723229D01*
X339152Y723239D01*
X338994Y723245D01*
X338836Y723247D01*
X341588Y722611D02*
X341661Y722584D01*
X341732Y722554D01*
X341802Y722520D01*
X341870Y722482D01*
X341936Y722441D01*
X342000Y722397D01*
X342062Y722350D01*
X342121Y722300D01*
X342178Y722247D01*
X342232Y722191D01*
X342283Y722132D01*
X342331Y722072D01*
X342376Y722008D01*
X342418Y721943D01*
X342457Y721876D01*
X342492Y721806D01*
X342524Y721735D01*
X342552Y721663D01*
X342577Y721589D01*
X342598Y721515D01*
X342615Y721439D01*
X342629Y721362D01*
X342638Y721285D01*
X342644Y721208D01*
X342646Y721130D01*
X340953Y719436D02*
X336719Y722823D01*
X360426Y713994D02*
X368046Y711454D01*
X368046Y716534D02*
X360426Y713994D01*
X366141Y715899D02*
X366141Y712089D01*
X364236Y719193D02*
X364078Y719195D01*
X363920Y719201D01*
X363762Y719211D01*
X363604Y719225D01*
X363447Y719243D01*
X363290Y719265D01*
X363134Y719290D01*
X362979Y719320D01*
X362824Y719354D01*
X362670Y719391D01*
X362518Y719433D01*
X362366Y719478D01*
X362216Y719527D01*
X362066Y719580D01*
X361919Y719636D01*
X361772Y719697D01*
X361628Y719760D01*
X361485Y719828D01*
X361484Y719828D02*
X361411Y719855D01*
X361340Y719885D01*
X361270Y719919D01*
X361202Y719957D01*
X361136Y719998D01*
X361072Y720042D01*
X361010Y720089D01*
X360951Y720139D01*
X360894Y720192D01*
X360840Y720248D01*
X360789Y720307D01*
X360741Y720367D01*
X360696Y720431D01*
X360654Y720496D01*
X360615Y720563D01*
X360580Y720633D01*
X360548Y720704D01*
X360520Y720776D01*
X360495Y720850D01*
X360474Y720924D01*
X360457Y721000D01*
X360443Y721077D01*
X360434Y721154D01*
X360428Y721231D01*
X360426Y721309D01*
X360428Y721387D01*
X360434Y721464D01*
X360443Y721541D01*
X360457Y721618D01*
X360474Y721694D01*
X360495Y721768D01*
X360520Y721842D01*
X360548Y721914D01*
X360580Y721985D01*
X360615Y722055D01*
X360654Y722122D01*
X360696Y722187D01*
X360741Y722251D01*
X360789Y722311D01*
X360840Y722370D01*
X360894Y722426D01*
X360951Y722479D01*
X361010Y722529D01*
X361072Y722576D01*
X361136Y722620D01*
X361202Y722661D01*
X361270Y722699D01*
X361340Y722733D01*
X361411Y722763D01*
X361484Y722790D01*
X361485Y722790D02*
X361628Y722858D01*
X361772Y722921D01*
X361919Y722982D01*
X362066Y723038D01*
X362216Y723091D01*
X362366Y723140D01*
X362518Y723185D01*
X362670Y723227D01*
X362824Y723264D01*
X362979Y723298D01*
X363134Y723328D01*
X363290Y723353D01*
X363447Y723375D01*
X363604Y723393D01*
X363762Y723407D01*
X363920Y723417D01*
X364078Y723423D01*
X364236Y723425D01*
X364236Y719192D02*
X364394Y719194D01*
X364552Y719200D01*
X364710Y719210D01*
X364868Y719224D01*
X365025Y719242D01*
X365182Y719264D01*
X365338Y719289D01*
X365493Y719319D01*
X365648Y719353D01*
X365802Y719390D01*
X365955Y719432D01*
X366106Y719477D01*
X366257Y719526D01*
X366406Y719579D01*
X366554Y719635D01*
X366700Y719696D01*
X366845Y719760D01*
X366988Y719827D01*
X366988Y719828D02*
X367061Y719855D01*
X367132Y719885D01*
X367202Y719919D01*
X367270Y719957D01*
X367336Y719998D01*
X367400Y720042D01*
X367462Y720089D01*
X367521Y720139D01*
X367578Y720192D01*
X367632Y720248D01*
X367683Y720307D01*
X367731Y720367D01*
X367777Y720431D01*
X367818Y720496D01*
X367857Y720563D01*
X367892Y720633D01*
X367924Y720704D01*
X367952Y720776D01*
X367977Y720850D01*
X367998Y720924D01*
X368015Y721000D01*
X368029Y721077D01*
X368038Y721154D01*
X368044Y721231D01*
X368046Y721309D01*
X366988Y722791D02*
X366845Y722858D01*
X366700Y722922D01*
X366554Y722983D01*
X366406Y723039D01*
X366257Y723092D01*
X366106Y723141D01*
X365955Y723186D01*
X365802Y723228D01*
X365648Y723265D01*
X365493Y723299D01*
X365338Y723329D01*
X365182Y723354D01*
X365025Y723376D01*
X364868Y723394D01*
X364710Y723408D01*
X364552Y723418D01*
X364394Y723424D01*
X364236Y723426D01*
X366988Y722790D02*
X367061Y722763D01*
X367132Y722733D01*
X367202Y722699D01*
X367270Y722661D01*
X367336Y722620D01*
X367400Y722576D01*
X367462Y722529D01*
X367521Y722479D01*
X367578Y722426D01*
X367632Y722370D01*
X367683Y722311D01*
X367731Y722251D01*
X367776Y722187D01*
X367818Y722122D01*
X367857Y722055D01*
X367892Y721985D01*
X367924Y721914D01*
X367952Y721842D01*
X367977Y721768D01*
X367998Y721694D01*
X368015Y721618D01*
X368029Y721541D01*
X368038Y721464D01*
X368044Y721387D01*
X368046Y721309D01*
X366353Y719616D02*
X362119Y723003D01*
X228854Y736854D02*
X228854Y744474D01*
X230971Y744474D01*
X231062Y744472D01*
X231153Y744466D01*
X231244Y744456D01*
X231334Y744443D01*
X231423Y744425D01*
X231512Y744404D01*
X231599Y744379D01*
X231686Y744350D01*
X231771Y744317D01*
X231854Y744281D01*
X231936Y744241D01*
X232016Y744198D01*
X232095Y744151D01*
X232171Y744101D01*
X232245Y744048D01*
X232316Y743992D01*
X232385Y743932D01*
X232452Y743870D01*
X232515Y743805D01*
X232576Y743737D01*
X232634Y743667D01*
X232689Y743594D01*
X232741Y743519D01*
X232789Y743442D01*
X232834Y743362D01*
X232876Y743281D01*
X232914Y743199D01*
X232948Y743114D01*
X232979Y743028D01*
X233006Y742941D01*
X233029Y742853D01*
X233048Y742764D01*
X233064Y742675D01*
X233076Y742584D01*
X233084Y742494D01*
X233088Y742403D01*
X233088Y742311D01*
X233084Y742220D01*
X233076Y742130D01*
X233064Y742039D01*
X233048Y741950D01*
X233029Y741861D01*
X233006Y741773D01*
X232979Y741686D01*
X232948Y741600D01*
X232914Y741515D01*
X232876Y741433D01*
X232834Y741352D01*
X232789Y741272D01*
X232741Y741195D01*
X232689Y741120D01*
X232634Y741047D01*
X232576Y740977D01*
X232515Y740909D01*
X232452Y740844D01*
X232385Y740782D01*
X232316Y740722D01*
X232245Y740666D01*
X232171Y740613D01*
X232095Y740563D01*
X232016Y740516D01*
X231936Y740473D01*
X231854Y740433D01*
X231771Y740397D01*
X231686Y740364D01*
X231599Y740335D01*
X231512Y740310D01*
X231423Y740289D01*
X231334Y740271D01*
X231244Y740258D01*
X231153Y740248D01*
X231062Y740242D01*
X230971Y740240D01*
X230971Y740241D02*
X228854Y740241D01*
X231394Y740241D02*
X233087Y736854D01*
X233087Y766487D02*
X231817Y766487D01*
X233087Y766487D02*
X233087Y762254D01*
X230547Y762254D01*
X230466Y762256D01*
X230386Y762262D01*
X230306Y762271D01*
X230227Y762285D01*
X230148Y762302D01*
X230070Y762323D01*
X229993Y762347D01*
X229918Y762375D01*
X229844Y762407D01*
X229771Y762442D01*
X229701Y762481D01*
X229632Y762523D01*
X229565Y762568D01*
X229500Y762616D01*
X229438Y762668D01*
X229379Y762722D01*
X229322Y762779D01*
X229268Y762838D01*
X229216Y762900D01*
X229168Y762965D01*
X229123Y763032D01*
X229081Y763101D01*
X229042Y763171D01*
X229007Y763244D01*
X228975Y763318D01*
X228947Y763393D01*
X228923Y763470D01*
X228902Y763548D01*
X228885Y763627D01*
X228871Y763706D01*
X228862Y763786D01*
X228856Y763866D01*
X228854Y763947D01*
X228854Y768181D01*
X228856Y768262D01*
X228862Y768342D01*
X228871Y768422D01*
X228885Y768501D01*
X228902Y768580D01*
X228923Y768658D01*
X228947Y768735D01*
X228975Y768810D01*
X229007Y768884D01*
X229042Y768957D01*
X229081Y769027D01*
X229123Y769096D01*
X229168Y769163D01*
X229216Y769228D01*
X229268Y769290D01*
X229322Y769349D01*
X229379Y769406D01*
X229438Y769460D01*
X229500Y769512D01*
X229565Y769560D01*
X229632Y769605D01*
X229700Y769647D01*
X229771Y769686D01*
X229844Y769721D01*
X229918Y769753D01*
X229993Y769781D01*
X230070Y769805D01*
X230148Y769826D01*
X230227Y769843D01*
X230306Y769857D01*
X230386Y769866D01*
X230466Y769872D01*
X230547Y769874D01*
X233087Y769874D01*
X205571Y804587D02*
X203454Y804587D01*
X205571Y804588D02*
X205662Y804586D01*
X205753Y804580D01*
X205844Y804570D01*
X205934Y804557D01*
X206023Y804539D01*
X206112Y804518D01*
X206199Y804493D01*
X206286Y804464D01*
X206371Y804431D01*
X206454Y804395D01*
X206536Y804355D01*
X206616Y804312D01*
X206695Y804265D01*
X206771Y804215D01*
X206845Y804162D01*
X206916Y804106D01*
X206985Y804046D01*
X207052Y803984D01*
X207115Y803919D01*
X207176Y803851D01*
X207234Y803781D01*
X207289Y803708D01*
X207341Y803633D01*
X207389Y803556D01*
X207434Y803476D01*
X207476Y803395D01*
X207514Y803313D01*
X207548Y803228D01*
X207579Y803142D01*
X207606Y803055D01*
X207629Y802967D01*
X207648Y802878D01*
X207664Y802789D01*
X207676Y802698D01*
X207684Y802608D01*
X207688Y802517D01*
X207688Y802425D01*
X207684Y802334D01*
X207676Y802244D01*
X207664Y802153D01*
X207648Y802064D01*
X207629Y801975D01*
X207606Y801887D01*
X207579Y801800D01*
X207548Y801714D01*
X207514Y801629D01*
X207476Y801547D01*
X207434Y801466D01*
X207389Y801386D01*
X207341Y801309D01*
X207289Y801234D01*
X207234Y801161D01*
X207176Y801091D01*
X207115Y801023D01*
X207052Y800958D01*
X206985Y800896D01*
X206916Y800836D01*
X206845Y800780D01*
X206771Y800727D01*
X206695Y800677D01*
X206616Y800630D01*
X206536Y800587D01*
X206454Y800547D01*
X206371Y800511D01*
X206286Y800478D01*
X206199Y800449D01*
X206112Y800424D01*
X206023Y800403D01*
X205934Y800385D01*
X205844Y800372D01*
X205753Y800362D01*
X205662Y800356D01*
X205571Y800354D01*
X203454Y800354D01*
X203454Y807974D01*
X205571Y807974D01*
X205652Y807972D01*
X205732Y807966D01*
X205812Y807957D01*
X205891Y807943D01*
X205970Y807926D01*
X206048Y807905D01*
X206125Y807881D01*
X206200Y807853D01*
X206274Y807821D01*
X206347Y807786D01*
X206417Y807747D01*
X206486Y807705D01*
X206553Y807660D01*
X206618Y807612D01*
X206680Y807560D01*
X206739Y807506D01*
X206796Y807449D01*
X206850Y807390D01*
X206902Y807328D01*
X206950Y807263D01*
X206995Y807196D01*
X207037Y807128D01*
X207076Y807057D01*
X207111Y806984D01*
X207143Y806910D01*
X207171Y806835D01*
X207195Y806758D01*
X207216Y806680D01*
X207233Y806601D01*
X207247Y806522D01*
X207256Y806442D01*
X207262Y806362D01*
X207264Y806281D01*
X207262Y806200D01*
X207256Y806120D01*
X207247Y806040D01*
X207233Y805961D01*
X207216Y805882D01*
X207195Y805804D01*
X207171Y805727D01*
X207143Y805652D01*
X207111Y805578D01*
X207076Y805505D01*
X207037Y805435D01*
X206995Y805366D01*
X206950Y805299D01*
X206902Y805234D01*
X206850Y805172D01*
X206796Y805113D01*
X206739Y805056D01*
X206680Y805002D01*
X206618Y804950D01*
X206553Y804902D01*
X206486Y804857D01*
X206418Y804815D01*
X206347Y804776D01*
X206274Y804741D01*
X206200Y804709D01*
X206125Y804681D01*
X206048Y804657D01*
X205970Y804636D01*
X205891Y804619D01*
X205812Y804605D01*
X205732Y804596D01*
X205652Y804590D01*
X205571Y804588D01*
D12*
X213200Y749700D02*
X193200Y749700D01*
X192589Y749953D01*
X191985Y750221D01*
X191388Y750503D01*
X190798Y750800D01*
X190215Y751112D01*
X189640Y751438D01*
X189073Y751777D01*
X188515Y752131D01*
X187965Y752498D01*
X187425Y752879D01*
X186894Y753272D01*
X186374Y753679D01*
X185863Y754098D01*
X185362Y754530D01*
X184873Y754974D01*
X184394Y755430D01*
X183927Y755897D01*
X183471Y756375D01*
X183028Y756865D01*
X182596Y757366D01*
X182177Y757876D01*
X181770Y758397D01*
X181377Y758928D01*
X180996Y759468D01*
X180629Y760018D01*
X180276Y760576D01*
X179936Y761143D01*
X179610Y761718D01*
X179299Y762301D01*
X179002Y762891D01*
X178719Y763489D01*
X178451Y764093D01*
X178198Y764703D01*
X177961Y765320D01*
X177738Y765942D01*
X177531Y766570D01*
X177339Y767202D01*
X177163Y767839D01*
X177002Y768480D01*
X176858Y769125D01*
X176729Y769773D01*
X176616Y770424D01*
X176519Y771078D01*
X176438Y771733D01*
X176373Y772391D01*
X176325Y773050D01*
X176292Y773710D01*
X176276Y774371D01*
X176276Y775032D01*
X176292Y775692D01*
X176325Y776352D01*
X176373Y777011D01*
X176438Y777669D01*
X176519Y778325D01*
X176616Y778978D01*
X176729Y779630D01*
X176858Y780278D01*
X177003Y780922D01*
X177163Y781563D01*
X177340Y782200D01*
X177532Y782833D01*
X177739Y783460D01*
X177962Y784082D01*
X178199Y784699D01*
X178452Y785309D01*
X178720Y785914D01*
X179003Y786511D01*
X179300Y787101D01*
X179611Y787684D01*
X179937Y788259D01*
X180277Y788826D01*
X180630Y789384D01*
X180998Y789934D01*
X181378Y790474D01*
X181772Y791005D01*
X182178Y791526D01*
X182598Y792036D01*
X183029Y792537D01*
X183473Y793026D01*
X183929Y793505D01*
X184396Y793972D01*
X184875Y794428D01*
X185364Y794872D01*
X185865Y795303D01*
X186375Y795722D01*
X186896Y796129D01*
X187427Y796523D01*
X187967Y796903D01*
X188517Y797270D01*
X189075Y797624D01*
X189642Y797964D01*
X190217Y798289D01*
X190800Y798601D01*
X191390Y798898D01*
X191988Y799180D01*
X192592Y799448D01*
X193202Y799701D01*
X193819Y799939D01*
X194441Y800162D01*
X195068Y800369D01*
X195701Y800561D01*
X196338Y800737D01*
X196979Y800897D01*
X197623Y801042D01*
X198272Y801171D01*
X198923Y801284D01*
X199576Y801381D01*
X200232Y801462D01*
X200890Y801527D01*
X201549Y801575D01*
X202209Y801608D01*
X202870Y801624D01*
X203530Y801624D01*
X204191Y801608D01*
X204851Y801575D01*
X205510Y801527D01*
X206168Y801462D01*
X206824Y801381D01*
X207477Y801284D01*
X208128Y801171D01*
X208777Y801042D01*
X209421Y800897D01*
X210062Y800737D01*
X210699Y800561D01*
X211332Y800369D01*
X211959Y800162D01*
X212581Y799939D01*
X213198Y799701D01*
X213808Y799448D01*
X214412Y799180D01*
X215010Y798898D01*
X215600Y798601D01*
X216183Y798289D01*
X216758Y797964D01*
X217325Y797624D01*
X217883Y797270D01*
X218433Y796903D01*
X218973Y796523D01*
X219504Y796129D01*
X220025Y795722D01*
X220535Y795303D01*
X221036Y794872D01*
X221525Y794428D01*
X222004Y793972D01*
X222471Y793505D01*
X222927Y793026D01*
X223371Y792537D01*
X223802Y792036D01*
X224222Y791526D01*
X224628Y791005D01*
X225022Y790474D01*
X225402Y789934D01*
X225770Y789384D01*
X226123Y788826D01*
X226463Y788259D01*
X226789Y787684D01*
X227100Y787101D01*
X227397Y786511D01*
X227680Y785914D01*
X227948Y785309D01*
X228201Y784699D01*
X228438Y784082D01*
X228661Y783460D01*
X228868Y782833D01*
X229060Y782200D01*
X229237Y781563D01*
X229397Y780922D01*
X229542Y780278D01*
X229671Y779630D01*
X229784Y778978D01*
X229881Y778325D01*
X229962Y777669D01*
X230027Y777011D01*
X230075Y776352D01*
X230108Y775692D01*
X230124Y775032D01*
X230124Y774371D01*
X230108Y773710D01*
X230075Y773050D01*
X230027Y772391D01*
X229962Y771733D01*
X229881Y771078D01*
X229784Y770424D01*
X229671Y769773D01*
X229542Y769125D01*
X229398Y768480D01*
X229237Y767839D01*
X229061Y767202D01*
X228869Y766570D01*
X228662Y765942D01*
X228439Y765320D01*
X228202Y764703D01*
X227949Y764093D01*
X227681Y763489D01*
X227398Y762891D01*
X227101Y762301D01*
X226790Y761718D01*
X226464Y761143D01*
X226124Y760576D01*
X225771Y760018D01*
X225404Y759468D01*
X225023Y758928D01*
X224630Y758397D01*
X224223Y757876D01*
X223804Y757366D01*
X223372Y756865D01*
X222929Y756375D01*
X222473Y755897D01*
X222006Y755430D01*
X221527Y754974D01*
X221038Y754530D01*
X220537Y754098D01*
X220026Y753679D01*
X219506Y753272D01*
X218975Y752879D01*
X218435Y752498D01*
X217885Y752131D01*
X217327Y751777D01*
X216760Y751438D01*
X216185Y751112D01*
X215602Y750800D01*
X215012Y750503D01*
X214415Y750221D01*
X213811Y749953D01*
X213200Y749700D01*
D13*
X203200Y882650D02*
X203200Y920750D01*
D14*
X203674Y921366D01*
X204163Y921971D01*
X204667Y922563D01*
X205185Y923143D01*
X205717Y923710D01*
X206263Y924264D01*
X206822Y924804D01*
X207395Y925330D01*
X207980Y925843D01*
X208577Y926340D01*
X209186Y926823D01*
X209807Y927291D01*
X210440Y927744D01*
X211083Y928181D01*
X211737Y928602D01*
X212401Y929006D01*
X213074Y929395D01*
X213757Y929767D01*
X214449Y930122D01*
X215149Y930460D01*
X215857Y930781D01*
X216573Y931084D01*
X217297Y931370D01*
X218026Y931638D01*
X218763Y931888D01*
X219505Y932119D01*
X220253Y932333D01*
X221005Y932528D01*
X221763Y932705D01*
X222524Y932863D01*
X223289Y933003D01*
X224057Y933123D01*
X224828Y933225D01*
X225601Y933308D01*
X226376Y933372D01*
X227152Y933417D01*
X227929Y933443D01*
X228707Y933450D01*
X229484Y933438D01*
X230261Y933407D01*
X231037Y933356D01*
X231812Y933287D01*
X232584Y933199D01*
X233354Y933092D01*
X234122Y932966D01*
X234886Y932822D01*
X235646Y932658D01*
X236402Y932476D01*
X237153Y932276D01*
X237900Y932058D01*
X238640Y931821D01*
X239375Y931566D01*
X240103Y931293D01*
X240824Y931002D01*
X241538Y930694D01*
X242244Y930369D01*
X242942Y930026D01*
X243632Y929666D01*
X244312Y929290D01*
X244983Y928897D01*
X245644Y928487D01*
X246295Y928062D01*
X246935Y927621D01*
X247564Y927164D01*
X248182Y926692D01*
X248788Y926205D01*
X249382Y925703D01*
X249964Y925187D01*
X250533Y924657D01*
X251088Y924113D01*
X251631Y923555D01*
X252159Y922985D01*
X252673Y922402D01*
X253173Y921806D01*
X253658Y921198D01*
X254128Y920579D01*
X254582Y919948D01*
X255021Y919306D01*
X255445Y918654D01*
X255852Y917991D01*
X256243Y917319D01*
X256617Y916637D01*
X256974Y915947D01*
X257314Y915248D01*
X257638Y914540D01*
X257943Y913826D01*
X258232Y913103D01*
X258502Y912374D01*
X258754Y911639D01*
X258989Y910897D01*
X259205Y910150D01*
X259403Y909398D01*
X259582Y908642D01*
X259743Y907881D01*
X259885Y907117D01*
X260008Y906349D01*
X260112Y905578D01*
X260198Y904805D01*
X260264Y904031D01*
X260312Y903255D01*
X260340Y902478D01*
X260350Y901700D01*
X260340Y900922D01*
X260312Y900145D01*
X260264Y899369D01*
X260198Y898595D01*
X260112Y897822D01*
X260008Y897051D01*
X259885Y896283D01*
X259743Y895519D01*
X259582Y894758D01*
X259403Y894002D01*
X259205Y893250D01*
X258989Y892503D01*
X258754Y891761D01*
X258502Y891026D01*
X258232Y890297D01*
X257943Y889574D01*
X257638Y888860D01*
X257314Y888152D01*
X256974Y887453D01*
X256617Y886763D01*
X256243Y886081D01*
X255852Y885409D01*
X255445Y884746D01*
X255021Y884094D01*
X254582Y883452D01*
X254128Y882821D01*
X253658Y882202D01*
X253173Y881594D01*
X252673Y880998D01*
X252159Y880415D01*
X251631Y879845D01*
X251088Y879287D01*
X250533Y878743D01*
X249964Y878213D01*
X249382Y877697D01*
X248788Y877195D01*
X248182Y876708D01*
X247564Y876236D01*
X246935Y875779D01*
X246295Y875338D01*
X245644Y874913D01*
X244983Y874503D01*
X244312Y874110D01*
X243632Y873734D01*
X242942Y873374D01*
X242244Y873031D01*
X241538Y872706D01*
X240824Y872398D01*
X240103Y872107D01*
X239375Y871834D01*
X238640Y871579D01*
X237900Y871342D01*
X237153Y871124D01*
X236402Y870924D01*
X235646Y870742D01*
X234886Y870578D01*
X234122Y870434D01*
X233354Y870308D01*
X232584Y870201D01*
X231812Y870113D01*
X231037Y870044D01*
X230261Y869993D01*
X229484Y869962D01*
X228707Y869950D01*
X227929Y869957D01*
X227152Y869983D01*
X226376Y870028D01*
X225601Y870092D01*
X224828Y870175D01*
X224057Y870277D01*
X223289Y870397D01*
X222524Y870537D01*
X221763Y870695D01*
X221005Y870872D01*
X220253Y871067D01*
X219505Y871281D01*
X218763Y871512D01*
X218026Y871762D01*
X217297Y872030D01*
X216573Y872316D01*
X215857Y872619D01*
X215149Y872940D01*
X214449Y873278D01*
X213757Y873633D01*
X213074Y874005D01*
X212401Y874394D01*
X211737Y874798D01*
X211083Y875219D01*
X210440Y875656D01*
X209807Y876109D01*
X209186Y876577D01*
X208577Y877060D01*
X207980Y877557D01*
X207395Y878070D01*
X206822Y878596D01*
X206263Y879136D01*
X205717Y879690D01*
X205185Y880257D01*
X204667Y880837D01*
X204163Y881429D01*
X203674Y882034D01*
X203200Y882650D01*
D15*
X203200Y901700D02*
X203208Y902323D01*
X203231Y902946D01*
X203269Y903569D01*
X203322Y904190D01*
X203391Y904809D01*
X203475Y905427D01*
X203574Y906042D01*
X203688Y906655D01*
X203817Y907265D01*
X203961Y907872D01*
X204120Y908475D01*
X204294Y909073D01*
X204482Y909668D01*
X204685Y910257D01*
X204902Y910841D01*
X205133Y911420D01*
X205379Y911993D01*
X205639Y912560D01*
X205912Y913120D01*
X206199Y913673D01*
X206500Y914220D01*
X206814Y914758D01*
X207141Y915289D01*
X207481Y915811D01*
X207833Y916326D01*
X208199Y916831D01*
X208576Y917327D01*
X208966Y917814D01*
X209367Y918291D01*
X209780Y918758D01*
X210204Y919214D01*
X210639Y919661D01*
X211086Y920096D01*
X211542Y920520D01*
X212009Y920933D01*
X212486Y921334D01*
X212973Y921724D01*
X213469Y922101D01*
X213974Y922467D01*
X214489Y922819D01*
X215011Y923159D01*
X215542Y923486D01*
X216080Y923800D01*
X216627Y924101D01*
X217180Y924388D01*
X217740Y924661D01*
X218307Y924921D01*
X218880Y925167D01*
X219459Y925398D01*
X220043Y925615D01*
X220632Y925818D01*
X221227Y926006D01*
X221825Y926180D01*
X222428Y926339D01*
X223035Y926483D01*
X223645Y926612D01*
X224258Y926726D01*
X224873Y926825D01*
X225491Y926909D01*
X226110Y926978D01*
X226731Y927031D01*
X227354Y927069D01*
X227977Y927092D01*
X228600Y927100D01*
X229223Y927092D01*
X229846Y927069D01*
X230469Y927031D01*
X231090Y926978D01*
X231709Y926909D01*
X232327Y926825D01*
X232942Y926726D01*
X233555Y926612D01*
X234165Y926483D01*
X234772Y926339D01*
X235375Y926180D01*
X235973Y926006D01*
X236568Y925818D01*
X237157Y925615D01*
X237741Y925398D01*
X238320Y925167D01*
X238893Y924921D01*
X239460Y924661D01*
X240020Y924388D01*
X240573Y924101D01*
X241120Y923800D01*
X241658Y923486D01*
X242189Y923159D01*
X242711Y922819D01*
X243226Y922467D01*
X243731Y922101D01*
X244227Y921724D01*
X244714Y921334D01*
X245191Y920933D01*
X245658Y920520D01*
X246114Y920096D01*
X246561Y919661D01*
X246996Y919214D01*
X247420Y918758D01*
X247833Y918291D01*
X248234Y917814D01*
X248624Y917327D01*
X249001Y916831D01*
X249367Y916326D01*
X249719Y915811D01*
X250059Y915289D01*
X250386Y914758D01*
X250700Y914220D01*
X251001Y913673D01*
X251288Y913120D01*
X251561Y912560D01*
X251821Y911993D01*
X252067Y911420D01*
X252298Y910841D01*
X252515Y910257D01*
X252718Y909668D01*
X252906Y909073D01*
X253080Y908475D01*
X253239Y907872D01*
X253383Y907265D01*
X253512Y906655D01*
X253626Y906042D01*
X253725Y905427D01*
X253809Y904809D01*
X253878Y904190D01*
X253931Y903569D01*
X253969Y902946D01*
X253992Y902323D01*
X254000Y901700D01*
X253992Y901077D01*
X253969Y900454D01*
X253931Y899831D01*
X253878Y899210D01*
X253809Y898591D01*
X253725Y897973D01*
X253626Y897358D01*
X253512Y896745D01*
X253383Y896135D01*
X253239Y895528D01*
X253080Y894925D01*
X252906Y894327D01*
X252718Y893732D01*
X252515Y893143D01*
X252298Y892559D01*
X252067Y891980D01*
X251821Y891407D01*
X251561Y890840D01*
X251288Y890280D01*
X251001Y889727D01*
X250700Y889180D01*
X250386Y888642D01*
X250059Y888111D01*
X249719Y887589D01*
X249367Y887074D01*
X249001Y886569D01*
X248624Y886073D01*
X248234Y885586D01*
X247833Y885109D01*
X247420Y884642D01*
X246996Y884186D01*
X246561Y883739D01*
X246114Y883304D01*
X245658Y882880D01*
X245191Y882467D01*
X244714Y882066D01*
X244227Y881676D01*
X243731Y881299D01*
X243226Y880933D01*
X242711Y880581D01*
X242189Y880241D01*
X241658Y879914D01*
X241120Y879600D01*
X240573Y879299D01*
X240020Y879012D01*
X239460Y878739D01*
X238893Y878479D01*
X238320Y878233D01*
X237741Y878002D01*
X237157Y877785D01*
X236568Y877582D01*
X235973Y877394D01*
X235375Y877220D01*
X234772Y877061D01*
X234165Y876917D01*
X233555Y876788D01*
X232942Y876674D01*
X232327Y876575D01*
X231709Y876491D01*
X231090Y876422D01*
X230469Y876369D01*
X229846Y876331D01*
X229223Y876308D01*
X228600Y876300D01*
X227977Y876308D01*
X227354Y876331D01*
X226731Y876369D01*
X226110Y876422D01*
X225491Y876491D01*
X224873Y876575D01*
X224258Y876674D01*
X223645Y876788D01*
X223035Y876917D01*
X222428Y877061D01*
X221825Y877220D01*
X221227Y877394D01*
X220632Y877582D01*
X220043Y877785D01*
X219459Y878002D01*
X218880Y878233D01*
X218307Y878479D01*
X217740Y878739D01*
X217180Y879012D01*
X216627Y879299D01*
X216080Y879600D01*
X215542Y879914D01*
X215011Y880241D01*
X214489Y880581D01*
X213974Y880933D01*
X213469Y881299D01*
X212973Y881676D01*
X212486Y882066D01*
X212009Y882467D01*
X211542Y882880D01*
X211086Y883304D01*
X210639Y883739D01*
X210204Y884186D01*
X209780Y884642D01*
X209367Y885109D01*
X208966Y885586D01*
X208576Y886073D01*
X208199Y886569D01*
X207833Y887074D01*
X207481Y887589D01*
X207141Y888111D01*
X206814Y888642D01*
X206500Y889180D01*
X206199Y889727D01*
X205912Y890280D01*
X205639Y890840D01*
X205379Y891407D01*
X205133Y891980D01*
X204902Y892559D01*
X204685Y893143D01*
X204482Y893732D01*
X204294Y894327D01*
X204120Y894925D01*
X203961Y895528D01*
X203817Y896135D01*
X203688Y896745D01*
X203574Y897358D01*
X203475Y897973D01*
X203391Y898591D01*
X203322Y899210D01*
X203269Y899831D01*
X203231Y900454D01*
X203208Y901077D01*
X203200Y901700D01*
D13*
X330200Y882650D02*
X330200Y920750D01*
D14*
X329726Y921366D01*
X329237Y921971D01*
X328733Y922563D01*
X328215Y923143D01*
X327683Y923710D01*
X327137Y924264D01*
X326578Y924804D01*
X326005Y925330D01*
X325420Y925843D01*
X324823Y926340D01*
X324214Y926823D01*
X323593Y927291D01*
X322960Y927744D01*
X322317Y928181D01*
X321663Y928602D01*
X320999Y929006D01*
X320326Y929395D01*
X319643Y929767D01*
X318951Y930122D01*
X318251Y930460D01*
X317543Y930781D01*
X316827Y931084D01*
X316103Y931370D01*
X315374Y931638D01*
X314637Y931888D01*
X313895Y932119D01*
X313147Y932333D01*
X312395Y932528D01*
X311637Y932705D01*
X310876Y932863D01*
X310111Y933003D01*
X309343Y933123D01*
X308572Y933225D01*
X307799Y933308D01*
X307024Y933372D01*
X306248Y933417D01*
X305471Y933443D01*
X304693Y933450D01*
X303916Y933438D01*
X303139Y933407D01*
X302363Y933356D01*
X301588Y933287D01*
X300816Y933199D01*
X300046Y933092D01*
X299278Y932966D01*
X298514Y932822D01*
X297754Y932658D01*
X296998Y932476D01*
X296247Y932276D01*
X295500Y932058D01*
X294760Y931821D01*
X294025Y931566D01*
X293297Y931293D01*
X292576Y931002D01*
X291862Y930694D01*
X291156Y930369D01*
X290458Y930026D01*
X289768Y929666D01*
X289088Y929290D01*
X288417Y928897D01*
X287756Y928487D01*
X287105Y928062D01*
X286465Y927621D01*
X285836Y927164D01*
X285218Y926692D01*
X284612Y926205D01*
X284018Y925703D01*
X283436Y925187D01*
X282867Y924657D01*
X282312Y924113D01*
X281769Y923555D01*
X281241Y922985D01*
X280727Y922402D01*
X280227Y921806D01*
X279742Y921198D01*
X279272Y920579D01*
X278818Y919948D01*
X278379Y919306D01*
X277955Y918654D01*
X277548Y917991D01*
X277157Y917319D01*
X276783Y916637D01*
X276426Y915947D01*
X276086Y915248D01*
X275762Y914540D01*
X275457Y913826D01*
X275168Y913103D01*
X274898Y912374D01*
X274646Y911639D01*
X274411Y910897D01*
X274195Y910150D01*
X273997Y909398D01*
X273818Y908642D01*
X273657Y907881D01*
X273515Y907117D01*
X273392Y906349D01*
X273288Y905578D01*
X273202Y904805D01*
X273136Y904031D01*
X273088Y903255D01*
X273060Y902478D01*
X273050Y901700D01*
X273060Y900922D01*
X273088Y900145D01*
X273136Y899369D01*
X273202Y898595D01*
X273288Y897822D01*
X273392Y897051D01*
X273515Y896283D01*
X273657Y895519D01*
X273818Y894758D01*
X273997Y894002D01*
X274195Y893250D01*
X274411Y892503D01*
X274646Y891761D01*
X274898Y891026D01*
X275168Y890297D01*
X275457Y889574D01*
X275762Y888860D01*
X276086Y888152D01*
X276426Y887453D01*
X276783Y886763D01*
X277157Y886081D01*
X277548Y885409D01*
X277955Y884746D01*
X278379Y884094D01*
X278818Y883452D01*
X279272Y882821D01*
X279742Y882202D01*
X280227Y881594D01*
X280727Y880998D01*
X281241Y880415D01*
X281769Y879845D01*
X282312Y879287D01*
X282867Y878743D01*
X283436Y878213D01*
X284018Y877697D01*
X284612Y877195D01*
X285218Y876708D01*
X285836Y876236D01*
X286465Y875779D01*
X287105Y875338D01*
X287756Y874913D01*
X288417Y874503D01*
X289088Y874110D01*
X289768Y873734D01*
X290458Y873374D01*
X291156Y873031D01*
X291862Y872706D01*
X292576Y872398D01*
X293297Y872107D01*
X294025Y871834D01*
X294760Y871579D01*
X295500Y871342D01*
X296247Y871124D01*
X296998Y870924D01*
X297754Y870742D01*
X298514Y870578D01*
X299278Y870434D01*
X300046Y870308D01*
X300816Y870201D01*
X301588Y870113D01*
X302363Y870044D01*
X303139Y869993D01*
X303916Y869962D01*
X304693Y869950D01*
X305471Y869957D01*
X306248Y869983D01*
X307024Y870028D01*
X307799Y870092D01*
X308572Y870175D01*
X309343Y870277D01*
X310111Y870397D01*
X310876Y870537D01*
X311637Y870695D01*
X312395Y870872D01*
X313147Y871067D01*
X313895Y871281D01*
X314637Y871512D01*
X315374Y871762D01*
X316103Y872030D01*
X316827Y872316D01*
X317543Y872619D01*
X318251Y872940D01*
X318951Y873278D01*
X319643Y873633D01*
X320326Y874005D01*
X320999Y874394D01*
X321663Y874798D01*
X322317Y875219D01*
X322960Y875656D01*
X323593Y876109D01*
X324214Y876577D01*
X324823Y877060D01*
X325420Y877557D01*
X326005Y878070D01*
X326578Y878596D01*
X327137Y879136D01*
X327683Y879690D01*
X328215Y880257D01*
X328733Y880837D01*
X329237Y881429D01*
X329726Y882034D01*
X330200Y882650D01*
D15*
X279400Y901700D02*
X279408Y902323D01*
X279431Y902946D01*
X279469Y903569D01*
X279522Y904190D01*
X279591Y904809D01*
X279675Y905427D01*
X279774Y906042D01*
X279888Y906655D01*
X280017Y907265D01*
X280161Y907872D01*
X280320Y908475D01*
X280494Y909073D01*
X280682Y909668D01*
X280885Y910257D01*
X281102Y910841D01*
X281333Y911420D01*
X281579Y911993D01*
X281839Y912560D01*
X282112Y913120D01*
X282399Y913673D01*
X282700Y914220D01*
X283014Y914758D01*
X283341Y915289D01*
X283681Y915811D01*
X284033Y916326D01*
X284399Y916831D01*
X284776Y917327D01*
X285166Y917814D01*
X285567Y918291D01*
X285980Y918758D01*
X286404Y919214D01*
X286839Y919661D01*
X287286Y920096D01*
X287742Y920520D01*
X288209Y920933D01*
X288686Y921334D01*
X289173Y921724D01*
X289669Y922101D01*
X290174Y922467D01*
X290689Y922819D01*
X291211Y923159D01*
X291742Y923486D01*
X292280Y923800D01*
X292827Y924101D01*
X293380Y924388D01*
X293940Y924661D01*
X294507Y924921D01*
X295080Y925167D01*
X295659Y925398D01*
X296243Y925615D01*
X296832Y925818D01*
X297427Y926006D01*
X298025Y926180D01*
X298628Y926339D01*
X299235Y926483D01*
X299845Y926612D01*
X300458Y926726D01*
X301073Y926825D01*
X301691Y926909D01*
X302310Y926978D01*
X302931Y927031D01*
X303554Y927069D01*
X304177Y927092D01*
X304800Y927100D01*
X305423Y927092D01*
X306046Y927069D01*
X306669Y927031D01*
X307290Y926978D01*
X307909Y926909D01*
X308527Y926825D01*
X309142Y926726D01*
X309755Y926612D01*
X310365Y926483D01*
X310972Y926339D01*
X311575Y926180D01*
X312173Y926006D01*
X312768Y925818D01*
X313357Y925615D01*
X313941Y925398D01*
X314520Y925167D01*
X315093Y924921D01*
X315660Y924661D01*
X316220Y924388D01*
X316773Y924101D01*
X317320Y923800D01*
X317858Y923486D01*
X318389Y923159D01*
X318911Y922819D01*
X319426Y922467D01*
X319931Y922101D01*
X320427Y921724D01*
X320914Y921334D01*
X321391Y920933D01*
X321858Y920520D01*
X322314Y920096D01*
X322761Y919661D01*
X323196Y919214D01*
X323620Y918758D01*
X324033Y918291D01*
X324434Y917814D01*
X324824Y917327D01*
X325201Y916831D01*
X325567Y916326D01*
X325919Y915811D01*
X326259Y915289D01*
X326586Y914758D01*
X326900Y914220D01*
X327201Y913673D01*
X327488Y913120D01*
X327761Y912560D01*
X328021Y911993D01*
X328267Y911420D01*
X328498Y910841D01*
X328715Y910257D01*
X328918Y909668D01*
X329106Y909073D01*
X329280Y908475D01*
X329439Y907872D01*
X329583Y907265D01*
X329712Y906655D01*
X329826Y906042D01*
X329925Y905427D01*
X330009Y904809D01*
X330078Y904190D01*
X330131Y903569D01*
X330169Y902946D01*
X330192Y902323D01*
X330200Y901700D01*
X330192Y901077D01*
X330169Y900454D01*
X330131Y899831D01*
X330078Y899210D01*
X330009Y898591D01*
X329925Y897973D01*
X329826Y897358D01*
X329712Y896745D01*
X329583Y896135D01*
X329439Y895528D01*
X329280Y894925D01*
X329106Y894327D01*
X328918Y893732D01*
X328715Y893143D01*
X328498Y892559D01*
X328267Y891980D01*
X328021Y891407D01*
X327761Y890840D01*
X327488Y890280D01*
X327201Y889727D01*
X326900Y889180D01*
X326586Y888642D01*
X326259Y888111D01*
X325919Y887589D01*
X325567Y887074D01*
X325201Y886569D01*
X324824Y886073D01*
X324434Y885586D01*
X324033Y885109D01*
X323620Y884642D01*
X323196Y884186D01*
X322761Y883739D01*
X322314Y883304D01*
X321858Y882880D01*
X321391Y882467D01*
X320914Y882066D01*
X320427Y881676D01*
X319931Y881299D01*
X319426Y880933D01*
X318911Y880581D01*
X318389Y880241D01*
X317858Y879914D01*
X317320Y879600D01*
X316773Y879299D01*
X316220Y879012D01*
X315660Y878739D01*
X315093Y878479D01*
X314520Y878233D01*
X313941Y878002D01*
X313357Y877785D01*
X312768Y877582D01*
X312173Y877394D01*
X311575Y877220D01*
X310972Y877061D01*
X310365Y876917D01*
X309755Y876788D01*
X309142Y876674D01*
X308527Y876575D01*
X307909Y876491D01*
X307290Y876422D01*
X306669Y876369D01*
X306046Y876331D01*
X305423Y876308D01*
X304800Y876300D01*
X304177Y876308D01*
X303554Y876331D01*
X302931Y876369D01*
X302310Y876422D01*
X301691Y876491D01*
X301073Y876575D01*
X300458Y876674D01*
X299845Y876788D01*
X299235Y876917D01*
X298628Y877061D01*
X298025Y877220D01*
X297427Y877394D01*
X296832Y877582D01*
X296243Y877785D01*
X295659Y878002D01*
X295080Y878233D01*
X294507Y878479D01*
X293940Y878739D01*
X293380Y879012D01*
X292827Y879299D01*
X292280Y879600D01*
X291742Y879914D01*
X291211Y880241D01*
X290689Y880581D01*
X290174Y880933D01*
X289669Y881299D01*
X289173Y881676D01*
X288686Y882066D01*
X288209Y882467D01*
X287742Y882880D01*
X287286Y883304D01*
X286839Y883739D01*
X286404Y884186D01*
X285980Y884642D01*
X285567Y885109D01*
X285166Y885586D01*
X284776Y886073D01*
X284399Y886569D01*
X284033Y887074D01*
X283681Y887589D01*
X283341Y888111D01*
X283014Y888642D01*
X282700Y889180D01*
X282399Y889727D01*
X282112Y890280D01*
X281839Y890840D01*
X281579Y891407D01*
X281333Y891980D01*
X281102Y892559D01*
X280885Y893143D01*
X280682Y893732D01*
X280494Y894327D01*
X280320Y894925D01*
X280161Y895528D01*
X280017Y896135D01*
X279888Y896745D01*
X279774Y897358D01*
X279675Y897973D01*
X279591Y898591D01*
X279522Y899210D01*
X279469Y899831D01*
X279431Y900454D01*
X279408Y901077D01*
X279400Y901700D01*
X317500Y792480D02*
X317498Y792380D01*
X317492Y792281D01*
X317482Y792181D01*
X317469Y792083D01*
X317451Y791984D01*
X317430Y791887D01*
X317405Y791791D01*
X317376Y791695D01*
X317343Y791601D01*
X317307Y791508D01*
X317267Y791417D01*
X317223Y791327D01*
X317176Y791239D01*
X317126Y791153D01*
X317072Y791069D01*
X317015Y790987D01*
X316955Y790908D01*
X316891Y790830D01*
X316825Y790756D01*
X316756Y790684D01*
X316684Y790615D01*
X316610Y790549D01*
X316532Y790485D01*
X316453Y790425D01*
X316371Y790368D01*
X316287Y790314D01*
X316201Y790264D01*
X316113Y790217D01*
X316023Y790173D01*
X315932Y790133D01*
X315839Y790097D01*
X315745Y790064D01*
X315649Y790035D01*
X315553Y790010D01*
X315456Y789989D01*
X315357Y789971D01*
X315259Y789958D01*
X315159Y789948D01*
X315060Y789942D01*
X314960Y789940D01*
X317500Y807720D02*
X317498Y807820D01*
X317492Y807919D01*
X317482Y808019D01*
X317469Y808117D01*
X317451Y808216D01*
X317430Y808313D01*
X317405Y808409D01*
X317376Y808505D01*
X317343Y808599D01*
X317307Y808692D01*
X317267Y808783D01*
X317223Y808873D01*
X317176Y808961D01*
X317126Y809047D01*
X317072Y809131D01*
X317015Y809213D01*
X316955Y809292D01*
X316891Y809370D01*
X316825Y809444D01*
X316756Y809516D01*
X316684Y809585D01*
X316610Y809651D01*
X316532Y809715D01*
X316453Y809775D01*
X316371Y809832D01*
X316287Y809886D01*
X316201Y809936D01*
X316113Y809983D01*
X316023Y810027D01*
X315932Y810067D01*
X315839Y810103D01*
X315745Y810136D01*
X315649Y810165D01*
X315553Y810190D01*
X315456Y810211D01*
X315357Y810229D01*
X315259Y810242D01*
X315159Y810252D01*
X315060Y810258D01*
X314960Y810260D01*
X269240Y810260D02*
X269140Y810258D01*
X269041Y810252D01*
X268941Y810242D01*
X268843Y810229D01*
X268744Y810211D01*
X268647Y810190D01*
X268551Y810165D01*
X268455Y810136D01*
X268361Y810103D01*
X268268Y810067D01*
X268177Y810027D01*
X268087Y809983D01*
X267999Y809936D01*
X267913Y809886D01*
X267829Y809832D01*
X267747Y809775D01*
X267668Y809715D01*
X267590Y809651D01*
X267516Y809585D01*
X267444Y809516D01*
X267375Y809444D01*
X267309Y809370D01*
X267245Y809292D01*
X267185Y809213D01*
X267128Y809131D01*
X267074Y809047D01*
X267024Y808961D01*
X266977Y808873D01*
X266933Y808783D01*
X266893Y808692D01*
X266857Y808599D01*
X266824Y808505D01*
X266795Y808409D01*
X266770Y808313D01*
X266749Y808216D01*
X266731Y808117D01*
X266718Y808019D01*
X266708Y807919D01*
X266702Y807820D01*
X266700Y807720D01*
X266700Y792480D02*
X266702Y792380D01*
X266708Y792281D01*
X266718Y792181D01*
X266731Y792083D01*
X266749Y791984D01*
X266770Y791887D01*
X266795Y791791D01*
X266824Y791695D01*
X266857Y791601D01*
X266893Y791508D01*
X266933Y791417D01*
X266977Y791327D01*
X267024Y791239D01*
X267074Y791153D01*
X267128Y791069D01*
X267185Y790987D01*
X267245Y790908D01*
X267309Y790830D01*
X267375Y790756D01*
X267444Y790684D01*
X267516Y790615D01*
X267590Y790549D01*
X267668Y790485D01*
X267747Y790425D01*
X267829Y790368D01*
X267913Y790314D01*
X267999Y790264D01*
X268087Y790217D01*
X268177Y790173D01*
X268268Y790133D01*
X268361Y790097D01*
X268455Y790064D01*
X268551Y790035D01*
X268647Y790010D01*
X268744Y789989D01*
X268843Y789971D01*
X268941Y789958D01*
X269041Y789948D01*
X269140Y789942D01*
X269240Y789940D01*
X317500Y792480D02*
X317500Y807720D01*
X314960Y789940D02*
X311150Y789940D01*
X309880Y791210D01*
X311150Y810260D02*
X314960Y810260D01*
X311150Y810260D02*
X309880Y808990D01*
X274320Y791210D02*
X273050Y789940D01*
X274320Y791210D02*
X309880Y791210D01*
X274320Y808990D02*
X273050Y810260D01*
X274320Y808990D02*
X309880Y808990D01*
X273050Y789940D02*
X269240Y789940D01*
X269240Y810260D02*
X273050Y810260D01*
X266700Y807720D02*
X266700Y792480D01*
D16*
X264795Y800100D03*
X319405Y800100D03*
D15*
X317500Y767080D02*
X317498Y766980D01*
X317492Y766881D01*
X317482Y766781D01*
X317469Y766683D01*
X317451Y766584D01*
X317430Y766487D01*
X317405Y766391D01*
X317376Y766295D01*
X317343Y766201D01*
X317307Y766108D01*
X317267Y766017D01*
X317223Y765927D01*
X317176Y765839D01*
X317126Y765753D01*
X317072Y765669D01*
X317015Y765587D01*
X316955Y765508D01*
X316891Y765430D01*
X316825Y765356D01*
X316756Y765284D01*
X316684Y765215D01*
X316610Y765149D01*
X316532Y765085D01*
X316453Y765025D01*
X316371Y764968D01*
X316287Y764914D01*
X316201Y764864D01*
X316113Y764817D01*
X316023Y764773D01*
X315932Y764733D01*
X315839Y764697D01*
X315745Y764664D01*
X315649Y764635D01*
X315553Y764610D01*
X315456Y764589D01*
X315357Y764571D01*
X315259Y764558D01*
X315159Y764548D01*
X315060Y764542D01*
X314960Y764540D01*
X317500Y782320D02*
X317498Y782420D01*
X317492Y782519D01*
X317482Y782619D01*
X317469Y782717D01*
X317451Y782816D01*
X317430Y782913D01*
X317405Y783009D01*
X317376Y783105D01*
X317343Y783199D01*
X317307Y783292D01*
X317267Y783383D01*
X317223Y783473D01*
X317176Y783561D01*
X317126Y783647D01*
X317072Y783731D01*
X317015Y783813D01*
X316955Y783892D01*
X316891Y783970D01*
X316825Y784044D01*
X316756Y784116D01*
X316684Y784185D01*
X316610Y784251D01*
X316532Y784315D01*
X316453Y784375D01*
X316371Y784432D01*
X316287Y784486D01*
X316201Y784536D01*
X316113Y784583D01*
X316023Y784627D01*
X315932Y784667D01*
X315839Y784703D01*
X315745Y784736D01*
X315649Y784765D01*
X315553Y784790D01*
X315456Y784811D01*
X315357Y784829D01*
X315259Y784842D01*
X315159Y784852D01*
X315060Y784858D01*
X314960Y784860D01*
X269240Y784860D02*
X269140Y784858D01*
X269041Y784852D01*
X268941Y784842D01*
X268843Y784829D01*
X268744Y784811D01*
X268647Y784790D01*
X268551Y784765D01*
X268455Y784736D01*
X268361Y784703D01*
X268268Y784667D01*
X268177Y784627D01*
X268087Y784583D01*
X267999Y784536D01*
X267913Y784486D01*
X267829Y784432D01*
X267747Y784375D01*
X267668Y784315D01*
X267590Y784251D01*
X267516Y784185D01*
X267444Y784116D01*
X267375Y784044D01*
X267309Y783970D01*
X267245Y783892D01*
X267185Y783813D01*
X267128Y783731D01*
X267074Y783647D01*
X267024Y783561D01*
X266977Y783473D01*
X266933Y783383D01*
X266893Y783292D01*
X266857Y783199D01*
X266824Y783105D01*
X266795Y783009D01*
X266770Y782913D01*
X266749Y782816D01*
X266731Y782717D01*
X266718Y782619D01*
X266708Y782519D01*
X266702Y782420D01*
X266700Y782320D01*
X266700Y767080D02*
X266702Y766980D01*
X266708Y766881D01*
X266718Y766781D01*
X266731Y766683D01*
X266749Y766584D01*
X266770Y766487D01*
X266795Y766391D01*
X266824Y766295D01*
X266857Y766201D01*
X266893Y766108D01*
X266933Y766017D01*
X266977Y765927D01*
X267024Y765839D01*
X267074Y765753D01*
X267128Y765669D01*
X267185Y765587D01*
X267245Y765508D01*
X267309Y765430D01*
X267375Y765356D01*
X267444Y765284D01*
X267516Y765215D01*
X267590Y765149D01*
X267668Y765085D01*
X267747Y765025D01*
X267829Y764968D01*
X267913Y764914D01*
X267999Y764864D01*
X268087Y764817D01*
X268177Y764773D01*
X268268Y764733D01*
X268361Y764697D01*
X268455Y764664D01*
X268551Y764635D01*
X268647Y764610D01*
X268744Y764589D01*
X268843Y764571D01*
X268941Y764558D01*
X269041Y764548D01*
X269140Y764542D01*
X269240Y764540D01*
X317500Y767080D02*
X317500Y782320D01*
X314960Y764540D02*
X311150Y764540D01*
X309880Y765810D01*
X311150Y784860D02*
X314960Y784860D01*
X311150Y784860D02*
X309880Y783590D01*
X274320Y765810D02*
X273050Y764540D01*
X274320Y765810D02*
X309880Y765810D01*
X274320Y783590D02*
X273050Y784860D01*
X274320Y783590D02*
X309880Y783590D01*
X273050Y764540D02*
X269240Y764540D01*
X269240Y784860D02*
X273050Y784860D01*
X266700Y782320D02*
X266700Y767080D01*
D16*
X264795Y774700D03*
X319405Y774700D03*
D15*
X317500Y741680D02*
X317498Y741580D01*
X317492Y741481D01*
X317482Y741381D01*
X317469Y741283D01*
X317451Y741184D01*
X317430Y741087D01*
X317405Y740991D01*
X317376Y740895D01*
X317343Y740801D01*
X317307Y740708D01*
X317267Y740617D01*
X317223Y740527D01*
X317176Y740439D01*
X317126Y740353D01*
X317072Y740269D01*
X317015Y740187D01*
X316955Y740108D01*
X316891Y740030D01*
X316825Y739956D01*
X316756Y739884D01*
X316684Y739815D01*
X316610Y739749D01*
X316532Y739685D01*
X316453Y739625D01*
X316371Y739568D01*
X316287Y739514D01*
X316201Y739464D01*
X316113Y739417D01*
X316023Y739373D01*
X315932Y739333D01*
X315839Y739297D01*
X315745Y739264D01*
X315649Y739235D01*
X315553Y739210D01*
X315456Y739189D01*
X315357Y739171D01*
X315259Y739158D01*
X315159Y739148D01*
X315060Y739142D01*
X314960Y739140D01*
X317500Y756920D02*
X317498Y757020D01*
X317492Y757119D01*
X317482Y757219D01*
X317469Y757317D01*
X317451Y757416D01*
X317430Y757513D01*
X317405Y757609D01*
X317376Y757705D01*
X317343Y757799D01*
X317307Y757892D01*
X317267Y757983D01*
X317223Y758073D01*
X317176Y758161D01*
X317126Y758247D01*
X317072Y758331D01*
X317015Y758413D01*
X316955Y758492D01*
X316891Y758570D01*
X316825Y758644D01*
X316756Y758716D01*
X316684Y758785D01*
X316610Y758851D01*
X316532Y758915D01*
X316453Y758975D01*
X316371Y759032D01*
X316287Y759086D01*
X316201Y759136D01*
X316113Y759183D01*
X316023Y759227D01*
X315932Y759267D01*
X315839Y759303D01*
X315745Y759336D01*
X315649Y759365D01*
X315553Y759390D01*
X315456Y759411D01*
X315357Y759429D01*
X315259Y759442D01*
X315159Y759452D01*
X315060Y759458D01*
X314960Y759460D01*
X269240Y759460D02*
X269140Y759458D01*
X269041Y759452D01*
X268941Y759442D01*
X268843Y759429D01*
X268744Y759411D01*
X268647Y759390D01*
X268551Y759365D01*
X268455Y759336D01*
X268361Y759303D01*
X268268Y759267D01*
X268177Y759227D01*
X268087Y759183D01*
X267999Y759136D01*
X267913Y759086D01*
X267829Y759032D01*
X267747Y758975D01*
X267668Y758915D01*
X267590Y758851D01*
X267516Y758785D01*
X267444Y758716D01*
X267375Y758644D01*
X267309Y758570D01*
X267245Y758492D01*
X267185Y758413D01*
X267128Y758331D01*
X267074Y758247D01*
X267024Y758161D01*
X266977Y758073D01*
X266933Y757983D01*
X266893Y757892D01*
X266857Y757799D01*
X266824Y757705D01*
X266795Y757609D01*
X266770Y757513D01*
X266749Y757416D01*
X266731Y757317D01*
X266718Y757219D01*
X266708Y757119D01*
X266702Y757020D01*
X266700Y756920D01*
X266700Y741680D02*
X266702Y741580D01*
X266708Y741481D01*
X266718Y741381D01*
X266731Y741283D01*
X266749Y741184D01*
X266770Y741087D01*
X266795Y740991D01*
X266824Y740895D01*
X266857Y740801D01*
X266893Y740708D01*
X266933Y740617D01*
X266977Y740527D01*
X267024Y740439D01*
X267074Y740353D01*
X267128Y740269D01*
X267185Y740187D01*
X267245Y740108D01*
X267309Y740030D01*
X267375Y739956D01*
X267444Y739884D01*
X267516Y739815D01*
X267590Y739749D01*
X267668Y739685D01*
X267747Y739625D01*
X267829Y739568D01*
X267913Y739514D01*
X267999Y739464D01*
X268087Y739417D01*
X268177Y739373D01*
X268268Y739333D01*
X268361Y739297D01*
X268455Y739264D01*
X268551Y739235D01*
X268647Y739210D01*
X268744Y739189D01*
X268843Y739171D01*
X268941Y739158D01*
X269041Y739148D01*
X269140Y739142D01*
X269240Y739140D01*
X317500Y741680D02*
X317500Y756920D01*
X314960Y739140D02*
X311150Y739140D01*
X309880Y740410D01*
X311150Y759460D02*
X314960Y759460D01*
X311150Y759460D02*
X309880Y758190D01*
X274320Y740410D02*
X273050Y739140D01*
X274320Y740410D02*
X309880Y740410D01*
X274320Y758190D02*
X273050Y759460D01*
X274320Y758190D02*
X309880Y758190D01*
X273050Y739140D02*
X269240Y739140D01*
X269240Y759460D02*
X273050Y759460D01*
X266700Y756920D02*
X266700Y741680D01*
D16*
X264795Y749300D03*
X319405Y749300D03*
D15*
X314960Y815340D02*
X315060Y815342D01*
X315159Y815348D01*
X315259Y815358D01*
X315357Y815371D01*
X315456Y815389D01*
X315553Y815410D01*
X315649Y815435D01*
X315745Y815464D01*
X315839Y815497D01*
X315932Y815533D01*
X316023Y815573D01*
X316113Y815617D01*
X316201Y815664D01*
X316287Y815714D01*
X316371Y815768D01*
X316453Y815825D01*
X316532Y815885D01*
X316610Y815949D01*
X316684Y816015D01*
X316756Y816084D01*
X316825Y816156D01*
X316891Y816230D01*
X316955Y816308D01*
X317015Y816387D01*
X317072Y816469D01*
X317126Y816553D01*
X317176Y816639D01*
X317223Y816727D01*
X317267Y816817D01*
X317307Y816908D01*
X317343Y817001D01*
X317376Y817095D01*
X317405Y817191D01*
X317430Y817287D01*
X317451Y817384D01*
X317469Y817483D01*
X317482Y817581D01*
X317492Y817681D01*
X317498Y817780D01*
X317500Y817880D01*
X317500Y833120D02*
X317498Y833220D01*
X317492Y833319D01*
X317482Y833419D01*
X317469Y833517D01*
X317451Y833616D01*
X317430Y833713D01*
X317405Y833809D01*
X317376Y833905D01*
X317343Y833999D01*
X317307Y834092D01*
X317267Y834183D01*
X317223Y834273D01*
X317176Y834361D01*
X317126Y834447D01*
X317072Y834531D01*
X317015Y834613D01*
X316955Y834692D01*
X316891Y834770D01*
X316825Y834844D01*
X316756Y834916D01*
X316684Y834985D01*
X316610Y835051D01*
X316532Y835115D01*
X316453Y835175D01*
X316371Y835232D01*
X316287Y835286D01*
X316201Y835336D01*
X316113Y835383D01*
X316023Y835427D01*
X315932Y835467D01*
X315839Y835503D01*
X315745Y835536D01*
X315649Y835565D01*
X315553Y835590D01*
X315456Y835611D01*
X315357Y835629D01*
X315259Y835642D01*
X315159Y835652D01*
X315060Y835658D01*
X314960Y835660D01*
X269240Y835660D02*
X269140Y835658D01*
X269041Y835652D01*
X268941Y835642D01*
X268843Y835629D01*
X268744Y835611D01*
X268647Y835590D01*
X268551Y835565D01*
X268455Y835536D01*
X268361Y835503D01*
X268268Y835467D01*
X268177Y835427D01*
X268087Y835383D01*
X267999Y835336D01*
X267913Y835286D01*
X267829Y835232D01*
X267747Y835175D01*
X267668Y835115D01*
X267590Y835051D01*
X267516Y834985D01*
X267444Y834916D01*
X267375Y834844D01*
X267309Y834770D01*
X267245Y834692D01*
X267185Y834613D01*
X267128Y834531D01*
X267074Y834447D01*
X267024Y834361D01*
X266977Y834273D01*
X266933Y834183D01*
X266893Y834092D01*
X266857Y833999D01*
X266824Y833905D01*
X266795Y833809D01*
X266770Y833713D01*
X266749Y833616D01*
X266731Y833517D01*
X266718Y833419D01*
X266708Y833319D01*
X266702Y833220D01*
X266700Y833120D01*
X266700Y817880D02*
X266702Y817780D01*
X266708Y817681D01*
X266718Y817581D01*
X266731Y817483D01*
X266749Y817384D01*
X266770Y817287D01*
X266795Y817191D01*
X266824Y817095D01*
X266857Y817001D01*
X266893Y816908D01*
X266933Y816817D01*
X266977Y816727D01*
X267024Y816639D01*
X267074Y816553D01*
X267128Y816469D01*
X267185Y816387D01*
X267245Y816308D01*
X267309Y816230D01*
X267375Y816156D01*
X267444Y816084D01*
X267516Y816015D01*
X267590Y815949D01*
X267668Y815885D01*
X267747Y815825D01*
X267829Y815768D01*
X267913Y815714D01*
X267999Y815664D01*
X268087Y815617D01*
X268177Y815573D01*
X268268Y815533D01*
X268361Y815497D01*
X268455Y815464D01*
X268551Y815435D01*
X268647Y815410D01*
X268744Y815389D01*
X268843Y815371D01*
X268941Y815358D01*
X269041Y815348D01*
X269140Y815342D01*
X269240Y815340D01*
X317500Y817880D02*
X317500Y833120D01*
X314960Y815340D02*
X311150Y815340D01*
X309880Y816610D01*
X311150Y835660D02*
X314960Y835660D01*
X311150Y835660D02*
X309880Y834390D01*
X274320Y816610D02*
X273050Y815340D01*
X274320Y816610D02*
X309880Y816610D01*
X274320Y834390D02*
X273050Y835660D01*
X274320Y834390D02*
X309880Y834390D01*
X273050Y815340D02*
X269240Y815340D01*
X269240Y835660D02*
X273050Y835660D01*
X266700Y833120D02*
X266700Y817880D01*
D16*
X264795Y825500D03*
X319405Y825500D03*
D15*
X314960Y840740D02*
X315060Y840742D01*
X315159Y840748D01*
X315259Y840758D01*
X315357Y840771D01*
X315456Y840789D01*
X315553Y840810D01*
X315649Y840835D01*
X315745Y840864D01*
X315839Y840897D01*
X315932Y840933D01*
X316023Y840973D01*
X316113Y841017D01*
X316201Y841064D01*
X316287Y841114D01*
X316371Y841168D01*
X316453Y841225D01*
X316532Y841285D01*
X316610Y841349D01*
X316684Y841415D01*
X316756Y841484D01*
X316825Y841556D01*
X316891Y841630D01*
X316955Y841708D01*
X317015Y841787D01*
X317072Y841869D01*
X317126Y841953D01*
X317176Y842039D01*
X317223Y842127D01*
X317267Y842217D01*
X317307Y842308D01*
X317343Y842401D01*
X317376Y842495D01*
X317405Y842591D01*
X317430Y842687D01*
X317451Y842784D01*
X317469Y842883D01*
X317482Y842981D01*
X317492Y843081D01*
X317498Y843180D01*
X317500Y843280D01*
X317500Y858520D02*
X317498Y858620D01*
X317492Y858719D01*
X317482Y858819D01*
X317469Y858917D01*
X317451Y859016D01*
X317430Y859113D01*
X317405Y859209D01*
X317376Y859305D01*
X317343Y859399D01*
X317307Y859492D01*
X317267Y859583D01*
X317223Y859673D01*
X317176Y859761D01*
X317126Y859847D01*
X317072Y859931D01*
X317015Y860013D01*
X316955Y860092D01*
X316891Y860170D01*
X316825Y860244D01*
X316756Y860316D01*
X316684Y860385D01*
X316610Y860451D01*
X316532Y860515D01*
X316453Y860575D01*
X316371Y860632D01*
X316287Y860686D01*
X316201Y860736D01*
X316113Y860783D01*
X316023Y860827D01*
X315932Y860867D01*
X315839Y860903D01*
X315745Y860936D01*
X315649Y860965D01*
X315553Y860990D01*
X315456Y861011D01*
X315357Y861029D01*
X315259Y861042D01*
X315159Y861052D01*
X315060Y861058D01*
X314960Y861060D01*
X269240Y861060D02*
X269140Y861058D01*
X269041Y861052D01*
X268941Y861042D01*
X268843Y861029D01*
X268744Y861011D01*
X268647Y860990D01*
X268551Y860965D01*
X268455Y860936D01*
X268361Y860903D01*
X268268Y860867D01*
X268177Y860827D01*
X268087Y860783D01*
X267999Y860736D01*
X267913Y860686D01*
X267829Y860632D01*
X267747Y860575D01*
X267668Y860515D01*
X267590Y860451D01*
X267516Y860385D01*
X267444Y860316D01*
X267375Y860244D01*
X267309Y860170D01*
X267245Y860092D01*
X267185Y860013D01*
X267128Y859931D01*
X267074Y859847D01*
X267024Y859761D01*
X266977Y859673D01*
X266933Y859583D01*
X266893Y859492D01*
X266857Y859399D01*
X266824Y859305D01*
X266795Y859209D01*
X266770Y859113D01*
X266749Y859016D01*
X266731Y858917D01*
X266718Y858819D01*
X266708Y858719D01*
X266702Y858620D01*
X266700Y858520D01*
X266700Y843280D02*
X266702Y843180D01*
X266708Y843081D01*
X266718Y842981D01*
X266731Y842883D01*
X266749Y842784D01*
X266770Y842687D01*
X266795Y842591D01*
X266824Y842495D01*
X266857Y842401D01*
X266893Y842308D01*
X266933Y842217D01*
X266977Y842127D01*
X267024Y842039D01*
X267074Y841953D01*
X267128Y841869D01*
X267185Y841787D01*
X267245Y841708D01*
X267309Y841630D01*
X267375Y841556D01*
X267444Y841484D01*
X267516Y841415D01*
X267590Y841349D01*
X267668Y841285D01*
X267747Y841225D01*
X267829Y841168D01*
X267913Y841114D01*
X267999Y841064D01*
X268087Y841017D01*
X268177Y840973D01*
X268268Y840933D01*
X268361Y840897D01*
X268455Y840864D01*
X268551Y840835D01*
X268647Y840810D01*
X268744Y840789D01*
X268843Y840771D01*
X268941Y840758D01*
X269041Y840748D01*
X269140Y840742D01*
X269240Y840740D01*
X317500Y843280D02*
X317500Y858520D01*
X314960Y840740D02*
X311150Y840740D01*
X309880Y842010D01*
X311150Y861060D02*
X314960Y861060D01*
X311150Y861060D02*
X309880Y859790D01*
X274320Y842010D02*
X273050Y840740D01*
X274320Y842010D02*
X309880Y842010D01*
X274320Y859790D02*
X273050Y861060D01*
X274320Y859790D02*
X309880Y859790D01*
X273050Y840740D02*
X269240Y840740D01*
X269240Y861060D02*
X273050Y861060D01*
X266700Y858520D02*
X266700Y843280D01*
D16*
X264795Y850900D03*
X319405Y850900D03*
D12*
X165100Y850900D02*
X158750Y857250D01*
X165100Y850900D02*
X165100Y838200D01*
X158750Y831850D01*
X165100Y825500D01*
X165100Y812800D01*
X158750Y806450D01*
X165100Y800100D01*
X165100Y787400D01*
X158750Y781050D01*
X165100Y774700D01*
X165100Y762000D01*
X158750Y755650D01*
X139700Y850900D02*
X146050Y857250D01*
X139700Y838200D02*
X146050Y831850D01*
X139700Y825500D01*
X139700Y812800D02*
X146050Y806450D01*
X139700Y800100D01*
X139700Y787400D02*
X146050Y781050D01*
X139700Y774700D01*
X139700Y762000D02*
X146050Y755650D01*
D10*
X171958Y787908D02*
X171958Y799592D01*
X175204Y799592D01*
X175317Y799590D01*
X175430Y799584D01*
X175543Y799574D01*
X175656Y799560D01*
X175768Y799543D01*
X175879Y799521D01*
X175989Y799496D01*
X176099Y799466D01*
X176207Y799433D01*
X176314Y799396D01*
X176420Y799356D01*
X176524Y799311D01*
X176627Y799263D01*
X176728Y799212D01*
X176827Y799157D01*
X176924Y799099D01*
X177019Y799037D01*
X177112Y798972D01*
X177202Y798904D01*
X177290Y798833D01*
X177376Y798758D01*
X177459Y798681D01*
X177539Y798601D01*
X177616Y798518D01*
X177691Y798432D01*
X177762Y798344D01*
X177830Y798254D01*
X177895Y798161D01*
X177957Y798066D01*
X178015Y797969D01*
X178070Y797870D01*
X178121Y797769D01*
X178169Y797666D01*
X178214Y797562D01*
X178254Y797456D01*
X178291Y797349D01*
X178324Y797241D01*
X178354Y797131D01*
X178379Y797021D01*
X178401Y796910D01*
X178418Y796798D01*
X178432Y796685D01*
X178442Y796572D01*
X178448Y796459D01*
X178450Y796346D01*
X178449Y796346D02*
X178449Y791154D01*
X178450Y791154D02*
X178448Y791041D01*
X178442Y790928D01*
X178432Y790815D01*
X178418Y790702D01*
X178401Y790590D01*
X178379Y790479D01*
X178354Y790369D01*
X178324Y790259D01*
X178291Y790151D01*
X178254Y790044D01*
X178214Y789938D01*
X178169Y789834D01*
X178121Y789731D01*
X178070Y789630D01*
X178015Y789531D01*
X177957Y789434D01*
X177895Y789339D01*
X177830Y789246D01*
X177762Y789156D01*
X177691Y789068D01*
X177616Y788982D01*
X177539Y788899D01*
X177459Y788819D01*
X177376Y788742D01*
X177290Y788667D01*
X177202Y788596D01*
X177112Y788528D01*
X177019Y788463D01*
X176924Y788401D01*
X176827Y788343D01*
X176728Y788288D01*
X176627Y788237D01*
X176524Y788189D01*
X176420Y788144D01*
X176314Y788104D01*
X176207Y788067D01*
X176099Y788034D01*
X175989Y788004D01*
X175879Y787979D01*
X175768Y787957D01*
X175656Y787940D01*
X175543Y787926D01*
X175430Y787916D01*
X175317Y787910D01*
X175204Y787908D01*
X171958Y787908D01*
X183769Y798294D02*
X183769Y799592D01*
X190260Y799592D01*
X187015Y787908D01*
D12*
X139700Y939800D02*
X393700Y939800D01*
X393700Y927100D01*
X393700Y914400D01*
X393700Y901700D01*
X393700Y889000D01*
X393700Y876300D01*
X393700Y863600D01*
X393700Y654050D01*
D10*
X171958Y813308D02*
X171958Y824992D01*
X175204Y824992D01*
X175317Y824990D01*
X175430Y824984D01*
X175543Y824974D01*
X175656Y824960D01*
X175768Y824943D01*
X175879Y824921D01*
X175989Y824896D01*
X176099Y824866D01*
X176207Y824833D01*
X176314Y824796D01*
X176420Y824756D01*
X176524Y824711D01*
X176627Y824663D01*
X176728Y824612D01*
X176827Y824557D01*
X176924Y824499D01*
X177019Y824437D01*
X177112Y824372D01*
X177202Y824304D01*
X177290Y824233D01*
X177376Y824158D01*
X177459Y824081D01*
X177539Y824001D01*
X177616Y823918D01*
X177691Y823832D01*
X177762Y823744D01*
X177830Y823654D01*
X177895Y823561D01*
X177957Y823466D01*
X178015Y823369D01*
X178070Y823270D01*
X178121Y823169D01*
X178169Y823066D01*
X178214Y822962D01*
X178254Y822856D01*
X178291Y822749D01*
X178324Y822641D01*
X178354Y822531D01*
X178379Y822421D01*
X178401Y822310D01*
X178418Y822198D01*
X178432Y822085D01*
X178442Y821972D01*
X178448Y821859D01*
X178450Y821746D01*
X178449Y821746D02*
X178449Y816554D01*
X178450Y816554D02*
X178448Y816441D01*
X178442Y816328D01*
X178432Y816215D01*
X178418Y816102D01*
X178401Y815990D01*
X178379Y815879D01*
X178354Y815769D01*
X178324Y815659D01*
X178291Y815551D01*
X178254Y815444D01*
X178214Y815338D01*
X178169Y815234D01*
X178121Y815131D01*
X178070Y815030D01*
X178015Y814931D01*
X177957Y814834D01*
X177895Y814739D01*
X177830Y814646D01*
X177762Y814556D01*
X177691Y814468D01*
X177616Y814382D01*
X177539Y814299D01*
X177459Y814219D01*
X177376Y814142D01*
X177290Y814067D01*
X177202Y813996D01*
X177112Y813928D01*
X177019Y813863D01*
X176924Y813801D01*
X176827Y813743D01*
X176728Y813688D01*
X176627Y813637D01*
X176524Y813589D01*
X176420Y813544D01*
X176314Y813504D01*
X176207Y813467D01*
X176099Y813434D01*
X175989Y813404D01*
X175879Y813379D01*
X175768Y813357D01*
X175656Y813340D01*
X175543Y813326D01*
X175430Y813316D01*
X175317Y813310D01*
X175204Y813308D01*
X171958Y813308D01*
X183769Y819799D02*
X187664Y819799D01*
X187763Y819797D01*
X187863Y819791D01*
X187962Y819782D01*
X188060Y819769D01*
X188158Y819752D01*
X188256Y819731D01*
X188352Y819706D01*
X188447Y819678D01*
X188541Y819646D01*
X188634Y819611D01*
X188726Y819572D01*
X188816Y819529D01*
X188904Y819484D01*
X188991Y819434D01*
X189075Y819382D01*
X189158Y819326D01*
X189238Y819268D01*
X189316Y819206D01*
X189391Y819141D01*
X189464Y819073D01*
X189534Y819003D01*
X189602Y818930D01*
X189667Y818855D01*
X189729Y818777D01*
X189787Y818697D01*
X189843Y818614D01*
X189895Y818530D01*
X189945Y818443D01*
X189990Y818355D01*
X190033Y818265D01*
X190072Y818173D01*
X190107Y818080D01*
X190139Y817986D01*
X190167Y817891D01*
X190192Y817795D01*
X190213Y817697D01*
X190230Y817599D01*
X190243Y817501D01*
X190252Y817402D01*
X190258Y817302D01*
X190260Y817203D01*
X190260Y816554D01*
X190261Y816554D02*
X190259Y816441D01*
X190253Y816328D01*
X190243Y816215D01*
X190229Y816102D01*
X190212Y815990D01*
X190190Y815879D01*
X190165Y815769D01*
X190135Y815659D01*
X190102Y815551D01*
X190065Y815444D01*
X190025Y815338D01*
X189980Y815234D01*
X189932Y815131D01*
X189881Y815030D01*
X189826Y814931D01*
X189768Y814834D01*
X189706Y814739D01*
X189641Y814646D01*
X189573Y814556D01*
X189502Y814468D01*
X189427Y814382D01*
X189350Y814299D01*
X189270Y814219D01*
X189187Y814142D01*
X189101Y814067D01*
X189013Y813996D01*
X188923Y813928D01*
X188830Y813863D01*
X188735Y813801D01*
X188638Y813743D01*
X188539Y813688D01*
X188438Y813637D01*
X188335Y813589D01*
X188231Y813544D01*
X188125Y813504D01*
X188018Y813467D01*
X187910Y813434D01*
X187800Y813404D01*
X187690Y813379D01*
X187579Y813357D01*
X187467Y813340D01*
X187354Y813326D01*
X187241Y813316D01*
X187128Y813310D01*
X187015Y813308D01*
X186902Y813310D01*
X186789Y813316D01*
X186676Y813326D01*
X186563Y813340D01*
X186451Y813357D01*
X186340Y813379D01*
X186230Y813404D01*
X186120Y813434D01*
X186012Y813467D01*
X185905Y813504D01*
X185799Y813544D01*
X185695Y813589D01*
X185592Y813637D01*
X185491Y813688D01*
X185392Y813743D01*
X185295Y813801D01*
X185200Y813863D01*
X185107Y813928D01*
X185017Y813996D01*
X184929Y814067D01*
X184843Y814142D01*
X184760Y814219D01*
X184680Y814299D01*
X184603Y814382D01*
X184528Y814468D01*
X184457Y814556D01*
X184389Y814646D01*
X184324Y814739D01*
X184262Y814834D01*
X184204Y814931D01*
X184149Y815030D01*
X184098Y815131D01*
X184050Y815234D01*
X184005Y815338D01*
X183965Y815444D01*
X183928Y815551D01*
X183895Y815659D01*
X183865Y815769D01*
X183840Y815879D01*
X183818Y815990D01*
X183801Y816102D01*
X183787Y816215D01*
X183777Y816328D01*
X183771Y816441D01*
X183769Y816554D01*
X183769Y819799D01*
X183771Y819942D01*
X183777Y820085D01*
X183787Y820228D01*
X183801Y820370D01*
X183818Y820512D01*
X183840Y820654D01*
X183865Y820795D01*
X183895Y820935D01*
X183928Y821074D01*
X183965Y821212D01*
X184006Y821349D01*
X184050Y821485D01*
X184099Y821620D01*
X184151Y821753D01*
X184206Y821885D01*
X184266Y822015D01*
X184329Y822144D01*
X184395Y822271D01*
X184465Y822395D01*
X184538Y822518D01*
X184615Y822639D01*
X184695Y822758D01*
X184778Y822874D01*
X184864Y822989D01*
X184953Y823100D01*
X185046Y823210D01*
X185141Y823316D01*
X185240Y823420D01*
X185341Y823521D01*
X185445Y823620D01*
X185551Y823715D01*
X185661Y823808D01*
X185772Y823897D01*
X185887Y823983D01*
X186003Y824066D01*
X186122Y824146D01*
X186243Y824223D01*
X186365Y824296D01*
X186490Y824366D01*
X186617Y824432D01*
X186746Y824495D01*
X186876Y824555D01*
X187008Y824610D01*
X187141Y824662D01*
X187276Y824711D01*
X187412Y824755D01*
X187549Y824796D01*
X187687Y824833D01*
X187826Y824866D01*
X187966Y824896D01*
X188107Y824921D01*
X188249Y824943D01*
X188391Y824960D01*
X188533Y824974D01*
X188676Y824984D01*
X188819Y824990D01*
X188962Y824992D01*
X171958Y838708D02*
X171958Y850392D01*
X175204Y850392D01*
X175317Y850390D01*
X175430Y850384D01*
X175543Y850374D01*
X175656Y850360D01*
X175768Y850343D01*
X175879Y850321D01*
X175989Y850296D01*
X176099Y850266D01*
X176207Y850233D01*
X176314Y850196D01*
X176420Y850156D01*
X176524Y850111D01*
X176627Y850063D01*
X176728Y850012D01*
X176827Y849957D01*
X176924Y849899D01*
X177019Y849837D01*
X177112Y849772D01*
X177202Y849704D01*
X177290Y849633D01*
X177376Y849558D01*
X177459Y849481D01*
X177539Y849401D01*
X177616Y849318D01*
X177691Y849232D01*
X177762Y849144D01*
X177830Y849054D01*
X177895Y848961D01*
X177957Y848866D01*
X178015Y848769D01*
X178070Y848670D01*
X178121Y848569D01*
X178169Y848466D01*
X178214Y848362D01*
X178254Y848256D01*
X178291Y848149D01*
X178324Y848041D01*
X178354Y847931D01*
X178379Y847821D01*
X178401Y847710D01*
X178418Y847598D01*
X178432Y847485D01*
X178442Y847372D01*
X178448Y847259D01*
X178450Y847146D01*
X178449Y847146D02*
X178449Y841954D01*
X178450Y841954D02*
X178448Y841841D01*
X178442Y841728D01*
X178432Y841615D01*
X178418Y841502D01*
X178401Y841390D01*
X178379Y841279D01*
X178354Y841169D01*
X178324Y841059D01*
X178291Y840951D01*
X178254Y840844D01*
X178214Y840738D01*
X178169Y840634D01*
X178121Y840531D01*
X178070Y840430D01*
X178015Y840331D01*
X177957Y840234D01*
X177895Y840139D01*
X177830Y840046D01*
X177762Y839956D01*
X177691Y839868D01*
X177616Y839782D01*
X177539Y839699D01*
X177459Y839619D01*
X177376Y839542D01*
X177290Y839467D01*
X177202Y839396D01*
X177112Y839328D01*
X177019Y839263D01*
X176924Y839201D01*
X176827Y839143D01*
X176728Y839088D01*
X176627Y839037D01*
X176524Y838989D01*
X176420Y838944D01*
X176314Y838904D01*
X176207Y838867D01*
X176099Y838834D01*
X175989Y838804D01*
X175879Y838779D01*
X175768Y838757D01*
X175656Y838740D01*
X175543Y838726D01*
X175430Y838716D01*
X175317Y838710D01*
X175204Y838708D01*
X171958Y838708D01*
X183769Y838708D02*
X187664Y838708D01*
X187763Y838710D01*
X187863Y838716D01*
X187962Y838725D01*
X188060Y838738D01*
X188158Y838755D01*
X188256Y838776D01*
X188352Y838801D01*
X188447Y838829D01*
X188541Y838861D01*
X188634Y838896D01*
X188726Y838935D01*
X188816Y838978D01*
X188904Y839023D01*
X188991Y839073D01*
X189075Y839125D01*
X189158Y839181D01*
X189238Y839239D01*
X189316Y839301D01*
X189391Y839366D01*
X189464Y839434D01*
X189534Y839504D01*
X189602Y839577D01*
X189667Y839652D01*
X189729Y839730D01*
X189787Y839810D01*
X189843Y839893D01*
X189895Y839977D01*
X189945Y840064D01*
X189990Y840152D01*
X190033Y840242D01*
X190072Y840334D01*
X190107Y840427D01*
X190139Y840521D01*
X190167Y840616D01*
X190192Y840712D01*
X190213Y840810D01*
X190230Y840908D01*
X190243Y841006D01*
X190252Y841105D01*
X190258Y841205D01*
X190260Y841304D01*
X190260Y842603D01*
X190258Y842702D01*
X190252Y842802D01*
X190243Y842901D01*
X190230Y842999D01*
X190213Y843097D01*
X190192Y843195D01*
X190167Y843291D01*
X190139Y843386D01*
X190107Y843480D01*
X190072Y843573D01*
X190033Y843665D01*
X189990Y843755D01*
X189945Y843843D01*
X189895Y843930D01*
X189843Y844014D01*
X189787Y844097D01*
X189729Y844177D01*
X189667Y844255D01*
X189602Y844330D01*
X189534Y844403D01*
X189464Y844473D01*
X189391Y844541D01*
X189316Y844606D01*
X189238Y844668D01*
X189158Y844726D01*
X189075Y844782D01*
X188991Y844834D01*
X188904Y844884D01*
X188816Y844929D01*
X188726Y844972D01*
X188634Y845011D01*
X188541Y845046D01*
X188447Y845078D01*
X188352Y845106D01*
X188256Y845131D01*
X188158Y845152D01*
X188060Y845169D01*
X187962Y845182D01*
X187863Y845191D01*
X187763Y845197D01*
X187664Y845199D01*
X183769Y845199D01*
X183769Y850392D01*
X190260Y850392D01*
X171958Y774192D02*
X171958Y762508D01*
X171958Y774192D02*
X175204Y774192D01*
X175317Y774190D01*
X175430Y774184D01*
X175543Y774174D01*
X175656Y774160D01*
X175768Y774143D01*
X175879Y774121D01*
X175989Y774096D01*
X176099Y774066D01*
X176207Y774033D01*
X176314Y773996D01*
X176420Y773956D01*
X176524Y773911D01*
X176627Y773863D01*
X176728Y773812D01*
X176827Y773757D01*
X176924Y773699D01*
X177019Y773637D01*
X177112Y773572D01*
X177202Y773504D01*
X177290Y773433D01*
X177376Y773358D01*
X177459Y773281D01*
X177539Y773201D01*
X177616Y773118D01*
X177691Y773032D01*
X177762Y772944D01*
X177830Y772854D01*
X177895Y772761D01*
X177957Y772666D01*
X178015Y772569D01*
X178070Y772470D01*
X178121Y772369D01*
X178169Y772266D01*
X178214Y772162D01*
X178254Y772056D01*
X178291Y771949D01*
X178324Y771841D01*
X178354Y771731D01*
X178379Y771621D01*
X178401Y771510D01*
X178418Y771398D01*
X178432Y771285D01*
X178442Y771172D01*
X178448Y771059D01*
X178450Y770946D01*
X178449Y770946D02*
X178449Y765754D01*
X178450Y765754D02*
X178448Y765641D01*
X178442Y765528D01*
X178432Y765415D01*
X178418Y765302D01*
X178401Y765190D01*
X178379Y765079D01*
X178354Y764969D01*
X178324Y764859D01*
X178291Y764751D01*
X178254Y764644D01*
X178214Y764538D01*
X178169Y764434D01*
X178121Y764331D01*
X178070Y764230D01*
X178015Y764131D01*
X177957Y764034D01*
X177895Y763939D01*
X177830Y763846D01*
X177762Y763756D01*
X177691Y763668D01*
X177616Y763582D01*
X177539Y763499D01*
X177459Y763419D01*
X177376Y763342D01*
X177290Y763267D01*
X177202Y763196D01*
X177112Y763128D01*
X177019Y763063D01*
X176924Y763001D01*
X176827Y762943D01*
X176728Y762888D01*
X176627Y762837D01*
X176524Y762789D01*
X176420Y762744D01*
X176314Y762704D01*
X176207Y762667D01*
X176099Y762634D01*
X175989Y762604D01*
X175879Y762579D01*
X175768Y762557D01*
X175656Y762540D01*
X175543Y762526D01*
X175430Y762516D01*
X175317Y762510D01*
X175204Y762508D01*
X171958Y762508D01*
X183769Y765754D02*
X183771Y765867D01*
X183777Y765980D01*
X183787Y766093D01*
X183801Y766206D01*
X183818Y766318D01*
X183840Y766429D01*
X183865Y766539D01*
X183895Y766649D01*
X183928Y766757D01*
X183965Y766864D01*
X184005Y766970D01*
X184050Y767074D01*
X184098Y767177D01*
X184149Y767278D01*
X184204Y767377D01*
X184262Y767474D01*
X184324Y767569D01*
X184389Y767662D01*
X184457Y767752D01*
X184528Y767840D01*
X184603Y767926D01*
X184680Y768009D01*
X184760Y768089D01*
X184843Y768166D01*
X184929Y768241D01*
X185017Y768312D01*
X185107Y768380D01*
X185200Y768445D01*
X185295Y768507D01*
X185392Y768565D01*
X185491Y768620D01*
X185592Y768671D01*
X185695Y768719D01*
X185799Y768764D01*
X185905Y768804D01*
X186012Y768841D01*
X186120Y768874D01*
X186230Y768904D01*
X186340Y768929D01*
X186451Y768951D01*
X186563Y768968D01*
X186676Y768982D01*
X186789Y768992D01*
X186902Y768998D01*
X187015Y769000D01*
X187128Y768998D01*
X187241Y768992D01*
X187354Y768982D01*
X187467Y768968D01*
X187579Y768951D01*
X187690Y768929D01*
X187800Y768904D01*
X187910Y768874D01*
X188018Y768841D01*
X188125Y768804D01*
X188231Y768764D01*
X188335Y768719D01*
X188438Y768671D01*
X188539Y768620D01*
X188638Y768565D01*
X188735Y768507D01*
X188830Y768445D01*
X188923Y768380D01*
X189013Y768312D01*
X189101Y768241D01*
X189187Y768166D01*
X189270Y768089D01*
X189350Y768009D01*
X189427Y767926D01*
X189502Y767840D01*
X189573Y767752D01*
X189641Y767662D01*
X189706Y767569D01*
X189768Y767474D01*
X189826Y767377D01*
X189881Y767278D01*
X189932Y767177D01*
X189980Y767074D01*
X190025Y766970D01*
X190065Y766864D01*
X190102Y766757D01*
X190135Y766649D01*
X190165Y766539D01*
X190190Y766429D01*
X190212Y766318D01*
X190229Y766206D01*
X190243Y766093D01*
X190253Y765980D01*
X190259Y765867D01*
X190261Y765754D01*
X190259Y765641D01*
X190253Y765528D01*
X190243Y765415D01*
X190229Y765302D01*
X190212Y765190D01*
X190190Y765079D01*
X190165Y764969D01*
X190135Y764859D01*
X190102Y764751D01*
X190065Y764644D01*
X190025Y764538D01*
X189980Y764434D01*
X189932Y764331D01*
X189881Y764230D01*
X189826Y764131D01*
X189768Y764034D01*
X189706Y763939D01*
X189641Y763846D01*
X189573Y763756D01*
X189502Y763668D01*
X189427Y763582D01*
X189350Y763499D01*
X189270Y763419D01*
X189187Y763342D01*
X189101Y763267D01*
X189013Y763196D01*
X188923Y763128D01*
X188830Y763063D01*
X188735Y763001D01*
X188638Y762943D01*
X188539Y762888D01*
X188438Y762837D01*
X188335Y762789D01*
X188231Y762744D01*
X188125Y762704D01*
X188018Y762667D01*
X187910Y762634D01*
X187800Y762604D01*
X187690Y762579D01*
X187579Y762557D01*
X187467Y762540D01*
X187354Y762526D01*
X187241Y762516D01*
X187128Y762510D01*
X187015Y762508D01*
X186902Y762510D01*
X186789Y762516D01*
X186676Y762526D01*
X186563Y762540D01*
X186451Y762557D01*
X186340Y762579D01*
X186230Y762604D01*
X186120Y762634D01*
X186012Y762667D01*
X185905Y762704D01*
X185799Y762744D01*
X185695Y762789D01*
X185592Y762837D01*
X185491Y762888D01*
X185392Y762943D01*
X185295Y763001D01*
X185200Y763063D01*
X185107Y763128D01*
X185017Y763196D01*
X184929Y763267D01*
X184843Y763342D01*
X184760Y763419D01*
X184680Y763499D01*
X184603Y763582D01*
X184528Y763668D01*
X184457Y763756D01*
X184389Y763846D01*
X184324Y763939D01*
X184262Y764034D01*
X184204Y764131D01*
X184149Y764230D01*
X184098Y764331D01*
X184050Y764434D01*
X184005Y764538D01*
X183965Y764644D01*
X183928Y764751D01*
X183895Y764859D01*
X183865Y764969D01*
X183840Y765079D01*
X183818Y765190D01*
X183801Y765302D01*
X183787Y765415D01*
X183777Y765528D01*
X183771Y765641D01*
X183769Y765754D01*
X184419Y771596D02*
X184421Y771697D01*
X184427Y771797D01*
X184437Y771897D01*
X184450Y771997D01*
X184468Y772096D01*
X184489Y772195D01*
X184514Y772292D01*
X184543Y772389D01*
X184576Y772484D01*
X184612Y772578D01*
X184652Y772670D01*
X184695Y772761D01*
X184742Y772850D01*
X184792Y772937D01*
X184846Y773023D01*
X184903Y773106D01*
X184963Y773186D01*
X185026Y773265D01*
X185093Y773341D01*
X185162Y773414D01*
X185234Y773484D01*
X185308Y773552D01*
X185385Y773617D01*
X185465Y773678D01*
X185547Y773737D01*
X185631Y773792D01*
X185717Y773844D01*
X185805Y773893D01*
X185895Y773938D01*
X185987Y773980D01*
X186080Y774018D01*
X186175Y774052D01*
X186270Y774083D01*
X186367Y774110D01*
X186465Y774133D01*
X186564Y774153D01*
X186664Y774168D01*
X186764Y774180D01*
X186864Y774188D01*
X186965Y774192D01*
X187065Y774192D01*
X187166Y774188D01*
X187266Y774180D01*
X187366Y774168D01*
X187466Y774153D01*
X187565Y774133D01*
X187663Y774110D01*
X187760Y774083D01*
X187855Y774052D01*
X187950Y774018D01*
X188043Y773980D01*
X188135Y773938D01*
X188225Y773893D01*
X188313Y773844D01*
X188399Y773792D01*
X188483Y773737D01*
X188565Y773678D01*
X188645Y773617D01*
X188722Y773552D01*
X188796Y773484D01*
X188868Y773414D01*
X188937Y773341D01*
X189004Y773265D01*
X189067Y773186D01*
X189127Y773106D01*
X189184Y773023D01*
X189238Y772937D01*
X189288Y772850D01*
X189335Y772761D01*
X189378Y772670D01*
X189418Y772578D01*
X189454Y772484D01*
X189487Y772389D01*
X189516Y772292D01*
X189541Y772195D01*
X189562Y772096D01*
X189580Y771997D01*
X189593Y771897D01*
X189603Y771797D01*
X189609Y771697D01*
X189611Y771596D01*
X189609Y771495D01*
X189603Y771395D01*
X189593Y771295D01*
X189580Y771195D01*
X189562Y771096D01*
X189541Y770997D01*
X189516Y770900D01*
X189487Y770803D01*
X189454Y770708D01*
X189418Y770614D01*
X189378Y770522D01*
X189335Y770431D01*
X189288Y770342D01*
X189238Y770255D01*
X189184Y770169D01*
X189127Y770086D01*
X189067Y770006D01*
X189004Y769927D01*
X188937Y769851D01*
X188868Y769778D01*
X188796Y769708D01*
X188722Y769640D01*
X188645Y769575D01*
X188565Y769514D01*
X188483Y769455D01*
X188399Y769400D01*
X188313Y769348D01*
X188225Y769299D01*
X188135Y769254D01*
X188043Y769212D01*
X187950Y769174D01*
X187855Y769140D01*
X187760Y769109D01*
X187663Y769082D01*
X187565Y769059D01*
X187466Y769039D01*
X187366Y769024D01*
X187266Y769012D01*
X187166Y769004D01*
X187065Y769000D01*
X186965Y769000D01*
X186864Y769004D01*
X186764Y769012D01*
X186664Y769024D01*
X186564Y769039D01*
X186465Y769059D01*
X186367Y769082D01*
X186270Y769109D01*
X186175Y769140D01*
X186080Y769174D01*
X185987Y769212D01*
X185895Y769254D01*
X185805Y769299D01*
X185717Y769348D01*
X185631Y769400D01*
X185547Y769455D01*
X185465Y769514D01*
X185385Y769575D01*
X185308Y769640D01*
X185234Y769708D01*
X185162Y769778D01*
X185093Y769851D01*
X185026Y769927D01*
X184963Y770006D01*
X184903Y770086D01*
X184846Y770169D01*
X184792Y770255D01*
X184742Y770342D01*
X184695Y770431D01*
X184652Y770522D01*
X184612Y770614D01*
X184576Y770708D01*
X184543Y770803D01*
X184514Y770900D01*
X184489Y770997D01*
X184468Y771096D01*
X184450Y771195D01*
X184437Y771295D01*
X184427Y771395D01*
X184421Y771495D01*
X184419Y771596D01*
D12*
X139700Y863600D02*
X139700Y876300D01*
X139700Y889000D01*
X139700Y901700D01*
X139700Y914400D01*
X139700Y927100D01*
X139700Y939800D01*
X146050Y755650D02*
X139700Y749300D01*
X139700Y736600D02*
X146050Y730250D01*
X158750Y730250D01*
X165100Y736600D01*
X165100Y749300D01*
X158750Y755650D01*
D10*
X171958Y737108D02*
X175204Y737108D01*
X175317Y737110D01*
X175430Y737116D01*
X175543Y737126D01*
X175656Y737140D01*
X175768Y737157D01*
X175879Y737179D01*
X175989Y737204D01*
X176099Y737234D01*
X176207Y737267D01*
X176314Y737304D01*
X176420Y737344D01*
X176524Y737389D01*
X176627Y737437D01*
X176728Y737488D01*
X176827Y737543D01*
X176924Y737601D01*
X177019Y737663D01*
X177112Y737728D01*
X177202Y737796D01*
X177290Y737867D01*
X177376Y737942D01*
X177459Y738019D01*
X177539Y738099D01*
X177616Y738182D01*
X177691Y738268D01*
X177762Y738356D01*
X177830Y738446D01*
X177895Y738539D01*
X177957Y738634D01*
X178015Y738731D01*
X178070Y738830D01*
X178121Y738931D01*
X178169Y739034D01*
X178214Y739138D01*
X178254Y739244D01*
X178291Y739351D01*
X178324Y739459D01*
X178354Y739569D01*
X178379Y739679D01*
X178401Y739790D01*
X178418Y739902D01*
X178432Y740015D01*
X178442Y740128D01*
X178448Y740241D01*
X178450Y740354D01*
X178448Y740467D01*
X178442Y740580D01*
X178432Y740693D01*
X178418Y740806D01*
X178401Y740918D01*
X178379Y741029D01*
X178354Y741139D01*
X178324Y741249D01*
X178291Y741357D01*
X178254Y741464D01*
X178214Y741570D01*
X178169Y741674D01*
X178121Y741777D01*
X178070Y741878D01*
X178015Y741977D01*
X177957Y742074D01*
X177895Y742169D01*
X177830Y742262D01*
X177762Y742352D01*
X177691Y742440D01*
X177616Y742526D01*
X177539Y742609D01*
X177459Y742689D01*
X177376Y742766D01*
X177290Y742841D01*
X177202Y742912D01*
X177112Y742980D01*
X177019Y743045D01*
X176924Y743107D01*
X176827Y743165D01*
X176728Y743220D01*
X176627Y743271D01*
X176524Y743319D01*
X176420Y743364D01*
X176314Y743404D01*
X176207Y743441D01*
X176099Y743474D01*
X175989Y743504D01*
X175879Y743529D01*
X175768Y743551D01*
X175656Y743568D01*
X175543Y743582D01*
X175430Y743592D01*
X175317Y743598D01*
X175204Y743600D01*
X175853Y748792D02*
X171958Y748792D01*
X175853Y748792D02*
X175954Y748790D01*
X176054Y748784D01*
X176154Y748774D01*
X176254Y748761D01*
X176353Y748743D01*
X176452Y748722D01*
X176549Y748697D01*
X176646Y748668D01*
X176741Y748635D01*
X176835Y748599D01*
X176927Y748559D01*
X177018Y748516D01*
X177107Y748469D01*
X177194Y748419D01*
X177280Y748365D01*
X177363Y748308D01*
X177443Y748248D01*
X177522Y748185D01*
X177598Y748118D01*
X177671Y748049D01*
X177741Y747977D01*
X177809Y747903D01*
X177874Y747826D01*
X177935Y747746D01*
X177994Y747664D01*
X178049Y747580D01*
X178101Y747494D01*
X178150Y747406D01*
X178195Y747316D01*
X178237Y747224D01*
X178275Y747131D01*
X178309Y747036D01*
X178340Y746941D01*
X178367Y746844D01*
X178390Y746746D01*
X178410Y746647D01*
X178425Y746547D01*
X178437Y746447D01*
X178445Y746347D01*
X178449Y746246D01*
X178449Y746146D01*
X178445Y746045D01*
X178437Y745945D01*
X178425Y745845D01*
X178410Y745745D01*
X178390Y745646D01*
X178367Y745548D01*
X178340Y745451D01*
X178309Y745356D01*
X178275Y745261D01*
X178237Y745168D01*
X178195Y745076D01*
X178150Y744986D01*
X178101Y744898D01*
X178049Y744812D01*
X177994Y744728D01*
X177935Y744646D01*
X177874Y744566D01*
X177809Y744489D01*
X177741Y744415D01*
X177671Y744343D01*
X177598Y744274D01*
X177522Y744207D01*
X177443Y744144D01*
X177363Y744084D01*
X177280Y744027D01*
X177194Y743973D01*
X177107Y743923D01*
X177018Y743876D01*
X176927Y743833D01*
X176835Y743793D01*
X176741Y743757D01*
X176646Y743724D01*
X176549Y743695D01*
X176452Y743670D01*
X176353Y743649D01*
X176254Y743631D01*
X176154Y743618D01*
X176054Y743608D01*
X175954Y743602D01*
X175853Y743600D01*
X175853Y743599D02*
X173256Y743599D01*
X182739Y748792D02*
X186634Y737108D01*
X190528Y748792D01*
X194818Y737108D02*
X198064Y737108D01*
X198177Y737110D01*
X198290Y737116D01*
X198403Y737126D01*
X198516Y737140D01*
X198628Y737157D01*
X198739Y737179D01*
X198849Y737204D01*
X198959Y737234D01*
X199067Y737267D01*
X199174Y737304D01*
X199280Y737344D01*
X199384Y737389D01*
X199487Y737437D01*
X199588Y737488D01*
X199687Y737543D01*
X199784Y737601D01*
X199879Y737663D01*
X199972Y737728D01*
X200062Y737796D01*
X200150Y737867D01*
X200236Y737942D01*
X200319Y738019D01*
X200399Y738099D01*
X200476Y738182D01*
X200551Y738268D01*
X200622Y738356D01*
X200690Y738446D01*
X200755Y738539D01*
X200817Y738634D01*
X200875Y738731D01*
X200930Y738830D01*
X200981Y738931D01*
X201029Y739034D01*
X201074Y739138D01*
X201114Y739244D01*
X201151Y739351D01*
X201184Y739459D01*
X201214Y739569D01*
X201239Y739679D01*
X201261Y739790D01*
X201278Y739902D01*
X201292Y740015D01*
X201302Y740128D01*
X201308Y740241D01*
X201310Y740354D01*
X201308Y740467D01*
X201302Y740580D01*
X201292Y740693D01*
X201278Y740806D01*
X201261Y740918D01*
X201239Y741029D01*
X201214Y741139D01*
X201184Y741249D01*
X201151Y741357D01*
X201114Y741464D01*
X201074Y741570D01*
X201029Y741674D01*
X200981Y741777D01*
X200930Y741878D01*
X200875Y741977D01*
X200817Y742074D01*
X200755Y742169D01*
X200690Y742262D01*
X200622Y742352D01*
X200551Y742440D01*
X200476Y742526D01*
X200399Y742609D01*
X200319Y742689D01*
X200236Y742766D01*
X200150Y742841D01*
X200062Y742912D01*
X199972Y742980D01*
X199879Y743045D01*
X199784Y743107D01*
X199687Y743165D01*
X199588Y743220D01*
X199487Y743271D01*
X199384Y743319D01*
X199280Y743364D01*
X199174Y743404D01*
X199067Y743441D01*
X198959Y743474D01*
X198849Y743504D01*
X198739Y743529D01*
X198628Y743551D01*
X198516Y743568D01*
X198403Y743582D01*
X198290Y743592D01*
X198177Y743598D01*
X198064Y743600D01*
X198713Y748792D02*
X194818Y748792D01*
X198713Y748792D02*
X198814Y748790D01*
X198914Y748784D01*
X199014Y748774D01*
X199114Y748761D01*
X199213Y748743D01*
X199312Y748722D01*
X199409Y748697D01*
X199506Y748668D01*
X199601Y748635D01*
X199695Y748599D01*
X199787Y748559D01*
X199878Y748516D01*
X199967Y748469D01*
X200054Y748419D01*
X200140Y748365D01*
X200223Y748308D01*
X200303Y748248D01*
X200382Y748185D01*
X200458Y748118D01*
X200531Y748049D01*
X200601Y747977D01*
X200669Y747903D01*
X200734Y747826D01*
X200795Y747746D01*
X200854Y747664D01*
X200909Y747580D01*
X200961Y747494D01*
X201010Y747406D01*
X201055Y747316D01*
X201097Y747224D01*
X201135Y747131D01*
X201169Y747036D01*
X201200Y746941D01*
X201227Y746844D01*
X201250Y746746D01*
X201270Y746647D01*
X201285Y746547D01*
X201297Y746447D01*
X201305Y746347D01*
X201309Y746246D01*
X201309Y746146D01*
X201305Y746045D01*
X201297Y745945D01*
X201285Y745845D01*
X201270Y745745D01*
X201250Y745646D01*
X201227Y745548D01*
X201200Y745451D01*
X201169Y745356D01*
X201135Y745261D01*
X201097Y745168D01*
X201055Y745076D01*
X201010Y744986D01*
X200961Y744898D01*
X200909Y744812D01*
X200854Y744728D01*
X200795Y744646D01*
X200734Y744566D01*
X200669Y744489D01*
X200601Y744415D01*
X200531Y744343D01*
X200458Y744274D01*
X200382Y744207D01*
X200303Y744144D01*
X200223Y744084D01*
X200140Y744027D01*
X200054Y743973D01*
X199967Y743923D01*
X199878Y743876D01*
X199787Y743833D01*
X199695Y743793D01*
X199601Y743757D01*
X199506Y743724D01*
X199409Y743695D01*
X199312Y743670D01*
X199213Y743649D01*
X199114Y743631D01*
X199014Y743618D01*
X198914Y743608D01*
X198814Y743602D01*
X198713Y743600D01*
X198713Y743599D02*
X196116Y743599D01*
X171958Y864108D02*
X171958Y875792D01*
X175204Y875792D01*
X175317Y875790D01*
X175430Y875784D01*
X175543Y875774D01*
X175656Y875760D01*
X175768Y875743D01*
X175879Y875721D01*
X175989Y875696D01*
X176099Y875666D01*
X176207Y875633D01*
X176314Y875596D01*
X176420Y875556D01*
X176524Y875511D01*
X176627Y875463D01*
X176728Y875412D01*
X176827Y875357D01*
X176924Y875299D01*
X177019Y875237D01*
X177112Y875172D01*
X177202Y875104D01*
X177290Y875033D01*
X177376Y874958D01*
X177459Y874881D01*
X177539Y874801D01*
X177616Y874718D01*
X177691Y874632D01*
X177762Y874544D01*
X177830Y874454D01*
X177895Y874361D01*
X177957Y874266D01*
X178015Y874169D01*
X178070Y874070D01*
X178121Y873969D01*
X178169Y873866D01*
X178214Y873762D01*
X178254Y873656D01*
X178291Y873549D01*
X178324Y873441D01*
X178354Y873331D01*
X178379Y873221D01*
X178401Y873110D01*
X178418Y872998D01*
X178432Y872885D01*
X178442Y872772D01*
X178448Y872659D01*
X178450Y872546D01*
X178449Y872546D02*
X178449Y867354D01*
X178450Y867354D02*
X178448Y867241D01*
X178442Y867128D01*
X178432Y867015D01*
X178418Y866902D01*
X178401Y866790D01*
X178379Y866679D01*
X178354Y866569D01*
X178324Y866459D01*
X178291Y866351D01*
X178254Y866244D01*
X178214Y866138D01*
X178169Y866034D01*
X178121Y865931D01*
X178070Y865830D01*
X178015Y865731D01*
X177957Y865634D01*
X177895Y865539D01*
X177830Y865446D01*
X177762Y865356D01*
X177691Y865268D01*
X177616Y865182D01*
X177539Y865099D01*
X177459Y865019D01*
X177376Y864942D01*
X177290Y864867D01*
X177202Y864796D01*
X177112Y864728D01*
X177019Y864663D01*
X176924Y864601D01*
X176827Y864543D01*
X176728Y864488D01*
X176627Y864437D01*
X176524Y864389D01*
X176420Y864344D01*
X176314Y864304D01*
X176207Y864267D01*
X176099Y864234D01*
X175989Y864204D01*
X175879Y864179D01*
X175768Y864157D01*
X175656Y864140D01*
X175543Y864126D01*
X175430Y864116D01*
X175317Y864110D01*
X175204Y864108D01*
X171958Y864108D01*
X183769Y869950D02*
X183772Y870180D01*
X183780Y870410D01*
X183794Y870639D01*
X183813Y870868D01*
X183838Y871097D01*
X183868Y871324D01*
X183903Y871552D01*
X183944Y871778D01*
X183990Y872003D01*
X184042Y872227D01*
X184099Y872449D01*
X184161Y872671D01*
X184229Y872890D01*
X184302Y873108D01*
X184380Y873325D01*
X184463Y873539D01*
X184551Y873751D01*
X184644Y873961D01*
X184743Y874169D01*
X184776Y874259D01*
X184812Y874348D01*
X184852Y874436D01*
X184896Y874521D01*
X184943Y874605D01*
X184993Y874687D01*
X185047Y874767D01*
X185103Y874844D01*
X185163Y874920D01*
X185226Y874993D01*
X185291Y875063D01*
X185360Y875131D01*
X185431Y875195D01*
X185504Y875257D01*
X185580Y875316D01*
X185658Y875372D01*
X185739Y875425D01*
X185821Y875474D01*
X185905Y875520D01*
X185992Y875563D01*
X186079Y875602D01*
X186169Y875638D01*
X186259Y875670D01*
X186351Y875698D01*
X186444Y875723D01*
X186538Y875744D01*
X186632Y875761D01*
X186727Y875775D01*
X186823Y875784D01*
X186919Y875790D01*
X187015Y875792D01*
X187111Y875790D01*
X187207Y875784D01*
X187303Y875775D01*
X187398Y875761D01*
X187492Y875744D01*
X187586Y875723D01*
X187679Y875698D01*
X187771Y875670D01*
X187861Y875638D01*
X187951Y875602D01*
X188038Y875563D01*
X188125Y875520D01*
X188209Y875474D01*
X188291Y875425D01*
X188372Y875372D01*
X188450Y875316D01*
X188526Y875257D01*
X188599Y875195D01*
X188670Y875131D01*
X188739Y875063D01*
X188804Y874993D01*
X188867Y874920D01*
X188927Y874844D01*
X188983Y874767D01*
X189037Y874687D01*
X189087Y874605D01*
X189134Y874521D01*
X189178Y874436D01*
X189218Y874348D01*
X189254Y874259D01*
X189287Y874169D01*
X189386Y873962D01*
X189479Y873752D01*
X189567Y873539D01*
X189650Y873325D01*
X189728Y873109D01*
X189801Y872891D01*
X189869Y872671D01*
X189931Y872450D01*
X189988Y872227D01*
X190040Y872003D01*
X190086Y871778D01*
X190127Y871552D01*
X190162Y871325D01*
X190192Y871097D01*
X190217Y870868D01*
X190236Y870639D01*
X190250Y870410D01*
X190258Y870180D01*
X190261Y869950D01*
X183769Y869950D02*
X183772Y869720D01*
X183780Y869490D01*
X183794Y869261D01*
X183813Y869032D01*
X183838Y868803D01*
X183868Y868575D01*
X183903Y868348D01*
X183944Y868122D01*
X183990Y867897D01*
X184042Y867673D01*
X184099Y867450D01*
X184161Y867229D01*
X184229Y867009D01*
X184302Y866791D01*
X184380Y866575D01*
X184463Y866361D01*
X184551Y866149D01*
X184644Y865938D01*
X184743Y865731D01*
X184776Y865641D01*
X184812Y865552D01*
X184853Y865464D01*
X184896Y865379D01*
X184943Y865295D01*
X184993Y865213D01*
X185047Y865133D01*
X185103Y865056D01*
X185163Y864980D01*
X185226Y864907D01*
X185291Y864837D01*
X185360Y864769D01*
X185431Y864705D01*
X185504Y864643D01*
X185580Y864584D01*
X185658Y864528D01*
X185739Y864475D01*
X185821Y864426D01*
X185905Y864380D01*
X185992Y864337D01*
X186079Y864298D01*
X186169Y864262D01*
X186259Y864230D01*
X186351Y864202D01*
X186444Y864177D01*
X186538Y864156D01*
X186632Y864139D01*
X186727Y864125D01*
X186823Y864116D01*
X186919Y864110D01*
X187015Y864108D01*
X189286Y865731D02*
X189385Y865938D01*
X189478Y866149D01*
X189566Y866361D01*
X189649Y866575D01*
X189727Y866791D01*
X189800Y867009D01*
X189868Y867229D01*
X189930Y867450D01*
X189987Y867673D01*
X190039Y867897D01*
X190085Y868122D01*
X190126Y868348D01*
X190161Y868575D01*
X190191Y868803D01*
X190216Y869032D01*
X190235Y869261D01*
X190249Y869490D01*
X190257Y869720D01*
X190260Y869950D01*
X189287Y865731D02*
X189254Y865641D01*
X189218Y865552D01*
X189178Y865464D01*
X189134Y865379D01*
X189087Y865295D01*
X189037Y865213D01*
X188983Y865133D01*
X188927Y865056D01*
X188867Y864980D01*
X188804Y864907D01*
X188739Y864837D01*
X188670Y864769D01*
X188599Y864705D01*
X188526Y864643D01*
X188450Y864584D01*
X188372Y864528D01*
X188291Y864475D01*
X188209Y864426D01*
X188125Y864380D01*
X188038Y864337D01*
X187951Y864298D01*
X187861Y864262D01*
X187771Y864230D01*
X187679Y864202D01*
X187586Y864177D01*
X187492Y864156D01*
X187398Y864139D01*
X187303Y864125D01*
X187207Y864116D01*
X187111Y864110D01*
X187015Y864108D01*
X184418Y866704D02*
X189611Y873196D01*
X171958Y889508D02*
X175853Y901192D01*
X179747Y889508D01*
X178774Y892429D02*
X172932Y892429D01*
X184038Y895350D02*
X184041Y895580D01*
X184049Y895810D01*
X184063Y896039D01*
X184082Y896268D01*
X184107Y896497D01*
X184137Y896724D01*
X184172Y896952D01*
X184213Y897178D01*
X184259Y897403D01*
X184311Y897627D01*
X184368Y897849D01*
X184430Y898071D01*
X184498Y898290D01*
X184571Y898508D01*
X184649Y898725D01*
X184732Y898939D01*
X184820Y899151D01*
X184913Y899361D01*
X185012Y899569D01*
X185011Y899569D02*
X185044Y899659D01*
X185080Y899748D01*
X185120Y899836D01*
X185164Y899921D01*
X185211Y900005D01*
X185261Y900087D01*
X185315Y900167D01*
X185371Y900244D01*
X185431Y900320D01*
X185494Y900393D01*
X185559Y900463D01*
X185628Y900531D01*
X185699Y900595D01*
X185772Y900657D01*
X185848Y900716D01*
X185926Y900772D01*
X186007Y900825D01*
X186089Y900874D01*
X186173Y900920D01*
X186260Y900963D01*
X186347Y901002D01*
X186437Y901038D01*
X186527Y901070D01*
X186619Y901098D01*
X186712Y901123D01*
X186806Y901144D01*
X186900Y901161D01*
X186995Y901175D01*
X187091Y901184D01*
X187187Y901190D01*
X187283Y901192D01*
X187379Y901190D01*
X187475Y901184D01*
X187571Y901175D01*
X187666Y901161D01*
X187760Y901144D01*
X187854Y901123D01*
X187947Y901098D01*
X188039Y901070D01*
X188129Y901038D01*
X188219Y901002D01*
X188306Y900963D01*
X188393Y900920D01*
X188477Y900874D01*
X188559Y900825D01*
X188640Y900772D01*
X188718Y900716D01*
X188794Y900657D01*
X188867Y900595D01*
X188938Y900531D01*
X189007Y900463D01*
X189072Y900393D01*
X189135Y900320D01*
X189195Y900244D01*
X189251Y900167D01*
X189305Y900087D01*
X189355Y900005D01*
X189402Y899921D01*
X189446Y899836D01*
X189486Y899748D01*
X189522Y899659D01*
X189555Y899569D01*
X189654Y899362D01*
X189747Y899152D01*
X189835Y898939D01*
X189918Y898725D01*
X189996Y898509D01*
X190069Y898291D01*
X190137Y898071D01*
X190199Y897850D01*
X190256Y897627D01*
X190308Y897403D01*
X190354Y897178D01*
X190395Y896952D01*
X190430Y896725D01*
X190460Y896497D01*
X190485Y896268D01*
X190504Y896039D01*
X190518Y895810D01*
X190526Y895580D01*
X190529Y895350D01*
X184037Y895350D02*
X184040Y895120D01*
X184048Y894890D01*
X184062Y894661D01*
X184081Y894432D01*
X184106Y894203D01*
X184136Y893975D01*
X184171Y893748D01*
X184212Y893522D01*
X184258Y893297D01*
X184310Y893073D01*
X184367Y892850D01*
X184429Y892629D01*
X184497Y892409D01*
X184570Y892191D01*
X184648Y891975D01*
X184731Y891761D01*
X184819Y891549D01*
X184912Y891338D01*
X185011Y891131D01*
X185044Y891041D01*
X185080Y890952D01*
X185121Y890864D01*
X185164Y890779D01*
X185211Y890695D01*
X185261Y890613D01*
X185315Y890533D01*
X185371Y890456D01*
X185431Y890380D01*
X185494Y890307D01*
X185559Y890237D01*
X185628Y890169D01*
X185699Y890105D01*
X185772Y890043D01*
X185848Y889984D01*
X185926Y889928D01*
X186007Y889875D01*
X186089Y889826D01*
X186173Y889780D01*
X186260Y889737D01*
X186347Y889698D01*
X186437Y889662D01*
X186527Y889630D01*
X186619Y889602D01*
X186712Y889577D01*
X186806Y889556D01*
X186900Y889539D01*
X186995Y889525D01*
X187091Y889516D01*
X187187Y889510D01*
X187283Y889508D01*
X189554Y891131D02*
X189653Y891338D01*
X189746Y891549D01*
X189834Y891761D01*
X189917Y891975D01*
X189995Y892191D01*
X190068Y892409D01*
X190136Y892629D01*
X190198Y892850D01*
X190255Y893073D01*
X190307Y893297D01*
X190353Y893522D01*
X190394Y893748D01*
X190429Y893975D01*
X190459Y894203D01*
X190484Y894432D01*
X190503Y894661D01*
X190517Y894890D01*
X190525Y895120D01*
X190528Y895350D01*
X189555Y891131D02*
X189522Y891041D01*
X189486Y890952D01*
X189446Y890864D01*
X189402Y890779D01*
X189355Y890695D01*
X189305Y890613D01*
X189251Y890533D01*
X189195Y890456D01*
X189135Y890380D01*
X189072Y890307D01*
X189007Y890237D01*
X188938Y890169D01*
X188867Y890105D01*
X188794Y890043D01*
X188718Y889984D01*
X188640Y889928D01*
X188559Y889875D01*
X188477Y889826D01*
X188393Y889780D01*
X188306Y889737D01*
X188219Y889698D01*
X188129Y889662D01*
X188039Y889630D01*
X187947Y889602D01*
X187854Y889577D01*
X187760Y889556D01*
X187666Y889539D01*
X187571Y889525D01*
X187475Y889516D01*
X187379Y889510D01*
X187283Y889508D01*
X184686Y892104D02*
X189879Y898596D01*
X171958Y914908D02*
X171958Y926592D01*
X175204Y926592D01*
X175317Y926590D01*
X175430Y926584D01*
X175543Y926574D01*
X175656Y926560D01*
X175768Y926543D01*
X175879Y926521D01*
X175989Y926496D01*
X176099Y926466D01*
X176207Y926433D01*
X176314Y926396D01*
X176420Y926356D01*
X176524Y926311D01*
X176627Y926263D01*
X176728Y926212D01*
X176827Y926157D01*
X176924Y926099D01*
X177019Y926037D01*
X177112Y925972D01*
X177202Y925904D01*
X177290Y925833D01*
X177376Y925758D01*
X177459Y925681D01*
X177539Y925601D01*
X177616Y925518D01*
X177691Y925432D01*
X177762Y925344D01*
X177830Y925254D01*
X177895Y925161D01*
X177957Y925066D01*
X178015Y924969D01*
X178070Y924870D01*
X178121Y924769D01*
X178169Y924666D01*
X178214Y924562D01*
X178254Y924456D01*
X178291Y924349D01*
X178324Y924241D01*
X178354Y924131D01*
X178379Y924021D01*
X178401Y923910D01*
X178418Y923798D01*
X178432Y923685D01*
X178442Y923572D01*
X178448Y923459D01*
X178450Y923346D01*
X178448Y923233D01*
X178442Y923120D01*
X178432Y923007D01*
X178418Y922894D01*
X178401Y922782D01*
X178379Y922671D01*
X178354Y922561D01*
X178324Y922451D01*
X178291Y922343D01*
X178254Y922236D01*
X178214Y922130D01*
X178169Y922026D01*
X178121Y921923D01*
X178070Y921822D01*
X178015Y921723D01*
X177957Y921626D01*
X177895Y921531D01*
X177830Y921438D01*
X177762Y921348D01*
X177691Y921260D01*
X177616Y921174D01*
X177539Y921091D01*
X177459Y921011D01*
X177376Y920934D01*
X177290Y920859D01*
X177202Y920788D01*
X177112Y920720D01*
X177019Y920655D01*
X176924Y920593D01*
X176827Y920535D01*
X176728Y920480D01*
X176627Y920429D01*
X176524Y920381D01*
X176420Y920336D01*
X176314Y920296D01*
X176207Y920259D01*
X176099Y920226D01*
X175989Y920196D01*
X175879Y920171D01*
X175768Y920149D01*
X175656Y920132D01*
X175543Y920118D01*
X175430Y920108D01*
X175317Y920102D01*
X175204Y920100D01*
X175204Y920101D02*
X171958Y920101D01*
X175853Y920101D02*
X178449Y914908D01*
X186828Y914908D02*
X186927Y914910D01*
X187027Y914916D01*
X187126Y914925D01*
X187224Y914938D01*
X187322Y914955D01*
X187420Y914976D01*
X187516Y915001D01*
X187611Y915029D01*
X187705Y915061D01*
X187798Y915096D01*
X187890Y915135D01*
X187980Y915178D01*
X188068Y915223D01*
X188155Y915273D01*
X188239Y915325D01*
X188322Y915381D01*
X188402Y915439D01*
X188480Y915501D01*
X188555Y915566D01*
X188628Y915634D01*
X188698Y915704D01*
X188766Y915777D01*
X188831Y915852D01*
X188893Y915930D01*
X188951Y916010D01*
X189007Y916093D01*
X189059Y916177D01*
X189109Y916264D01*
X189154Y916352D01*
X189197Y916442D01*
X189236Y916534D01*
X189271Y916627D01*
X189303Y916721D01*
X189331Y916816D01*
X189356Y916912D01*
X189377Y917010D01*
X189394Y917108D01*
X189407Y917206D01*
X189416Y917305D01*
X189422Y917405D01*
X189424Y917504D01*
X186828Y914908D02*
X186684Y914910D01*
X186539Y914916D01*
X186395Y914925D01*
X186252Y914938D01*
X186108Y914955D01*
X185965Y914976D01*
X185823Y915001D01*
X185682Y915029D01*
X185541Y915061D01*
X185401Y915097D01*
X185262Y915136D01*
X185124Y915179D01*
X184988Y915226D01*
X184852Y915276D01*
X184718Y915330D01*
X184586Y915387D01*
X184455Y915448D01*
X184326Y915512D01*
X184198Y915580D01*
X184072Y915650D01*
X183948Y915725D01*
X183827Y915802D01*
X183707Y915883D01*
X183589Y915966D01*
X183474Y916053D01*
X183361Y916143D01*
X183250Y916236D01*
X183142Y916331D01*
X183036Y916430D01*
X182933Y916531D01*
X183258Y923996D02*
X183260Y924095D01*
X183266Y924195D01*
X183275Y924294D01*
X183288Y924392D01*
X183305Y924490D01*
X183326Y924588D01*
X183351Y924684D01*
X183379Y924779D01*
X183411Y924873D01*
X183446Y924966D01*
X183485Y925058D01*
X183528Y925148D01*
X183573Y925236D01*
X183623Y925323D01*
X183675Y925407D01*
X183731Y925490D01*
X183789Y925570D01*
X183851Y925648D01*
X183916Y925723D01*
X183984Y925796D01*
X184054Y925866D01*
X184127Y925934D01*
X184202Y925999D01*
X184280Y926061D01*
X184360Y926119D01*
X184443Y926175D01*
X184527Y926227D01*
X184614Y926277D01*
X184702Y926322D01*
X184792Y926365D01*
X184884Y926404D01*
X184977Y926439D01*
X185071Y926471D01*
X185166Y926499D01*
X185263Y926524D01*
X185360Y926545D01*
X185458Y926562D01*
X185556Y926575D01*
X185655Y926584D01*
X185755Y926590D01*
X185854Y926592D01*
X185990Y926590D01*
X186126Y926584D01*
X186262Y926575D01*
X186398Y926562D01*
X186533Y926544D01*
X186667Y926524D01*
X186801Y926499D01*
X186935Y926471D01*
X187067Y926438D01*
X187198Y926403D01*
X187329Y926363D01*
X187458Y926320D01*
X187586Y926274D01*
X187712Y926223D01*
X187838Y926170D01*
X187961Y926112D01*
X188083Y926052D01*
X188203Y925988D01*
X188322Y925920D01*
X188438Y925850D01*
X188552Y925776D01*
X188665Y925699D01*
X188775Y925618D01*
X184556Y921724D02*
X184470Y921777D01*
X184386Y921834D01*
X184304Y921893D01*
X184224Y921956D01*
X184147Y922022D01*
X184072Y922090D01*
X184000Y922162D01*
X183931Y922236D01*
X183865Y922313D01*
X183802Y922392D01*
X183742Y922474D01*
X183685Y922558D01*
X183631Y922644D01*
X183581Y922732D01*
X183534Y922822D01*
X183490Y922913D01*
X183451Y923007D01*
X183414Y923101D01*
X183382Y923197D01*
X183353Y923295D01*
X183328Y923393D01*
X183307Y923492D01*
X183289Y923592D01*
X183276Y923692D01*
X183266Y923793D01*
X183260Y923895D01*
X183258Y923996D01*
X188126Y919776D02*
X188212Y919723D01*
X188296Y919666D01*
X188378Y919607D01*
X188458Y919544D01*
X188535Y919478D01*
X188610Y919410D01*
X188682Y919338D01*
X188751Y919264D01*
X188817Y919187D01*
X188880Y919108D01*
X188940Y919026D01*
X188997Y918942D01*
X189051Y918856D01*
X189101Y918768D01*
X189148Y918678D01*
X189192Y918587D01*
X189231Y918493D01*
X189268Y918399D01*
X189300Y918303D01*
X189329Y918205D01*
X189354Y918107D01*
X189375Y918008D01*
X189393Y917908D01*
X189406Y917808D01*
X189416Y917707D01*
X189422Y917605D01*
X189424Y917504D01*
X188126Y919776D02*
X184556Y921724D01*
X196466Y926592D02*
X196466Y914908D01*
X193220Y926592D02*
X199711Y926592D01*
D12*
X387350Y857250D02*
X393700Y850900D01*
X393700Y838200D02*
X387350Y831850D01*
X393700Y825500D01*
X393700Y812800D02*
X387350Y806450D01*
X393700Y800100D01*
X393700Y787400D02*
X387350Y781050D01*
X393700Y774700D01*
X393700Y762000D02*
X387350Y755650D01*
X368300Y850900D02*
X374650Y857250D01*
X368300Y838200D02*
X374650Y831850D01*
X368300Y825500D01*
X368300Y812800D02*
X374650Y806450D01*
X368300Y800100D01*
X368300Y787400D02*
X374650Y781050D01*
X368300Y774700D01*
X368300Y762000D02*
X374650Y755650D01*
X368300Y749300D01*
X368300Y736600D02*
X374650Y730250D01*
X387350Y730250D01*
X393700Y736600D01*
X393700Y749300D02*
X387350Y755650D01*
D10*
X346879Y914908D02*
X346879Y926592D01*
X343634Y926592D02*
X350125Y926592D01*
X361442Y926592D02*
X353653Y914908D01*
X361442Y914908D02*
X353653Y926592D01*
X342945Y901192D02*
X342945Y889508D01*
X342945Y901192D02*
X346191Y901192D01*
X346304Y901190D01*
X346417Y901184D01*
X346530Y901174D01*
X346643Y901160D01*
X346755Y901143D01*
X346866Y901121D01*
X346976Y901096D01*
X347086Y901066D01*
X347194Y901033D01*
X347301Y900996D01*
X347407Y900956D01*
X347511Y900911D01*
X347614Y900863D01*
X347715Y900812D01*
X347814Y900757D01*
X347911Y900699D01*
X348006Y900637D01*
X348099Y900572D01*
X348189Y900504D01*
X348277Y900433D01*
X348363Y900358D01*
X348446Y900281D01*
X348526Y900201D01*
X348603Y900118D01*
X348678Y900032D01*
X348749Y899944D01*
X348817Y899854D01*
X348882Y899761D01*
X348944Y899666D01*
X349002Y899569D01*
X349057Y899470D01*
X349108Y899369D01*
X349156Y899266D01*
X349201Y899162D01*
X349241Y899056D01*
X349278Y898949D01*
X349311Y898841D01*
X349341Y898731D01*
X349366Y898621D01*
X349388Y898510D01*
X349405Y898398D01*
X349419Y898285D01*
X349429Y898172D01*
X349435Y898059D01*
X349437Y897946D01*
X349435Y897833D01*
X349429Y897720D01*
X349419Y897607D01*
X349405Y897494D01*
X349388Y897382D01*
X349366Y897271D01*
X349341Y897161D01*
X349311Y897051D01*
X349278Y896943D01*
X349241Y896836D01*
X349201Y896730D01*
X349156Y896626D01*
X349108Y896523D01*
X349057Y896422D01*
X349002Y896323D01*
X348944Y896226D01*
X348882Y896131D01*
X348817Y896038D01*
X348749Y895948D01*
X348678Y895860D01*
X348603Y895774D01*
X348526Y895691D01*
X348446Y895611D01*
X348363Y895534D01*
X348277Y895459D01*
X348189Y895388D01*
X348099Y895320D01*
X348006Y895255D01*
X347911Y895193D01*
X347814Y895135D01*
X347715Y895080D01*
X347614Y895029D01*
X347511Y894981D01*
X347407Y894936D01*
X347301Y894896D01*
X347194Y894859D01*
X347086Y894826D01*
X346976Y894796D01*
X346866Y894771D01*
X346755Y894749D01*
X346643Y894732D01*
X346530Y894718D01*
X346417Y894708D01*
X346304Y894702D01*
X346191Y894700D01*
X346191Y894701D02*
X342945Y894701D01*
X346840Y894701D02*
X349437Y889508D01*
X353653Y889508D02*
X361442Y901192D01*
X353653Y901192D02*
X361442Y889508D01*
X343140Y875792D02*
X343140Y864108D01*
X343140Y875792D02*
X346385Y875792D01*
X346498Y875790D01*
X346611Y875784D01*
X346724Y875774D01*
X346837Y875760D01*
X346949Y875743D01*
X347060Y875721D01*
X347170Y875696D01*
X347280Y875666D01*
X347388Y875633D01*
X347495Y875596D01*
X347601Y875556D01*
X347705Y875511D01*
X347808Y875463D01*
X347909Y875412D01*
X348008Y875357D01*
X348105Y875299D01*
X348200Y875237D01*
X348293Y875172D01*
X348383Y875104D01*
X348471Y875033D01*
X348557Y874958D01*
X348640Y874881D01*
X348720Y874801D01*
X348797Y874718D01*
X348872Y874632D01*
X348943Y874544D01*
X349011Y874454D01*
X349076Y874361D01*
X349138Y874266D01*
X349196Y874169D01*
X349251Y874070D01*
X349302Y873969D01*
X349350Y873866D01*
X349395Y873762D01*
X349435Y873656D01*
X349472Y873549D01*
X349505Y873441D01*
X349535Y873331D01*
X349560Y873221D01*
X349582Y873110D01*
X349599Y872998D01*
X349613Y872885D01*
X349623Y872772D01*
X349629Y872659D01*
X349631Y872546D01*
X349631Y867354D01*
X349632Y867354D02*
X349630Y867241D01*
X349624Y867128D01*
X349614Y867015D01*
X349600Y866902D01*
X349583Y866790D01*
X349561Y866679D01*
X349536Y866569D01*
X349506Y866459D01*
X349473Y866351D01*
X349436Y866244D01*
X349396Y866138D01*
X349351Y866034D01*
X349303Y865931D01*
X349252Y865830D01*
X349197Y865731D01*
X349139Y865634D01*
X349077Y865539D01*
X349012Y865446D01*
X348944Y865356D01*
X348873Y865268D01*
X348798Y865182D01*
X348721Y865099D01*
X348641Y865019D01*
X348558Y864942D01*
X348472Y864867D01*
X348384Y864796D01*
X348294Y864728D01*
X348201Y864663D01*
X348106Y864601D01*
X348009Y864543D01*
X347910Y864488D01*
X347809Y864437D01*
X347706Y864389D01*
X347602Y864344D01*
X347496Y864304D01*
X347389Y864267D01*
X347281Y864234D01*
X347171Y864204D01*
X347061Y864179D01*
X346950Y864157D01*
X346838Y864140D01*
X346725Y864126D01*
X346612Y864116D01*
X346499Y864110D01*
X346386Y864108D01*
X346385Y864108D02*
X343140Y864108D01*
X354951Y873196D02*
X358196Y875792D01*
X358196Y864108D01*
X354951Y864108D02*
X361442Y864108D01*
X343140Y850392D02*
X343140Y838708D01*
X343140Y850392D02*
X346385Y850392D01*
X346498Y850390D01*
X346611Y850384D01*
X346724Y850374D01*
X346837Y850360D01*
X346949Y850343D01*
X347060Y850321D01*
X347170Y850296D01*
X347280Y850266D01*
X347388Y850233D01*
X347495Y850196D01*
X347601Y850156D01*
X347705Y850111D01*
X347808Y850063D01*
X347909Y850012D01*
X348008Y849957D01*
X348105Y849899D01*
X348200Y849837D01*
X348293Y849772D01*
X348383Y849704D01*
X348471Y849633D01*
X348557Y849558D01*
X348640Y849481D01*
X348720Y849401D01*
X348797Y849318D01*
X348872Y849232D01*
X348943Y849144D01*
X349011Y849054D01*
X349076Y848961D01*
X349138Y848866D01*
X349196Y848769D01*
X349251Y848670D01*
X349302Y848569D01*
X349350Y848466D01*
X349395Y848362D01*
X349435Y848256D01*
X349472Y848149D01*
X349505Y848041D01*
X349535Y847931D01*
X349560Y847821D01*
X349582Y847710D01*
X349599Y847598D01*
X349613Y847485D01*
X349623Y847372D01*
X349629Y847259D01*
X349631Y847146D01*
X349631Y841954D01*
X349632Y841954D02*
X349630Y841841D01*
X349624Y841728D01*
X349614Y841615D01*
X349600Y841502D01*
X349583Y841390D01*
X349561Y841279D01*
X349536Y841169D01*
X349506Y841059D01*
X349473Y840951D01*
X349436Y840844D01*
X349396Y840738D01*
X349351Y840634D01*
X349303Y840531D01*
X349252Y840430D01*
X349197Y840331D01*
X349139Y840234D01*
X349077Y840139D01*
X349012Y840046D01*
X348944Y839956D01*
X348873Y839868D01*
X348798Y839782D01*
X348721Y839699D01*
X348641Y839619D01*
X348558Y839542D01*
X348472Y839467D01*
X348384Y839396D01*
X348294Y839328D01*
X348201Y839263D01*
X348106Y839201D01*
X348009Y839143D01*
X347910Y839088D01*
X347809Y839037D01*
X347706Y838989D01*
X347602Y838944D01*
X347496Y838904D01*
X347389Y838867D01*
X347281Y838834D01*
X347171Y838804D01*
X347061Y838779D01*
X346950Y838757D01*
X346838Y838740D01*
X346725Y838726D01*
X346612Y838716D01*
X346499Y838710D01*
X346386Y838708D01*
X346385Y838708D02*
X343140Y838708D01*
X358521Y850392D02*
X358628Y850390D01*
X358734Y850384D01*
X358840Y850374D01*
X358946Y850361D01*
X359052Y850343D01*
X359156Y850322D01*
X359260Y850297D01*
X359363Y850268D01*
X359464Y850236D01*
X359564Y850199D01*
X359663Y850159D01*
X359761Y850116D01*
X359857Y850069D01*
X359951Y850018D01*
X360043Y849964D01*
X360133Y849907D01*
X360221Y849847D01*
X360306Y849783D01*
X360389Y849716D01*
X360470Y849646D01*
X360548Y849574D01*
X360624Y849498D01*
X360696Y849420D01*
X360766Y849339D01*
X360833Y849256D01*
X360897Y849171D01*
X360957Y849083D01*
X361014Y848993D01*
X361068Y848901D01*
X361119Y848807D01*
X361166Y848711D01*
X361209Y848613D01*
X361249Y848514D01*
X361286Y848414D01*
X361318Y848313D01*
X361347Y848210D01*
X361372Y848106D01*
X361393Y848002D01*
X361411Y847896D01*
X361424Y847790D01*
X361434Y847684D01*
X361440Y847578D01*
X361442Y847471D01*
X358521Y850392D02*
X358400Y850390D01*
X358279Y850384D01*
X358159Y850374D01*
X358038Y850361D01*
X357919Y850343D01*
X357799Y850322D01*
X357681Y850297D01*
X357564Y850268D01*
X357447Y850235D01*
X357332Y850199D01*
X357218Y850158D01*
X357105Y850115D01*
X356993Y850067D01*
X356884Y850016D01*
X356776Y849961D01*
X356669Y849903D01*
X356565Y849842D01*
X356463Y849777D01*
X356363Y849709D01*
X356265Y849638D01*
X356169Y849564D01*
X356076Y849487D01*
X355986Y849406D01*
X355898Y849323D01*
X355813Y849237D01*
X355730Y849148D01*
X355651Y849057D01*
X355574Y848963D01*
X355501Y848867D01*
X355431Y848769D01*
X355364Y848668D01*
X355300Y848565D01*
X355240Y848460D01*
X355183Y848353D01*
X355129Y848245D01*
X355079Y848135D01*
X355033Y848023D01*
X354990Y847910D01*
X354951Y847795D01*
X360469Y845199D02*
X360548Y845276D01*
X360624Y845357D01*
X360697Y845440D01*
X360767Y845525D01*
X360834Y845613D01*
X360898Y845703D01*
X360958Y845795D01*
X361015Y845890D01*
X361069Y845986D01*
X361120Y846084D01*
X361167Y846184D01*
X361211Y846286D01*
X361251Y846389D01*
X361287Y846493D01*
X361319Y846599D01*
X361348Y846705D01*
X361373Y846813D01*
X361395Y846921D01*
X361412Y847031D01*
X361426Y847140D01*
X361435Y847250D01*
X361441Y847361D01*
X361443Y847471D01*
X360468Y845199D02*
X354951Y838708D01*
X361442Y838708D01*
X343140Y824992D02*
X343140Y813308D01*
X343140Y824992D02*
X346385Y824992D01*
X346498Y824990D01*
X346611Y824984D01*
X346724Y824974D01*
X346837Y824960D01*
X346949Y824943D01*
X347060Y824921D01*
X347170Y824896D01*
X347280Y824866D01*
X347388Y824833D01*
X347495Y824796D01*
X347601Y824756D01*
X347705Y824711D01*
X347808Y824663D01*
X347909Y824612D01*
X348008Y824557D01*
X348105Y824499D01*
X348200Y824437D01*
X348293Y824372D01*
X348383Y824304D01*
X348471Y824233D01*
X348557Y824158D01*
X348640Y824081D01*
X348720Y824001D01*
X348797Y823918D01*
X348872Y823832D01*
X348943Y823744D01*
X349011Y823654D01*
X349076Y823561D01*
X349138Y823466D01*
X349196Y823369D01*
X349251Y823270D01*
X349302Y823169D01*
X349350Y823066D01*
X349395Y822962D01*
X349435Y822856D01*
X349472Y822749D01*
X349505Y822641D01*
X349535Y822531D01*
X349560Y822421D01*
X349582Y822310D01*
X349599Y822198D01*
X349613Y822085D01*
X349623Y821972D01*
X349629Y821859D01*
X349631Y821746D01*
X349631Y816554D01*
X349632Y816554D02*
X349630Y816441D01*
X349624Y816328D01*
X349614Y816215D01*
X349600Y816102D01*
X349583Y815990D01*
X349561Y815879D01*
X349536Y815769D01*
X349506Y815659D01*
X349473Y815551D01*
X349436Y815444D01*
X349396Y815338D01*
X349351Y815234D01*
X349303Y815131D01*
X349252Y815030D01*
X349197Y814931D01*
X349139Y814834D01*
X349077Y814739D01*
X349012Y814646D01*
X348944Y814556D01*
X348873Y814468D01*
X348798Y814382D01*
X348721Y814299D01*
X348641Y814219D01*
X348558Y814142D01*
X348472Y814067D01*
X348384Y813996D01*
X348294Y813928D01*
X348201Y813863D01*
X348106Y813801D01*
X348009Y813743D01*
X347910Y813688D01*
X347809Y813637D01*
X347706Y813589D01*
X347602Y813544D01*
X347496Y813504D01*
X347389Y813467D01*
X347281Y813434D01*
X347171Y813404D01*
X347061Y813379D01*
X346950Y813357D01*
X346838Y813340D01*
X346725Y813326D01*
X346612Y813316D01*
X346499Y813310D01*
X346386Y813308D01*
X346385Y813308D02*
X343140Y813308D01*
X354951Y813308D02*
X358196Y813308D01*
X358309Y813310D01*
X358422Y813316D01*
X358535Y813326D01*
X358648Y813340D01*
X358760Y813357D01*
X358871Y813379D01*
X358981Y813404D01*
X359091Y813434D01*
X359199Y813467D01*
X359306Y813504D01*
X359412Y813544D01*
X359516Y813589D01*
X359619Y813637D01*
X359720Y813688D01*
X359819Y813743D01*
X359916Y813801D01*
X360011Y813863D01*
X360104Y813928D01*
X360194Y813996D01*
X360282Y814067D01*
X360368Y814142D01*
X360451Y814219D01*
X360531Y814299D01*
X360608Y814382D01*
X360683Y814468D01*
X360754Y814556D01*
X360822Y814646D01*
X360887Y814739D01*
X360949Y814834D01*
X361007Y814931D01*
X361062Y815030D01*
X361113Y815131D01*
X361161Y815234D01*
X361206Y815338D01*
X361246Y815444D01*
X361283Y815551D01*
X361316Y815659D01*
X361346Y815769D01*
X361371Y815879D01*
X361393Y815990D01*
X361410Y816102D01*
X361424Y816215D01*
X361434Y816328D01*
X361440Y816441D01*
X361442Y816554D01*
X361440Y816667D01*
X361434Y816780D01*
X361424Y816893D01*
X361410Y817006D01*
X361393Y817118D01*
X361371Y817229D01*
X361346Y817339D01*
X361316Y817449D01*
X361283Y817557D01*
X361246Y817664D01*
X361206Y817770D01*
X361161Y817874D01*
X361113Y817977D01*
X361062Y818078D01*
X361007Y818177D01*
X360949Y818274D01*
X360887Y818369D01*
X360822Y818462D01*
X360754Y818552D01*
X360683Y818640D01*
X360608Y818726D01*
X360531Y818809D01*
X360451Y818889D01*
X360368Y818966D01*
X360282Y819041D01*
X360194Y819112D01*
X360104Y819180D01*
X360011Y819245D01*
X359916Y819307D01*
X359819Y819365D01*
X359720Y819420D01*
X359619Y819471D01*
X359516Y819519D01*
X359412Y819564D01*
X359306Y819604D01*
X359199Y819641D01*
X359091Y819674D01*
X358981Y819704D01*
X358871Y819729D01*
X358760Y819751D01*
X358648Y819768D01*
X358535Y819782D01*
X358422Y819792D01*
X358309Y819798D01*
X358196Y819800D01*
X358846Y824992D02*
X354951Y824992D01*
X358846Y824992D02*
X358947Y824990D01*
X359047Y824984D01*
X359147Y824974D01*
X359247Y824961D01*
X359346Y824943D01*
X359445Y824922D01*
X359542Y824897D01*
X359639Y824868D01*
X359734Y824835D01*
X359828Y824799D01*
X359920Y824759D01*
X360011Y824716D01*
X360100Y824669D01*
X360187Y824619D01*
X360273Y824565D01*
X360356Y824508D01*
X360436Y824448D01*
X360515Y824385D01*
X360591Y824318D01*
X360664Y824249D01*
X360734Y824177D01*
X360802Y824103D01*
X360867Y824026D01*
X360928Y823946D01*
X360987Y823864D01*
X361042Y823780D01*
X361094Y823694D01*
X361143Y823606D01*
X361188Y823516D01*
X361230Y823424D01*
X361268Y823331D01*
X361302Y823236D01*
X361333Y823141D01*
X361360Y823044D01*
X361383Y822946D01*
X361403Y822847D01*
X361418Y822747D01*
X361430Y822647D01*
X361438Y822547D01*
X361442Y822446D01*
X361442Y822346D01*
X361438Y822245D01*
X361430Y822145D01*
X361418Y822045D01*
X361403Y821945D01*
X361383Y821846D01*
X361360Y821748D01*
X361333Y821651D01*
X361302Y821556D01*
X361268Y821461D01*
X361230Y821368D01*
X361188Y821276D01*
X361143Y821186D01*
X361094Y821098D01*
X361042Y821012D01*
X360987Y820928D01*
X360928Y820846D01*
X360867Y820766D01*
X360802Y820689D01*
X360734Y820615D01*
X360664Y820543D01*
X360591Y820474D01*
X360515Y820407D01*
X360436Y820344D01*
X360356Y820284D01*
X360273Y820227D01*
X360187Y820173D01*
X360100Y820123D01*
X360011Y820076D01*
X359920Y820033D01*
X359828Y819993D01*
X359734Y819957D01*
X359639Y819924D01*
X359542Y819895D01*
X359445Y819870D01*
X359346Y819849D01*
X359247Y819831D01*
X359147Y819818D01*
X359047Y819808D01*
X358947Y819802D01*
X358846Y819800D01*
X358846Y819799D02*
X356249Y819799D01*
X343140Y799592D02*
X343140Y787908D01*
X343140Y799592D02*
X346385Y799592D01*
X346498Y799590D01*
X346611Y799584D01*
X346724Y799574D01*
X346837Y799560D01*
X346949Y799543D01*
X347060Y799521D01*
X347170Y799496D01*
X347280Y799466D01*
X347388Y799433D01*
X347495Y799396D01*
X347601Y799356D01*
X347705Y799311D01*
X347808Y799263D01*
X347909Y799212D01*
X348008Y799157D01*
X348105Y799099D01*
X348200Y799037D01*
X348293Y798972D01*
X348383Y798904D01*
X348471Y798833D01*
X348557Y798758D01*
X348640Y798681D01*
X348720Y798601D01*
X348797Y798518D01*
X348872Y798432D01*
X348943Y798344D01*
X349011Y798254D01*
X349076Y798161D01*
X349138Y798066D01*
X349196Y797969D01*
X349251Y797870D01*
X349302Y797769D01*
X349350Y797666D01*
X349395Y797562D01*
X349435Y797456D01*
X349472Y797349D01*
X349505Y797241D01*
X349535Y797131D01*
X349560Y797021D01*
X349582Y796910D01*
X349599Y796798D01*
X349613Y796685D01*
X349623Y796572D01*
X349629Y796459D01*
X349631Y796346D01*
X349631Y791154D01*
X349632Y791154D02*
X349630Y791041D01*
X349624Y790928D01*
X349614Y790815D01*
X349600Y790702D01*
X349583Y790590D01*
X349561Y790479D01*
X349536Y790369D01*
X349506Y790259D01*
X349473Y790151D01*
X349436Y790044D01*
X349396Y789938D01*
X349351Y789834D01*
X349303Y789731D01*
X349252Y789630D01*
X349197Y789531D01*
X349139Y789434D01*
X349077Y789339D01*
X349012Y789246D01*
X348944Y789156D01*
X348873Y789068D01*
X348798Y788982D01*
X348721Y788899D01*
X348641Y788819D01*
X348558Y788742D01*
X348472Y788667D01*
X348384Y788596D01*
X348294Y788528D01*
X348201Y788463D01*
X348106Y788401D01*
X348009Y788343D01*
X347910Y788288D01*
X347809Y788237D01*
X347706Y788189D01*
X347602Y788144D01*
X347496Y788104D01*
X347389Y788067D01*
X347281Y788034D01*
X347171Y788004D01*
X347061Y787979D01*
X346950Y787957D01*
X346838Y787940D01*
X346725Y787926D01*
X346612Y787916D01*
X346499Y787910D01*
X346386Y787908D01*
X346385Y787908D02*
X343140Y787908D01*
X354951Y790504D02*
X357547Y799592D01*
X354951Y790504D02*
X361442Y790504D01*
X359495Y793101D02*
X359495Y787908D01*
X337058Y768999D02*
X335111Y768999D01*
X337058Y768999D02*
X337058Y762508D01*
X333163Y762508D01*
X333064Y762510D01*
X332964Y762516D01*
X332865Y762525D01*
X332767Y762538D01*
X332669Y762555D01*
X332571Y762576D01*
X332475Y762601D01*
X332380Y762629D01*
X332286Y762661D01*
X332193Y762696D01*
X332101Y762735D01*
X332011Y762778D01*
X331923Y762823D01*
X331836Y762873D01*
X331752Y762925D01*
X331669Y762981D01*
X331589Y763039D01*
X331511Y763101D01*
X331436Y763166D01*
X331363Y763234D01*
X331293Y763304D01*
X331225Y763377D01*
X331160Y763452D01*
X331098Y763530D01*
X331040Y763610D01*
X330984Y763693D01*
X330932Y763777D01*
X330882Y763864D01*
X330837Y763952D01*
X330794Y764042D01*
X330755Y764134D01*
X330720Y764227D01*
X330688Y764321D01*
X330660Y764416D01*
X330635Y764512D01*
X330614Y764610D01*
X330597Y764708D01*
X330584Y764806D01*
X330575Y764905D01*
X330569Y765005D01*
X330567Y765104D01*
X330567Y771596D01*
X330569Y771695D01*
X330575Y771795D01*
X330584Y771894D01*
X330597Y771992D01*
X330614Y772090D01*
X330635Y772188D01*
X330660Y772284D01*
X330688Y772379D01*
X330720Y772473D01*
X330755Y772566D01*
X330794Y772658D01*
X330837Y772748D01*
X330882Y772836D01*
X330932Y772923D01*
X330984Y773007D01*
X331040Y773090D01*
X331098Y773170D01*
X331160Y773248D01*
X331225Y773323D01*
X331293Y773396D01*
X331363Y773466D01*
X331436Y773534D01*
X331511Y773599D01*
X331589Y773661D01*
X331669Y773719D01*
X331752Y773775D01*
X331836Y773827D01*
X331923Y773877D01*
X332011Y773922D01*
X332101Y773965D01*
X332193Y774004D01*
X332285Y774039D01*
X332380Y774071D01*
X332475Y774099D01*
X332571Y774124D01*
X332669Y774145D01*
X332767Y774162D01*
X332865Y774175D01*
X332964Y774184D01*
X333064Y774190D01*
X333163Y774192D01*
X337058Y774192D01*
X342759Y774192D02*
X342759Y762508D01*
X349250Y762508D02*
X342759Y774192D01*
X349250Y774192D02*
X349250Y762508D01*
X354951Y762508D02*
X354951Y774192D01*
X358196Y774192D01*
X358309Y774190D01*
X358422Y774184D01*
X358535Y774174D01*
X358648Y774160D01*
X358760Y774143D01*
X358871Y774121D01*
X358981Y774096D01*
X359091Y774066D01*
X359199Y774033D01*
X359306Y773996D01*
X359412Y773956D01*
X359516Y773911D01*
X359619Y773863D01*
X359720Y773812D01*
X359819Y773757D01*
X359916Y773699D01*
X360011Y773637D01*
X360104Y773572D01*
X360194Y773504D01*
X360282Y773433D01*
X360368Y773358D01*
X360451Y773281D01*
X360531Y773201D01*
X360608Y773118D01*
X360683Y773032D01*
X360754Y772944D01*
X360822Y772854D01*
X360887Y772761D01*
X360949Y772666D01*
X361007Y772569D01*
X361062Y772470D01*
X361113Y772369D01*
X361161Y772266D01*
X361206Y772162D01*
X361246Y772056D01*
X361283Y771949D01*
X361316Y771841D01*
X361346Y771731D01*
X361371Y771621D01*
X361393Y771510D01*
X361410Y771398D01*
X361424Y771285D01*
X361434Y771172D01*
X361440Y771059D01*
X361442Y770946D01*
X361442Y765754D01*
X361440Y765641D01*
X361434Y765528D01*
X361424Y765415D01*
X361410Y765302D01*
X361393Y765190D01*
X361371Y765079D01*
X361346Y764969D01*
X361316Y764859D01*
X361283Y764751D01*
X361246Y764644D01*
X361206Y764538D01*
X361161Y764434D01*
X361113Y764331D01*
X361062Y764230D01*
X361007Y764131D01*
X360949Y764034D01*
X360887Y763939D01*
X360822Y763846D01*
X360754Y763756D01*
X360683Y763668D01*
X360608Y763582D01*
X360531Y763499D01*
X360451Y763419D01*
X360368Y763342D01*
X360282Y763267D01*
X360194Y763196D01*
X360104Y763128D01*
X360011Y763063D01*
X359916Y763001D01*
X359819Y762943D01*
X359720Y762888D01*
X359619Y762837D01*
X359516Y762789D01*
X359412Y762744D01*
X359306Y762704D01*
X359199Y762667D01*
X359091Y762634D01*
X358981Y762604D01*
X358871Y762579D01*
X358760Y762557D01*
X358648Y762540D01*
X358535Y762526D01*
X358422Y762516D01*
X358309Y762510D01*
X358196Y762508D01*
X354951Y762508D01*
X346766Y737108D02*
X342872Y737108D01*
X346766Y737108D02*
X346865Y737110D01*
X346965Y737116D01*
X347064Y737125D01*
X347162Y737138D01*
X347260Y737155D01*
X347358Y737176D01*
X347454Y737201D01*
X347549Y737229D01*
X347643Y737261D01*
X347736Y737296D01*
X347828Y737335D01*
X347918Y737378D01*
X348006Y737423D01*
X348093Y737473D01*
X348177Y737525D01*
X348260Y737581D01*
X348340Y737639D01*
X348418Y737701D01*
X348493Y737766D01*
X348566Y737834D01*
X348636Y737904D01*
X348704Y737977D01*
X348769Y738052D01*
X348831Y738130D01*
X348889Y738210D01*
X348945Y738293D01*
X348997Y738377D01*
X349047Y738464D01*
X349092Y738552D01*
X349135Y738642D01*
X349174Y738734D01*
X349209Y738827D01*
X349241Y738921D01*
X349269Y739016D01*
X349294Y739112D01*
X349315Y739210D01*
X349332Y739308D01*
X349345Y739406D01*
X349354Y739505D01*
X349360Y739605D01*
X349362Y739704D01*
X349363Y739704D02*
X349363Y741003D01*
X349362Y741003D02*
X349360Y741102D01*
X349354Y741202D01*
X349345Y741301D01*
X349332Y741399D01*
X349315Y741497D01*
X349294Y741595D01*
X349269Y741691D01*
X349241Y741786D01*
X349209Y741880D01*
X349174Y741973D01*
X349135Y742065D01*
X349092Y742155D01*
X349047Y742243D01*
X348997Y742330D01*
X348945Y742414D01*
X348889Y742497D01*
X348831Y742577D01*
X348769Y742655D01*
X348704Y742730D01*
X348636Y742803D01*
X348566Y742873D01*
X348493Y742941D01*
X348418Y743006D01*
X348340Y743068D01*
X348260Y743126D01*
X348177Y743182D01*
X348093Y743234D01*
X348006Y743284D01*
X347918Y743329D01*
X347828Y743372D01*
X347736Y743411D01*
X347643Y743446D01*
X347549Y743478D01*
X347454Y743506D01*
X347358Y743531D01*
X347260Y743552D01*
X347162Y743569D01*
X347064Y743582D01*
X346965Y743591D01*
X346865Y743597D01*
X346766Y743599D01*
X342872Y743599D01*
X342872Y748792D01*
X349363Y748792D01*
X353653Y748792D02*
X357547Y737108D01*
X361442Y748792D01*
D12*
X146050Y857250D02*
X139700Y863600D01*
X139700Y876300D02*
X146050Y882650D01*
X139700Y889000D01*
X139700Y901700D02*
X146050Y908050D01*
X139700Y914400D01*
X139700Y927100D02*
X146050Y933450D01*
X158750Y933450D01*
X165100Y927100D01*
X165100Y914400D01*
X158750Y908050D01*
X165100Y901700D01*
X165100Y889000D01*
X158750Y882650D01*
X165100Y876300D01*
X165100Y863600D01*
X158750Y857250D01*
X368300Y749300D02*
X368300Y736600D01*
X368300Y762000D02*
X368300Y774700D01*
X368300Y787400D02*
X368300Y800100D01*
X368300Y812800D02*
X368300Y825500D01*
X368300Y838200D02*
X368300Y850900D01*
X374650Y857250D02*
X368300Y863600D01*
X368300Y876300D01*
X374650Y882650D01*
X368300Y889000D01*
X368300Y901700D01*
X374650Y908050D01*
X368300Y914400D01*
X368300Y927100D01*
X374650Y933450D01*
X387350Y933450D01*
X393700Y927100D01*
X393700Y914400D02*
X387350Y908050D01*
X393700Y901700D01*
X393700Y889000D02*
X387350Y882650D01*
X393700Y876300D01*
X393700Y863600D02*
X387350Y857250D01*
X139700Y863600D02*
X139700Y723900D01*
X158750Y723900D01*
X158750Y654050D01*
X393700Y654050D01*
M02*
