G04 EAGLE Gerber RS-274X export*
G75*
%MOMM*%
%FSLAX34Y34*%
%LPD*%
%INSoldermask Top*%
%IPPOS*%
%AMOC8*
5,1,8,0,0,1.08239X$1,22.5*%
G01*
%ADD10C,1.270000*%
%ADD11P,1.457113X8X202.500000*%
%ADD12P,1.457113X8X22.500000*%
%ADD13C,1.627000*%
%ADD14C,1.651000*%


D10*
X203200Y768350D02*
X191770Y768350D01*
X215900Y755650D02*
X227330Y755650D01*
X227330Y781050D02*
X215900Y781050D01*
X203200Y793750D02*
X191770Y793750D01*
D11*
X241300Y901700D03*
X215900Y901700D03*
D12*
X292100Y901700D03*
X317500Y901700D03*
D11*
X330200Y800100D03*
X254000Y800100D03*
X330200Y774700D03*
X254000Y774700D03*
X330200Y749300D03*
X254000Y749300D03*
X330200Y825500D03*
X254000Y825500D03*
X330200Y850900D03*
X254000Y850900D03*
D13*
X152400Y768350D03*
X152400Y793750D03*
X152400Y819150D03*
X152400Y844550D03*
X152400Y869950D03*
X152400Y895350D03*
X152400Y920750D03*
X381000Y768350D03*
X381000Y793750D03*
X381000Y819150D03*
X381000Y844550D03*
X381000Y869950D03*
X381000Y895350D03*
X381000Y920750D03*
X152400Y742950D03*
X381000Y742950D03*
D14*
X190500Y693420D02*
X190500Y678180D01*
X215900Y678180D02*
X215900Y693420D01*
X241300Y693420D02*
X241300Y678180D01*
X292100Y678180D02*
X292100Y693420D01*
X317500Y693420D02*
X317500Y678180D01*
X342900Y678180D02*
X342900Y693420D01*
X368300Y693420D02*
X368300Y678180D01*
M02*
